<svg width="399" height="66" viewBox="0 0 399 66" fill="none" xmlns="http://www.w3.org/2000/svg">
<rect width="399" height="66" fill="white"/>
<path d="M30.776 34.696C32.456 36.888 34.632 38.76 37.304 40.312L35.144 43.648C33.784 42.72 32.496 41.64 31.28 40.408C30.08 39.16 29 37.808 28.04 36.352V41.728C28.04 42.624 27.928 43.32 27.704 43.816C27.496 44.328 27.168 44.688 26.72 44.896C26.288 45.12 25.704 45.24 24.968 45.256C23.976 45.272 22.872 45.224 21.656 45.112L20.96 41.8C21.84 41.928 22.72 41.992 23.6 41.992C24 41.992 24.264 41.888 24.392 41.68C24.536 41.472 24.608 41.12 24.608 40.624V30.184H17.528V26.896H27.176C24.904 26.048 23.12 25.408 21.824 24.976L22.952 21.952C25.64 22.816 28.192 23.728 30.608 24.688L29.504 27.784C28.656 27.464 28.168 27.28 28.04 27.232V29.968C28.312 30.624 28.608 31.232 28.928 31.792C30.848 30.208 32.392 28.768 33.56 27.472L36.176 30.184C34.464 31.72 32.664 33.224 30.776 34.696ZM23.456 31.912V35.056C23.04 36.608 22.296 38.128 21.224 39.616C20.168 41.104 18.632 42.632 16.616 44.2L14.336 41.152C15.808 40.176 17.016 39.176 17.96 38.152C18.904 37.128 19.56 36.12 19.928 35.128H15.176V31.912H23.456ZM53.672 30.928C54.952 31.904 56.32 33.008 57.776 34.24C59.248 35.472 60.424 36.512 61.304 37.36L58.784 40.264C57.296 38.696 54.976 36.56 51.824 33.856V45.136H48.2V34.096C46.248 36.272 43.84 38.424 40.976 40.552L38.816 37.36C40.96 35.936 42.88 34.376 44.576 32.68C46.272 30.968 47.688 29.216 48.824 27.424H39.872V23.944H60.416V27.424H52.904C52.568 28.08 52.208 28.704 51.824 29.296V33.208L53.672 30.928ZM75.704 34.576H84.728V37.936H75.704V45.256H72.296V37.936H63.224V34.576H72.296V26.752H64.208V23.44H83.768V26.752H75.704V34.576ZM76.904 31.984C77.48 31.392 78.088 30.664 78.728 29.8C79.384 28.92 79.936 28.12 80.384 27.4L83.072 29.128C82.624 29.8 82.064 30.584 81.392 31.48C80.72 32.36 80.104 33.112 79.544 33.736L76.904 31.984ZM67.544 27.496C68.072 28.12 68.672 28.864 69.344 29.728C70.016 30.592 70.608 31.392 71.12 32.128L68.48 33.88C67.984 33.128 67.4 32.312 66.728 31.432C66.056 30.536 65.464 29.792 64.952 29.2L67.544 27.496ZM107.6 34.312H101.168V35.032H107.624V41.872C107.624 42.816 107.544 43.496 107.384 43.912C107.224 44.328 106.92 44.6 106.472 44.728C106.04 44.872 105.336 44.944 104.36 44.944C103.864 44.944 103.352 44.92 102.824 44.872L102.44 42.592C102.952 42.656 103.528 42.688 104.168 42.688C104.376 42.688 104.512 42.64 104.576 42.544C104.656 42.448 104.696 42.288 104.696 42.064V42.016H101.168V44.656H98.36V42.016H94.904V44.872H92.048V35.032H98.36V34.312H92.312V32.68H98.36V31.96H91.4V33.256C91.4 35.912 91.248 38.096 90.944 39.808C90.64 41.504 90.04 43.256 89.144 45.064L86.408 43.768C86.936 42.6 87.344 41.52 87.632 40.528C87.92 39.52 88.128 38.392 88.256 37.144C88.384 35.896 88.448 34.352 88.448 32.512V24.4H97.328C97.024 23.728 96.784 23.232 96.608 22.912L100.52 22.48L100.712 22.936C100.968 23.448 101.184 23.936 101.36 24.4H108.512V26.752H101.168V27.592H107.6V30.112H109.088V31.96H107.6V34.312ZM91.4 26.752V30.112H98.36V29.392H92.456V27.592H98.36V26.752H91.4ZM104.816 30.112V29.392H101.168V30.112H104.816ZM104.816 31.96H101.168V32.68H104.816V31.96ZM98.36 37.72V36.904H94.904V37.72H98.36ZM104.696 37.72V36.904H101.168V37.72H104.696ZM94.904 39.4V40.336H98.36V39.4H94.904ZM101.168 39.4V40.336H104.696V39.4H101.168Z" fill="#FFD230"/>
<path d="M153.842 25.7812V40H150.912L145.199 30.4688V40H142.27V25.7812H145.199L150.922 35.3223V25.7812H153.842ZM161.078 40.1953C160.258 40.1953 159.522 40.0651 158.871 39.8047C158.22 39.5378 157.667 39.1699 157.211 38.7012C156.762 38.2324 156.417 37.6888 156.176 37.0703C155.935 36.4453 155.814 35.7812 155.814 35.0781V34.6875C155.814 33.8867 155.928 33.1543 156.156 32.4902C156.384 31.8262 156.71 31.25 157.133 30.7617C157.562 30.2734 158.083 29.8991 158.695 29.6387C159.307 29.3717 159.997 29.2383 160.766 29.2383C161.514 29.2383 162.178 29.362 162.758 29.6094C163.337 29.8568 163.822 30.2083 164.213 30.6641C164.61 31.1198 164.91 31.6667 165.111 32.3047C165.313 32.9362 165.414 33.6393 165.414 34.4141V35.5859H157.016V33.7109H162.65V33.4961C162.65 33.1055 162.579 32.7572 162.436 32.4512C162.299 32.1387 162.09 31.8913 161.811 31.709C161.531 31.5267 161.173 31.4355 160.736 31.4355C160.365 31.4355 160.046 31.5169 159.779 31.6797C159.512 31.8424 159.294 32.0703 159.125 32.3633C158.962 32.6562 158.839 33.0013 158.754 33.3984C158.676 33.7891 158.637 34.2188 158.637 34.6875V35.0781C158.637 35.5013 158.695 35.8919 158.812 36.25C158.936 36.6081 159.109 36.9173 159.33 37.1777C159.558 37.4382 159.831 37.64 160.15 37.7832C160.476 37.9264 160.844 37.998 161.254 37.998C161.762 37.998 162.234 37.9004 162.67 37.7051C163.113 37.5033 163.493 37.2005 163.812 36.7969L165.18 38.2812C164.958 38.6003 164.656 38.9062 164.271 39.1992C163.894 39.4922 163.438 39.7331 162.904 39.9219C162.37 40.1042 161.762 40.1953 161.078 40.1953ZM170.473 37.9492L172.816 29.4336H175.756L172.191 40H170.414L170.473 37.9492ZM168.861 29.4336L171.215 37.959L171.264 40H169.477L165.912 29.4336H168.861ZM181.742 40.1953C180.922 40.1953 180.186 40.0651 179.535 39.8047C178.884 39.5378 178.331 39.1699 177.875 38.7012C177.426 38.2324 177.081 37.6888 176.84 37.0703C176.599 36.4453 176.479 35.7812 176.479 35.0781V34.6875C176.479 33.8867 176.592 33.1543 176.82 32.4902C177.048 31.8262 177.374 31.25 177.797 30.7617C178.227 30.2734 178.747 29.8991 179.359 29.6387C179.971 29.3717 180.661 29.2383 181.43 29.2383C182.178 29.2383 182.842 29.362 183.422 29.6094C184.001 29.8568 184.486 30.2083 184.877 30.6641C185.274 31.1198 185.574 31.6667 185.775 32.3047C185.977 32.9362 186.078 33.6393 186.078 34.4141V35.5859H177.68V33.7109H183.314V33.4961C183.314 33.1055 183.243 32.7572 183.1 32.4512C182.963 32.1387 182.755 31.8913 182.475 31.709C182.195 31.5267 181.837 31.4355 181.4 31.4355C181.029 31.4355 180.71 31.5169 180.443 31.6797C180.176 31.8424 179.958 32.0703 179.789 32.3633C179.626 32.6562 179.503 33.0013 179.418 33.3984C179.34 33.7891 179.301 34.2188 179.301 34.6875V35.0781C179.301 35.5013 179.359 35.8919 179.477 36.25C179.6 36.6081 179.773 36.9173 179.994 37.1777C180.222 37.4382 180.495 37.64 180.814 37.7832C181.14 37.9264 181.508 37.998 181.918 37.998C182.426 37.998 182.898 37.9004 183.334 37.7051C183.777 37.5033 184.158 37.2005 184.477 36.7969L185.844 38.2812C185.622 38.6003 185.32 38.9062 184.936 39.1992C184.558 39.4922 184.102 39.7331 183.568 39.9219C183.035 40.1042 182.426 40.1953 181.742 40.1953ZM190.492 31.7383V40H187.68V29.4336H190.326L190.492 31.7383ZM193.676 29.3652L193.627 31.9727C193.49 31.9531 193.324 31.9368 193.129 31.9238C192.94 31.9043 192.768 31.8945 192.611 31.8945C192.214 31.8945 191.869 31.9466 191.576 32.0508C191.29 32.1484 191.049 32.2949 190.854 32.4902C190.665 32.6855 190.521 32.9232 190.424 33.2031C190.333 33.4831 190.281 33.8021 190.268 34.1602L189.701 33.9844C189.701 33.3008 189.77 32.6725 189.906 32.0996C190.043 31.5202 190.242 31.0156 190.502 30.5859C190.769 30.1562 191.094 29.8242 191.479 29.5898C191.863 29.3555 192.302 29.2383 192.797 29.2383C192.953 29.2383 193.113 29.2513 193.275 29.2773C193.438 29.2969 193.572 29.3262 193.676 29.3652ZM207.562 36.2793C207.562 36.0254 207.523 35.7975 207.445 35.5957C207.374 35.3874 207.237 35.1986 207.035 35.0293C206.833 34.8535 206.55 34.681 206.186 34.5117C205.821 34.3424 205.349 34.1667 204.77 33.9844C204.125 33.776 203.513 33.5417 202.934 33.2812C202.361 33.0208 201.853 32.7181 201.41 32.373C200.974 32.0215 200.629 31.6146 200.375 31.1523C200.128 30.6901 200.004 30.153 200.004 29.541C200.004 28.9486 200.134 28.4115 200.395 27.9297C200.655 27.4414 201.02 27.0247 201.488 26.6797C201.957 26.3281 202.51 26.0579 203.148 25.8691C203.793 25.6803 204.499 25.5859 205.268 25.5859C206.316 25.5859 207.23 25.7747 208.012 26.1523C208.793 26.5299 209.398 27.0475 209.828 27.7051C210.264 28.3626 210.482 29.1146 210.482 29.9609H207.572C207.572 29.5443 207.484 29.1797 207.309 28.8672C207.139 28.5482 206.879 28.2975 206.527 28.1152C206.182 27.9329 205.746 27.8418 205.219 27.8418C204.711 27.8418 204.288 27.9199 203.949 28.0762C203.611 28.2259 203.357 28.431 203.188 28.6914C203.018 28.9453 202.934 29.2318 202.934 29.5508C202.934 29.7917 202.992 30.0098 203.109 30.2051C203.233 30.4004 203.415 30.5827 203.656 30.752C203.897 30.9212 204.193 31.0807 204.545 31.2305C204.896 31.3802 205.303 31.5267 205.766 31.6699C206.54 31.9043 207.221 32.168 207.807 32.4609C208.399 32.7539 208.894 33.0827 209.291 33.4473C209.688 33.8118 209.988 34.2253 210.189 34.6875C210.391 35.1497 210.492 35.6738 210.492 36.2598C210.492 36.8783 210.372 37.4316 210.131 37.9199C209.89 38.4082 209.542 38.8216 209.086 39.1602C208.63 39.4987 208.087 39.7559 207.455 39.9316C206.824 40.1074 206.117 40.1953 205.336 40.1953C204.633 40.1953 203.939 40.1042 203.256 39.9219C202.572 39.7331 201.951 39.4499 201.391 39.0723C200.837 38.6947 200.395 38.2129 200.062 37.627C199.73 37.041 199.564 36.3477 199.564 35.5469H202.504C202.504 35.9896 202.572 36.3639 202.709 36.6699C202.846 36.9759 203.038 37.2233 203.285 37.4121C203.539 37.6009 203.839 37.7376 204.184 37.8223C204.535 37.9069 204.919 37.9492 205.336 37.9492C205.844 37.9492 206.26 37.8776 206.586 37.7344C206.918 37.5911 207.162 37.3926 207.318 37.1387C207.481 36.8848 207.562 36.5983 207.562 36.2793ZM217.172 40.1953C216.352 40.1953 215.616 40.0651 214.965 39.8047C214.314 39.5378 213.76 39.1699 213.305 38.7012C212.855 38.2324 212.51 37.6888 212.27 37.0703C212.029 36.4453 211.908 35.7812 211.908 35.0781V34.6875C211.908 33.8867 212.022 33.1543 212.25 32.4902C212.478 31.8262 212.803 31.25 213.227 30.7617C213.656 30.2734 214.177 29.8991 214.789 29.6387C215.401 29.3717 216.091 29.2383 216.859 29.2383C217.608 29.2383 218.272 29.362 218.852 29.6094C219.431 29.8568 219.916 30.2083 220.307 30.6641C220.704 31.1198 221.003 31.6667 221.205 32.3047C221.407 32.9362 221.508 33.6393 221.508 34.4141V35.5859H213.109V33.7109H218.744V33.4961C218.744 33.1055 218.673 32.7572 218.529 32.4512C218.393 32.1387 218.184 31.8913 217.904 31.709C217.624 31.5267 217.266 31.4355 216.83 31.4355C216.459 31.4355 216.14 31.5169 215.873 31.6797C215.606 31.8424 215.388 32.0703 215.219 32.3633C215.056 32.6562 214.932 33.0013 214.848 33.3984C214.77 33.7891 214.73 34.2188 214.73 34.6875V35.0781C214.73 35.5013 214.789 35.8919 214.906 36.25C215.03 36.6081 215.202 36.9173 215.424 37.1777C215.652 37.4382 215.925 37.64 216.244 37.7832C216.57 37.9264 216.938 37.998 217.348 37.998C217.855 37.998 218.327 37.9004 218.764 37.7051C219.206 37.5033 219.587 37.2005 219.906 36.7969L221.273 38.2812C221.052 38.6003 220.749 38.9062 220.365 39.1992C219.988 39.4922 219.532 39.7331 218.998 39.9219C218.464 40.1042 217.855 40.1953 217.172 40.1953ZM228.285 29.4336V31.4258H222.133V29.4336H228.285ZM223.656 26.8262H226.469V36.8164C226.469 37.1224 226.508 37.3568 226.586 37.5195C226.671 37.6823 226.794 37.7962 226.957 37.8613C227.12 37.9199 227.325 37.9492 227.572 37.9492C227.748 37.9492 227.904 37.9427 228.041 37.9297C228.184 37.9102 228.305 37.8906 228.402 37.8711L228.412 39.9414C228.171 40.0195 227.911 40.0814 227.631 40.127C227.351 40.1725 227.042 40.1953 226.703 40.1953C226.085 40.1953 225.544 40.0944 225.082 39.8926C224.626 39.6842 224.275 39.3522 224.027 38.8965C223.78 38.4408 223.656 37.8418 223.656 37.0996V26.8262ZM235.062 29.4336V31.4258H228.91V29.4336H235.062ZM230.434 26.8262H233.246V36.8164C233.246 37.1224 233.285 37.3568 233.363 37.5195C233.448 37.6823 233.572 37.7962 233.734 37.8613C233.897 37.9199 234.102 37.9492 234.35 37.9492C234.525 37.9492 234.682 37.9427 234.818 37.9297C234.962 37.9102 235.082 37.8906 235.18 37.8711L235.189 39.9414C234.949 40.0195 234.688 40.0814 234.408 40.127C234.128 40.1725 233.819 40.1953 233.48 40.1953C232.862 40.1953 232.322 40.0944 231.859 39.8926C231.404 39.6842 231.052 39.3522 230.805 38.8965C230.557 38.4408 230.434 37.8418 230.434 37.0996V26.8262ZM239.633 25V40H236.811V25H239.633ZM246.82 40.1953C246 40.1953 245.264 40.0651 244.613 39.8047C243.962 39.5378 243.409 39.1699 242.953 38.7012C242.504 38.2324 242.159 37.6888 241.918 37.0703C241.677 36.4453 241.557 35.7812 241.557 35.0781V34.6875C241.557 33.8867 241.671 33.1543 241.898 32.4902C242.126 31.8262 242.452 31.25 242.875 30.7617C243.305 30.2734 243.826 29.8991 244.438 29.6387C245.049 29.3717 245.74 29.2383 246.508 29.2383C247.257 29.2383 247.921 29.362 248.5 29.6094C249.079 29.8568 249.564 30.2083 249.955 30.6641C250.352 31.1198 250.652 31.6667 250.854 32.3047C251.055 32.9362 251.156 33.6393 251.156 34.4141V35.5859H242.758V33.7109H248.393V33.4961C248.393 33.1055 248.321 32.7572 248.178 32.4512C248.041 32.1387 247.833 31.8913 247.553 31.709C247.273 31.5267 246.915 31.4355 246.479 31.4355C246.107 31.4355 245.788 31.5169 245.521 31.6797C245.255 31.8424 245.036 32.0703 244.867 32.3633C244.704 32.6562 244.581 33.0013 244.496 33.3984C244.418 33.7891 244.379 34.2188 244.379 34.6875V35.0781C244.379 35.5013 244.438 35.8919 244.555 36.25C244.678 36.6081 244.851 36.9173 245.072 37.1777C245.3 37.4382 245.574 37.64 245.893 37.7832C246.218 37.9264 246.586 37.998 246.996 37.998C247.504 37.998 247.976 37.9004 248.412 37.7051C248.855 37.5033 249.236 37.2005 249.555 36.7969L250.922 38.2812C250.701 38.6003 250.398 38.9062 250.014 39.1992C249.636 39.4922 249.18 39.7331 248.646 39.9219C248.113 40.1042 247.504 40.1953 246.82 40.1953ZM261.322 40H258.49V28.4961C258.49 27.6953 258.646 27.0215 258.959 26.4746C259.278 25.9212 259.724 25.5046 260.297 25.2246C260.876 24.9382 261.563 24.7949 262.357 24.7949C262.618 24.7949 262.868 24.8145 263.109 24.8535C263.35 24.8861 263.585 24.9284 263.812 24.9805L263.783 27.0996C263.66 27.0671 263.529 27.0443 263.393 27.0312C263.256 27.0182 263.096 27.0117 262.914 27.0117C262.576 27.0117 262.286 27.0703 262.045 27.1875C261.811 27.2982 261.632 27.4642 261.508 27.6855C261.384 27.9069 261.322 28.1771 261.322 28.4961V40ZM263.432 29.4336V31.4258H256.918V29.4336H263.432ZM264.457 34.8242V34.6191C264.457 33.8444 264.568 33.1315 264.789 32.4805C265.01 31.8229 265.333 31.2533 265.756 30.7715C266.179 30.2897 266.7 29.9154 267.318 29.6484C267.937 29.375 268.646 29.2383 269.447 29.2383C270.248 29.2383 270.961 29.375 271.586 29.6484C272.211 29.9154 272.735 30.2897 273.158 30.7715C273.588 31.2533 273.913 31.8229 274.135 32.4805C274.356 33.1315 274.467 33.8444 274.467 34.6191V34.8242C274.467 35.5924 274.356 36.3053 274.135 36.9629C273.913 37.6139 273.588 38.1836 273.158 38.6719C272.735 39.1536 272.214 39.528 271.596 39.7949C270.977 40.0618 270.268 40.1953 269.467 40.1953C268.666 40.1953 267.953 40.0618 267.328 39.7949C266.71 39.528 266.186 39.1536 265.756 38.6719C265.333 38.1836 265.01 37.6139 264.789 36.9629C264.568 36.3053 264.457 35.5924 264.457 34.8242ZM267.27 34.6191V34.8242C267.27 35.2669 267.309 35.6803 267.387 36.0645C267.465 36.4486 267.589 36.7871 267.758 37.0801C267.934 37.3665 268.161 37.5911 268.441 37.7539C268.721 37.9167 269.063 37.998 269.467 37.998C269.857 37.998 270.193 37.9167 270.473 37.7539C270.753 37.5911 270.977 37.3665 271.146 37.0801C271.316 36.7871 271.439 36.4486 271.518 36.0645C271.602 35.6803 271.645 35.2669 271.645 34.8242V34.6191C271.645 34.1895 271.602 33.7858 271.518 33.4082C271.439 33.0241 271.312 32.6855 271.137 32.3926C270.967 32.0931 270.743 31.8587 270.463 31.6895C270.183 31.5202 269.844 31.4355 269.447 31.4355C269.05 31.4355 268.712 31.5202 268.432 31.6895C268.158 31.8587 267.934 32.0931 267.758 32.3926C267.589 32.6855 267.465 33.0241 267.387 33.4082C267.309 33.7858 267.27 34.1895 267.27 34.6191ZM279.008 31.7383V40H276.195V29.4336H278.842L279.008 31.7383ZM282.191 29.3652L282.143 31.9727C282.006 31.9531 281.84 31.9368 281.645 31.9238C281.456 31.9043 281.283 31.8945 281.127 31.8945C280.73 31.8945 280.385 31.9466 280.092 32.0508C279.805 32.1484 279.564 32.2949 279.369 32.4902C279.18 32.6855 279.037 32.9232 278.939 33.2031C278.848 33.4831 278.796 33.8021 278.783 34.1602L278.217 33.9844C278.217 33.3008 278.285 32.6725 278.422 32.0996C278.559 31.5202 278.757 31.0156 279.018 30.5859C279.285 30.1562 279.61 29.8242 279.994 29.5898C280.378 29.3555 280.818 29.2383 281.312 29.2383C281.469 29.2383 281.628 29.2513 281.791 29.2773C281.954 29.2969 282.087 29.3262 282.191 29.3652ZM290.014 25.7812H292.494L296.146 36.2207L299.799 25.7812H302.279L297.143 40H295.15L290.014 25.7812ZM288.676 25.7812H291.146L291.596 35.957V40H288.676V25.7812ZM301.146 25.7812H303.627V40H300.697V35.957L301.146 25.7812ZM310.883 40.1953C310.062 40.1953 309.327 40.0651 308.676 39.8047C308.025 39.5378 307.471 39.1699 307.016 38.7012C306.566 38.2324 306.221 37.6888 305.98 37.0703C305.74 36.4453 305.619 35.7812 305.619 35.0781V34.6875C305.619 33.8867 305.733 33.1543 305.961 32.4902C306.189 31.8262 306.514 31.25 306.938 30.7617C307.367 30.2734 307.888 29.8991 308.5 29.6387C309.112 29.3717 309.802 29.2383 310.57 29.2383C311.319 29.2383 311.983 29.362 312.562 29.6094C313.142 29.8568 313.627 30.2083 314.018 30.6641C314.415 31.1198 314.714 31.6667 314.916 32.3047C315.118 32.9362 315.219 33.6393 315.219 34.4141V35.5859H306.82V33.7109H312.455V33.4961C312.455 33.1055 312.383 32.7572 312.24 32.4512C312.104 32.1387 311.895 31.8913 311.615 31.709C311.335 31.5267 310.977 31.4355 310.541 31.4355C310.17 31.4355 309.851 31.5169 309.584 31.6797C309.317 31.8424 309.099 32.0703 308.93 32.3633C308.767 32.6562 308.643 33.0013 308.559 33.3984C308.48 33.7891 308.441 34.2188 308.441 34.6875V35.0781C308.441 35.5013 308.5 35.8919 308.617 36.25C308.741 36.6081 308.913 36.9173 309.135 37.1777C309.363 37.4382 309.636 37.64 309.955 37.7832C310.281 37.9264 310.648 37.998 311.059 37.998C311.566 37.998 312.038 37.9004 312.475 37.7051C312.917 37.5033 313.298 37.2005 313.617 36.7969L314.984 38.2812C314.763 38.6003 314.46 38.9062 314.076 39.1992C313.699 39.4922 313.243 39.7331 312.709 39.9219C312.175 40.1042 311.566 40.1953 310.883 40.1953ZM323.061 37.6953V25H325.893V40H323.344L323.061 37.6953ZM316.381 34.8438V34.6387C316.381 33.8314 316.472 33.099 316.654 32.4414C316.837 31.7773 317.104 31.2077 317.455 30.7324C317.807 30.2572 318.24 29.8893 318.754 29.6289C319.268 29.3685 319.854 29.2383 320.512 29.2383C321.13 29.2383 321.671 29.3685 322.133 29.6289C322.602 29.8893 322.999 30.2604 323.324 30.7422C323.656 31.2174 323.923 31.7806 324.125 32.4316C324.327 33.0762 324.473 33.7826 324.564 34.5508V35C324.473 35.7357 324.327 36.4193 324.125 37.0508C323.923 37.6823 323.656 38.2357 323.324 38.7109C322.999 39.1797 322.602 39.5443 322.133 39.8047C321.664 40.0651 321.117 40.1953 320.492 40.1953C319.835 40.1953 319.249 40.0618 318.734 39.7949C318.227 39.528 317.797 39.1536 317.445 38.6719C317.1 38.1901 316.837 37.6237 316.654 36.9727C316.472 36.3216 316.381 35.612 316.381 34.8438ZM319.193 34.6387V34.8438C319.193 35.2799 319.226 35.6868 319.291 36.0645C319.363 36.4421 319.477 36.7773 319.633 37.0703C319.796 37.3568 320.004 37.5814 320.258 37.7441C320.518 37.9004 320.834 37.9785 321.205 37.9785C321.687 37.9785 322.084 37.8711 322.396 37.6562C322.709 37.4349 322.947 37.1322 323.109 36.748C323.279 36.3639 323.376 35.9212 323.402 35.4199V34.1406C323.383 33.7305 323.324 33.3626 323.227 33.0371C323.135 32.7051 322.999 32.4219 322.816 32.1875C322.641 31.9531 322.419 31.7708 322.152 31.6406C321.892 31.5104 321.583 31.4453 321.225 31.4453C320.86 31.4453 320.548 31.5299 320.287 31.6992C320.027 31.862 319.815 32.0866 319.652 32.373C319.496 32.6595 319.379 32.998 319.301 33.3887C319.229 33.7728 319.193 34.1895 319.193 34.6387ZM331.059 29.4336V40H328.236V29.4336H331.059ZM328.061 26.6797C328.061 26.2695 328.204 25.931 328.49 25.6641C328.777 25.3971 329.161 25.2637 329.643 25.2637C330.118 25.2637 330.499 25.3971 330.785 25.6641C331.078 25.931 331.225 26.2695 331.225 26.6797C331.225 27.0898 331.078 27.4284 330.785 27.6953C330.499 27.9622 330.118 28.0957 329.643 28.0957C329.161 28.0957 328.777 27.9622 328.49 27.6953C328.204 27.4284 328.061 27.0898 328.061 26.6797ZM332.934 34.8242V34.6191C332.934 33.8444 333.044 33.1315 333.266 32.4805C333.487 31.8229 333.809 31.2533 334.232 30.7715C334.656 30.2897 335.176 29.9154 335.795 29.6484C336.413 29.375 337.123 29.2383 337.924 29.2383C338.725 29.2383 339.438 29.375 340.062 29.6484C340.688 29.9154 341.212 30.2897 341.635 30.7715C342.064 31.2533 342.39 31.8229 342.611 32.4805C342.833 33.1315 342.943 33.8444 342.943 34.6191V34.8242C342.943 35.5924 342.833 36.3053 342.611 36.9629C342.39 37.6139 342.064 38.1836 341.635 38.6719C341.212 39.1536 340.691 39.528 340.072 39.7949C339.454 40.0618 338.744 40.1953 337.943 40.1953C337.143 40.1953 336.43 40.0618 335.805 39.7949C335.186 39.528 334.662 39.1536 334.232 38.6719C333.809 38.1836 333.487 37.6139 333.266 36.9629C333.044 36.3053 332.934 35.5924 332.934 34.8242ZM335.746 34.6191V34.8242C335.746 35.2669 335.785 35.6803 335.863 36.0645C335.941 36.4486 336.065 36.7871 336.234 37.0801C336.41 37.3665 336.638 37.5911 336.918 37.7539C337.198 37.9167 337.54 37.998 337.943 37.998C338.334 37.998 338.669 37.9167 338.949 37.7539C339.229 37.5911 339.454 37.3665 339.623 37.0801C339.792 36.7871 339.916 36.4486 339.994 36.0645C340.079 35.6803 340.121 35.2669 340.121 34.8242V34.6191C340.121 34.1895 340.079 33.7858 339.994 33.4082C339.916 33.0241 339.789 32.6855 339.613 32.3926C339.444 32.0931 339.219 31.8587 338.939 31.6895C338.66 31.5202 338.321 31.4355 337.924 31.4355C337.527 31.4355 337.188 31.5202 336.908 31.6895C336.635 31.8587 336.41 32.0931 336.234 32.3926C336.065 32.6855 335.941 33.0241 335.863 33.4082C335.785 33.7858 335.746 34.1895 335.746 34.6191ZM349.037 37.998C349.382 37.998 349.688 37.9329 349.955 37.8027C350.222 37.666 350.43 37.4772 350.58 37.2363C350.736 36.9889 350.818 36.6992 350.824 36.3672H353.471C353.464 37.1094 353.266 37.7702 352.875 38.3496C352.484 38.9225 351.96 39.375 351.303 39.707C350.645 40.0326 349.91 40.1953 349.096 40.1953C348.275 40.1953 347.559 40.0586 346.947 39.7852C346.342 39.5117 345.837 39.1341 345.434 38.6523C345.03 38.1641 344.727 37.5977 344.525 36.9531C344.324 36.3021 344.223 35.6055 344.223 34.8633V34.5801C344.223 33.8314 344.324 33.1348 344.525 32.4902C344.727 31.8392 345.03 31.2728 345.434 30.791C345.837 30.3027 346.342 29.9219 346.947 29.6484C347.553 29.375 348.262 29.2383 349.076 29.2383C349.942 29.2383 350.701 29.4043 351.352 29.7363C352.009 30.0684 352.523 30.5436 352.895 31.1621C353.272 31.7741 353.464 32.5 353.471 33.3398H350.824C350.818 32.9883 350.743 32.6693 350.6 32.3828C350.463 32.0964 350.261 31.8685 349.994 31.6992C349.734 31.5234 349.411 31.4355 349.027 31.4355C348.617 31.4355 348.282 31.5234 348.021 31.6992C347.761 31.8685 347.559 32.1029 347.416 32.4023C347.273 32.6953 347.172 33.0306 347.113 33.4082C347.061 33.7793 347.035 34.1699 347.035 34.5801V34.8633C347.035 35.2734 347.061 35.6673 347.113 36.0449C347.165 36.4225 347.263 36.7578 347.406 37.0508C347.556 37.3438 347.761 37.5749 348.021 37.7441C348.282 37.9134 348.62 37.998 349.037 37.998ZM357.914 31.7383V40H355.102V29.4336H357.748L357.914 31.7383ZM361.098 29.3652L361.049 31.9727C360.912 31.9531 360.746 31.9368 360.551 31.9238C360.362 31.9043 360.189 31.8945 360.033 31.8945C359.636 31.8945 359.291 31.9466 358.998 32.0508C358.712 32.1484 358.471 32.2949 358.275 32.4902C358.087 32.6855 357.943 32.9232 357.846 33.2031C357.755 33.4831 357.702 33.8021 357.689 34.1602L357.123 33.9844C357.123 33.3008 357.191 32.6725 357.328 32.0996C357.465 31.5202 357.663 31.0156 357.924 30.5859C358.191 30.1562 358.516 29.8242 358.9 29.5898C359.285 29.3555 359.724 29.2383 360.219 29.2383C360.375 29.2383 360.535 29.2513 360.697 29.2773C360.86 29.2969 360.993 29.3262 361.098 29.3652ZM365.395 29.4336V40H362.572V29.4336H365.395ZM362.396 26.6797C362.396 26.2695 362.54 25.931 362.826 25.6641C363.113 25.3971 363.497 25.2637 363.979 25.2637C364.454 25.2637 364.835 25.3971 365.121 25.6641C365.414 25.931 365.561 26.2695 365.561 26.6797C365.561 27.0898 365.414 27.4284 365.121 27.6953C364.835 27.9622 364.454 28.0957 363.979 28.0957C363.497 28.0957 363.113 27.9622 362.826 27.6953C362.54 27.4284 362.396 27.0898 362.396 26.6797ZM372.895 29.4336V31.4258H366.742V29.4336H372.895ZM368.266 26.8262H371.078V36.8164C371.078 37.1224 371.117 37.3568 371.195 37.5195C371.28 37.6823 371.404 37.7962 371.566 37.8613C371.729 37.9199 371.934 37.9492 372.182 37.9492C372.357 37.9492 372.514 37.9427 372.65 37.9297C372.794 37.9102 372.914 37.8906 373.012 37.8711L373.021 39.9414C372.781 40.0195 372.52 40.0814 372.24 40.127C371.96 40.1725 371.651 40.1953 371.312 40.1953C370.694 40.1953 370.154 40.0944 369.691 39.8926C369.236 39.6842 368.884 39.3522 368.637 38.8965C368.389 38.4408 368.266 37.8418 368.266 37.0996V26.8262ZM377.631 38.8086L380.434 29.4336H383.451L379.203 41.5918C379.112 41.8587 378.988 42.1452 378.832 42.4512C378.682 42.7572 378.477 43.0469 378.217 43.3203C377.963 43.6003 377.641 43.8281 377.25 44.0039C376.866 44.1797 376.394 44.2676 375.834 44.2676C375.567 44.2676 375.349 44.2513 375.18 44.2188C375.01 44.1862 374.809 44.1406 374.574 44.082V42.0215C374.646 42.0215 374.721 42.0215 374.799 42.0215C374.877 42.028 374.952 42.0312 375.023 42.0312C375.395 42.0312 375.697 41.9889 375.932 41.9043C376.166 41.8197 376.355 41.6895 376.498 41.5137C376.641 41.3444 376.755 41.123 376.84 40.8496L377.631 38.8086ZM376.459 29.4336L378.754 37.0898L379.154 40.0684L377.24 40.2734L373.441 29.4336H376.459Z" fill="#FFD230"/>
<rect x="132.243" y="10" width="3.03454" height="48" transform="rotate(17.2612 132.243 10)" fill="#FFD230"/>
<path d="M356.284 54.9329C356.284 54.9223 356.603 54.5045 357.186 53.7781C357.62 53.2371 358.029 52.9078 358.38 52.643C358.702 52.3997 359.037 52.3053 359.32 52.2693C359.588 52.2352 359.861 52.3142 360.133 52.4731C360.458 52.6626 360.64 53.1269 360.826 53.5966C361.012 54.0676 361.095 54.5568 361.166 55.0275C361.239 55.5129 361.16 56.0487 360.951 56.6232C360.838 56.9315 360.6 57.2262 360.142 57.7097C359.684 58.1931 358.984 58.8441 358.07 59.5634C357.155 60.2827 356.046 61.0506 355.534 61.4599C355.022 61.8692 355.141 61.8966 355.739 61.8899C356.337 61.8832 357.412 61.8415 358.519 61.7986" stroke="#FFD230" stroke-linecap="round"/>
<path d="M365.653 51.3504C365.649 51.3424 365.535 51.3683 365.257 51.5064C364.822 51.7219 364.34 52.3341 363.754 53.0358C363.463 53.3851 363.225 53.7551 363.002 54.13C362.78 54.5048 362.592 54.8822 362.429 55.2826C362.267 55.683 362.136 56.095 362.043 56.5031C361.95 56.9111 361.899 57.3028 361.871 57.8103C361.843 58.3177 361.84 58.9291 361.86 59.3397C361.89 59.9442 362.103 60.3026 362.429 60.6014C362.801 60.9419 363.516 60.9564 364.344 60.9165C364.795 60.8948 365.295 60.7315 365.841 60.497C366.388 60.2624 366.963 59.9261 367.514 59.5119C368.065 59.0977 368.576 58.6158 369.02 58.0678C369.463 57.5197 369.823 56.92 370.106 56.3079C370.389 55.6959 370.584 55.0897 370.71 54.5171C370.836 53.9444 370.889 53.4236 370.872 52.941C370.856 52.4585 370.769 52.03 370.618 51.6733C370.336 51.0046 369.739 50.6597 369.111 50.5037C368.425 50.4574 367.763 50.5507 367.199 50.7554C366.932 50.872 366.703 51.0146 366.468 51.1614" stroke="#FFD230" stroke-linecap="round"/>
<path d="M372.373 51.7128C372.376 51.7128 373.08 51.6989 374.194 51.7154C374.608 51.7216 374.708 51.8208 374.795 51.9625C374.882 52.1042 374.951 52.3102 374.941 52.9653C374.93 53.6204 374.838 54.7184 374.683 55.6115C374.528 56.5045 374.313 57.1594 373.985 57.9269C373.657 58.6944 373.223 59.5547 372.889 60.1549C372.371 61.0883 372.059 61.4544 372.162 61.4992C372.319 61.4818 372.689 61.3829 373.245 61.3099C373.801 61.237 374.531 61.193 375.285 61.1476" stroke="#FFD230" stroke-linecap="round"/>
<path d="M381.63 51.1751C381.622 51.1801 381.614 51.1851 381.212 51.6445C380.81 52.1039 380.015 53.0175 379.58 53.5261C379.145 54.0347 379.093 54.1105 379.087 54.1591C379.058 54.4085 380.119 54.3077 381.034 54.5791C381.465 54.7067 381.783 55.0098 382.048 55.2657C382.292 55.5007 382.36 55.8821 382.369 56.3125C382.379 56.8259 381.96 57.4267 381.454 58.092C381.192 58.4365 380.853 58.7418 380.543 59.0024C379.969 59.4851 379.458 59.7353 379.059 59.8848C378.855 59.9614 378.635 60.0085 379.062 59.9928C379.488 59.9772 380.567 59.8893 381.027 59.8441C381.487 59.7989 381.298 59.7989 381.102 59.7989" stroke="#FFD230" stroke-linecap="round"/>
<path d="M381.277 53.0396H382.788" stroke="#FFD230" stroke-linecap="round"/>
</svg>
