<svg width="399" height="95" viewBox="0 0 399 95" fill="none" xmlns="http://www.w3.org/2000/svg">
<rect width="399" height="95" fill="white"/>
<path d="M147.184 49.744C150.352 53.008 154.336 55.744 159.136 57.952L155.104 64.576C151.584 62.496 148.56 60.288 146.032 57.952C143.504 55.616 141.296 52.976 139.408 50.032V61.312C139.408 63.776 138.912 65.536 137.92 66.592C136.96 67.68 135.36 68.224 133.12 68.224C130.944 68.224 129.072 68.144 127.504 67.984L126.208 61.312C128.064 61.536 129.664 61.648 131.008 61.648C131.648 61.648 132.096 61.456 132.352 61.072C132.608 60.688 132.736 60.096 132.736 59.296V53.344C128.032 56.896 122.976 60.48 117.568 64.096L113.92 57.52C120.512 53.712 126.784 49.76 132.736 45.664V36.688H115.792V30.16H132.736V23.824H139.408V30.16H146.704C145.552 29.264 144.256 28.288 142.816 27.232L146.608 22.768C147.664 23.504 148.88 24.4 150.256 25.456C151.632 26.512 152.736 27.408 153.568 28.144L151.888 30.16H156.592V36.688H139.408V37.216C140.496 40 141.792 42.56 143.296 44.896C146.24 42.56 149.088 40.016 151.84 37.264L156.4 42.352C153.424 44.944 150.352 47.408 147.184 49.744ZM124.576 49.312C123.552 48.192 122.336 46.96 120.928 45.616C119.52 44.24 118.336 43.152 117.376 42.352L121.696 37.504C124.96 40.416 127.36 42.704 128.896 44.368L124.576 49.312ZM169.792 33.664V38.416H163.264V27.616H180.448L180.112 26.656L179.248 24.208L187.36 23.056L188.416 26.224C188.48 26.384 188.64 26.848 188.896 27.616H204.88V38.512H198.16V33.664H174.544C175.28 34.08 176.544 34.768 178.336 35.728C182.112 37.776 184.304 38.976 184.912 39.328L182.032 44.656C180.592 43.728 177.968 42.24 174.16 40.192C173.744 39.968 173.296 39.728 172.816 39.472C172.336 39.216 171.856 38.96 171.376 38.704L174.112 33.664H169.792ZM202.336 68.656C198.016 66.576 192.592 64.096 186.064 61.216C184.048 62.944 181.408 64.416 178.144 65.632C174.912 66.848 170.8 67.984 165.808 69.04L163.504 62.56C168.304 61.664 172.128 60.72 174.976 59.728C177.824 58.736 180.032 57.584 181.6 56.272H162.88V50.128H175.552C171.36 47.856 168.592 46.368 167.248 45.664L170.032 40.48C171.792 41.408 173.744 42.48 175.888 43.696C178.064 44.88 179.808 45.856 181.12 46.624L178.912 50.128H185.152C185.504 48.528 185.712 46.32 185.776 43.504C185.904 38.896 185.968 36.16 185.968 35.296H192.736C192.736 36.768 192.672 39.104 192.544 42.304L192.496 44.368C192.464 46.384 192.288 48.304 191.968 50.128H205.072V56.272H190.24C194.208 57.872 197.648 59.28 200.56 60.496C201.392 60.848 202.224 61.2 203.056 61.552C203.888 61.872 204.672 62.176 205.408 62.464L202.336 68.656ZM251.536 25.552C251.504 29.936 251.328 35.808 251.008 43.168C250.72 50.528 250.416 55.76 250.096 58.864C249.872 61.072 249.424 62.816 248.752 64.096C248.112 65.376 247.152 66.304 245.872 66.88C244.592 67.456 242.848 67.744 240.64 67.744C237.76 67.744 234.88 67.648 232 67.456L230.656 60.496C233.696 60.848 236.176 61.024 238.096 61.024C239.344 61.024 240.272 60.896 240.88 60.64C241.52 60.352 241.968 59.888 242.224 59.248C242.512 58.576 242.736 57.552 242.896 56.176C243.216 53.488 243.472 49.792 243.664 45.088C243.888 40.384 244.016 36.224 244.048 32.608H212.608V25.552H251.536ZM221.44 32.992C225.376 35.552 229.408 38.32 233.536 41.296L229.216 47.248C227.52 45.872 225.552 44.368 223.312 42.736C221.072 41.104 219.072 39.728 217.312 38.608L221.44 32.992ZM210.88 54.832C213.6 54 218.688 52.192 226.144 49.408C233.6 46.592 238.56 44.608 241.024 43.456L241.696 50.56C240.224 51.36 236.128 53.072 229.408 55.696C222.688 58.32 217.312 60.368 213.28 61.84L210.88 54.832Z" fill="black"/>
<rect x="264" y="20" width="52" height="14" rx="2" fill="#249900"/>
<path d="M273.002 26.7635V27.9638H269.685V26.7635H273.002ZM276.908 23.6278C277.282 23.6278 277.642 23.6906 277.988 23.8161C278.336 23.9415 278.646 24.1416 278.918 24.4162C279.193 24.6908 279.41 25.0554 279.568 25.5099C279.729 25.9621 279.811 26.5173 279.813 27.1754C279.813 27.7933 279.743 28.3449 279.604 28.8303C279.466 29.3132 279.269 29.724 279.011 30.0625C278.753 30.401 278.441 30.6591 278.077 30.8366C277.712 31.0118 277.305 31.0994 276.855 31.0994C276.37 31.0994 275.941 31.0059 275.57 30.8189C275.198 30.6295 274.898 30.3726 274.671 30.0483C274.446 29.7216 274.31 29.3546 274.263 28.9474H275.779C275.838 29.2126 275.963 29.4186 276.152 29.5653C276.341 29.7098 276.576 29.782 276.855 29.782C277.329 29.782 277.688 29.576 277.935 29.1641C278.181 28.7498 278.305 28.1828 278.308 27.4631H278.258C278.149 27.6761 278.002 27.8596 277.817 28.0135C277.633 28.165 277.421 28.2822 277.182 28.3651C276.945 28.4479 276.693 28.4893 276.425 28.4893C275.997 28.4893 275.615 28.3887 275.278 28.1875C274.942 27.9863 274.677 27.7093 274.483 27.3565C274.289 27.0038 274.192 26.6013 274.192 26.1491C274.189 25.6615 274.302 25.227 274.529 24.8459C274.756 24.4647 275.074 24.1664 275.481 23.951C275.89 23.7332 276.366 23.6255 276.908 23.6278ZM276.919 24.8352C276.68 24.8352 276.467 24.892 276.28 25.0057C276.095 25.1193 275.948 25.272 275.839 25.4638C275.733 25.6555 275.681 25.8698 275.683 26.1065C275.683 26.3456 275.735 26.5611 275.839 26.7528C275.946 26.9422 276.09 27.0937 276.273 27.2074C276.457 27.3187 276.668 27.3743 276.905 27.3743C277.082 27.3743 277.247 27.3411 277.398 27.2749C277.55 27.2086 277.681 27.1174 277.793 27.0014C277.906 26.883 277.995 26.7469 278.059 26.593C278.123 26.4392 278.155 26.2758 278.155 26.103C278.152 25.8733 278.098 25.6626 277.991 25.4709C277.885 25.2791 277.738 25.1252 277.551 25.0092C277.364 24.8932 277.153 24.8352 276.919 24.8352ZM283.73 31.1598C283.119 31.1574 282.594 31.0071 282.153 30.7088C281.715 30.4105 281.378 29.9785 281.141 29.4126C280.907 28.8468 280.791 28.1662 280.793 27.3707C280.793 26.5777 280.911 25.9018 281.145 25.343C281.382 24.7843 281.719 24.3594 282.157 24.0682C282.597 23.7746 283.122 23.6278 283.73 23.6278C284.339 23.6278 284.862 23.7746 285.3 24.0682C285.74 24.3617 286.079 24.7879 286.315 25.3466C286.552 25.9029 286.669 26.5777 286.667 27.3707C286.667 28.1686 286.549 28.8504 286.312 29.4162C286.077 29.982 285.741 30.4141 285.303 30.7124C284.865 31.0107 284.341 31.1598 283.73 31.1598ZM283.73 29.8849C284.147 29.8849 284.479 29.6754 284.728 29.2564C284.977 28.8374 285.1 28.2088 285.097 27.3707C285.097 26.8191 285.04 26.3598 284.927 25.9929C284.816 25.6259 284.657 25.3501 284.451 25.1655C284.247 24.9808 284.007 24.8885 283.73 24.8885C283.316 24.8885 282.984 25.0956 282.736 25.5099C282.487 25.9242 282.362 26.5445 282.359 27.3707C282.359 27.9295 282.415 28.3958 282.526 28.7699C282.64 29.1416 282.8 29.4209 283.006 29.608C283.212 29.7926 283.453 29.8849 283.73 29.8849ZM291.744 29.6364V29.2528C291.744 28.9616 291.806 28.6941 291.929 28.4503C292.054 28.2041 292.235 28.0076 292.472 27.8608C292.711 27.7116 293.002 27.6371 293.346 27.6371C293.694 27.6371 293.986 27.7105 294.223 27.8572C294.462 28.004 294.642 28.2005 294.763 28.4467C294.886 28.6906 294.947 28.9593 294.947 29.2528V29.6364C294.947 29.9276 294.886 30.1963 294.763 30.4425C294.64 30.6863 294.458 30.8816 294.219 31.0284C293.98 31.1776 293.689 31.2521 293.346 31.2521C292.998 31.2521 292.705 31.1776 292.469 31.0284C292.232 30.8816 292.052 30.6863 291.929 30.4425C291.806 30.1963 291.744 29.9276 291.744 29.6364ZM292.778 29.2528V29.6364C292.778 29.8045 292.818 29.9631 292.898 30.1122C292.981 30.2614 293.13 30.3359 293.346 30.3359C293.561 30.3359 293.708 30.2625 293.786 30.1158C293.867 29.969 293.907 29.8092 293.907 29.6364V29.2528C293.907 29.08 293.869 28.919 293.793 28.7699C293.717 28.6207 293.568 28.5462 293.346 28.5462C293.133 28.5462 292.985 28.6207 292.902 28.7699C292.819 28.919 292.778 29.08 292.778 29.2528ZM288.012 25.4744V25.0909C288.012 24.7973 288.075 24.5286 288.2 24.2848C288.326 24.0386 288.507 23.8421 288.743 23.6953C288.983 23.5485 289.271 23.4751 289.61 23.4751C289.96 23.4751 290.254 23.5485 290.491 23.6953C290.727 23.8421 290.907 24.0386 291.03 24.2848C291.153 24.5286 291.215 24.7973 291.215 25.0909V25.4744C291.215 25.768 291.152 26.0367 291.027 26.2805C290.904 26.5244 290.723 26.7197 290.483 26.8665C290.247 27.0109 289.956 27.0831 289.61 27.0831C289.264 27.0831 288.972 27.0097 288.733 26.8629C288.496 26.7138 288.316 26.5185 288.193 26.277C288.072 26.0331 288.012 25.7656 288.012 25.4744ZM289.052 25.0909V25.4744C289.052 25.6473 289.093 25.8071 289.173 25.9538C289.256 26.1006 289.402 26.174 289.61 26.174C289.828 26.174 289.976 26.1006 290.054 25.9538C290.134 25.8071 290.175 25.6473 290.175 25.4744V25.0909C290.175 24.9181 290.137 24.7571 290.061 24.608C289.985 24.4588 289.835 24.3842 289.61 24.3842C289.399 24.3842 289.254 24.46 289.173 24.6115C289.093 24.763 289.052 24.9228 289.052 25.0909ZM288.481 31L293.481 23.7273H294.411L289.411 31H288.481ZM298.836 31.1065C298.284 31.1065 297.807 30.9893 297.405 30.755C297.005 30.5182 296.696 30.1892 296.478 29.7678C296.26 29.344 296.151 28.8527 296.151 28.294C296.151 27.7306 296.26 27.2382 296.478 26.8168C296.696 26.393 297.005 26.0639 297.405 25.8295C297.807 25.5928 298.284 25.4744 298.836 25.4744C299.387 25.4744 299.863 25.5928 300.263 25.8295C300.666 26.0639 300.976 26.393 301.194 26.8168C301.412 27.2382 301.52 27.7306 301.52 28.294C301.52 28.8527 301.412 29.344 301.194 29.7678C300.976 30.1892 300.666 30.5182 300.263 30.755C299.863 30.9893 299.387 31.1065 298.836 31.1065ZM298.843 29.9347C299.094 29.9347 299.303 29.8636 299.471 29.7216C299.64 29.5772 299.766 29.3807 299.851 29.1321C299.939 28.8835 299.983 28.6006 299.983 28.2834C299.983 27.9661 299.939 27.6832 299.851 27.4347C299.766 27.1861 299.64 26.9896 299.471 26.8452C299.303 26.7008 299.094 26.6286 298.843 26.6286C298.59 26.6286 298.376 26.7008 298.204 26.8452C298.033 26.9896 297.904 27.1861 297.817 27.4347C297.731 27.6832 297.689 27.9661 297.689 28.2834C297.689 28.6006 297.731 28.8835 297.817 29.1321C297.904 29.3807 298.033 29.5772 298.204 29.7216C298.376 29.8636 298.59 29.9347 298.843 29.9347ZM305.437 25.5455V26.6818H302.071V25.5455H305.437ZM302.841 31V25.1513C302.841 24.7559 302.918 24.428 303.072 24.1676C303.229 23.9072 303.442 23.7119 303.711 23.5817C303.981 23.4515 304.288 23.3864 304.631 23.3864C304.863 23.3864 305.075 23.4041 305.267 23.4396C305.461 23.4751 305.605 23.5071 305.7 23.5355L305.43 24.6719C305.371 24.6529 305.298 24.6352 305.21 24.6186C305.125 24.602 305.037 24.5938 304.947 24.5938C304.725 24.5938 304.57 24.6458 304.482 24.75C304.394 24.8518 304.351 24.995 304.351 25.1797V31H302.841ZM309.295 25.5455V26.6818H305.928V25.5455H309.295ZM306.699 31V25.1513C306.699 24.7559 306.776 24.428 306.93 24.1676C307.086 23.9072 307.299 23.7119 307.569 23.5817C307.839 23.4515 308.145 23.3864 308.489 23.3864C308.721 23.3864 308.933 23.4041 309.124 23.4396C309.318 23.4751 309.463 23.5071 309.558 23.5355L309.288 24.6719C309.228 24.6529 309.155 24.6352 309.067 24.6186C308.982 24.602 308.895 24.5938 308.805 24.5938C308.582 24.5938 308.427 24.6458 308.339 24.75C308.252 24.8518 308.208 24.995 308.208 25.1797V31H306.699Z" fill="white"/>
</svg>
