<svg width="1746" height="544" viewBox="0 0 1746 544" fill="none" xmlns="http://www.w3.org/2000/svg">
<g clip-path="url(#clip0_8_39)">
<rect width="1745.55" height="544" fill="white"/>
<rect x="-377.144" y="115.856" width="753.414" height="753.414" rx="376.707" stroke="#AEAEAE" stroke-opacity="0.2" stroke-width="83.7126"/>
<g filter="url(#filter0_b_8_39)">
<path d="M192.924 118.183V404.175H158.292V118.183H192.924ZM315.997 202.715L228.114 296.742L178.959 347.758L176.166 311.079L211.357 268.999L273.917 202.715H315.997ZM284.53 404.175L212.66 308.099L230.535 277.378L325.12 404.175H284.53ZM388.984 202.715V404.175H354.352V202.715H388.984ZM351.746 149.277C351.746 143.692 353.422 138.975 356.773 135.127C360.249 131.279 365.338 129.355 372.041 129.355C378.62 129.355 383.647 131.279 387.122 135.127C390.722 138.975 392.522 143.692 392.522 149.277C392.522 154.615 390.722 159.208 387.122 163.056C383.647 166.779 378.62 168.641 372.041 168.641C365.338 168.641 360.249 166.779 356.773 163.056C353.422 159.208 351.746 154.615 351.746 149.277ZM481.708 118.183V404.175H447.076V118.183H481.708ZM527.884 305.679V301.397C527.884 286.874 529.994 273.406 534.214 260.993C538.435 248.456 544.517 237.595 552.461 228.409C560.405 219.1 570.025 211.9 581.321 206.811C592.617 201.597 605.278 198.991 619.304 198.991C633.455 198.991 646.178 201.597 657.474 206.811C668.893 211.9 678.575 219.1 686.52 228.409C694.588 237.595 700.732 248.456 704.953 260.993C709.173 273.406 711.283 286.874 711.283 301.397V305.679C711.283 320.202 709.173 333.67 704.953 346.083C700.732 358.496 694.588 369.357 686.52 378.666C678.575 387.852 668.956 395.051 657.66 400.265C646.488 405.354 633.827 407.899 619.677 407.899C605.526 407.899 592.803 405.354 581.507 400.265C570.212 395.051 560.53 387.852 552.461 378.666C544.517 369.357 538.435 358.496 534.214 346.083C529.994 333.67 527.884 320.202 527.884 305.679ZM562.329 301.397V305.679C562.329 315.733 563.509 325.229 565.867 334.166C568.225 342.98 571.763 350.8 576.48 357.627C581.321 364.454 587.341 369.853 594.541 373.825C601.74 377.673 610.119 379.597 619.677 379.597C629.11 379.597 637.365 377.673 644.44 373.825C651.64 369.853 657.598 364.454 662.315 357.627C667.032 350.8 670.569 342.98 672.928 334.166C675.41 325.229 676.651 315.733 676.651 305.679V301.397C676.651 291.466 675.41 282.095 672.928 273.282C670.569 264.344 666.969 256.462 662.128 249.635C657.412 242.684 651.453 237.222 644.254 233.25C637.179 229.278 628.862 227.292 619.304 227.292C609.87 227.292 601.554 229.278 594.354 233.25C587.279 237.222 581.321 242.684 576.48 249.635C571.763 256.462 568.225 264.344 565.867 273.282C563.509 282.095 562.329 291.466 562.329 301.397ZM789.112 118.183V404.175H754.48V118.183H789.112ZM912.185 202.715L824.302 296.742L775.147 347.758L772.354 311.079L807.545 268.999L870.105 202.715H912.185ZM880.718 404.175L808.848 308.099L826.723 277.378L921.308 404.175H880.718ZM985.172 202.715V404.175H950.54V202.715H985.172ZM947.934 149.277C947.934 143.692 949.609 138.975 952.961 135.127C956.437 131.279 961.526 129.355 968.229 129.355C974.808 129.355 979.835 131.279 983.31 135.127C986.91 138.975 988.71 143.692 988.71 149.277C988.71 154.615 986.91 159.208 983.31 163.056C979.835 166.779 974.808 168.641 968.229 168.641C961.526 168.641 956.437 166.779 952.961 163.056C949.609 159.208 947.934 154.615 947.934 149.277ZM1124.82 202.715V229.154H1015.89V202.715H1124.82ZM1052.76 153.746H1087.21V354.275C1087.21 361.102 1088.26 366.254 1090.37 369.729C1092.48 373.205 1095.21 375.501 1098.56 376.618C1101.91 377.735 1105.51 378.294 1109.36 378.294C1112.22 378.294 1115.2 378.046 1118.3 377.549C1121.53 376.929 1123.95 376.432 1125.56 376.06L1125.75 404.175C1123.02 405.044 1119.42 405.85 1114.95 406.595C1110.6 407.464 1105.33 407.899 1099.12 407.899C1090.68 407.899 1082.92 406.223 1075.85 402.871C1068.77 399.52 1063.12 393.934 1058.9 386.114C1054.81 378.17 1052.76 367.495 1052.76 354.089V153.746ZM1248.82 407.899C1234.79 407.899 1222.07 405.54 1210.65 400.823C1199.36 395.982 1189.61 389.217 1181.42 380.528C1173.35 371.839 1167.14 361.537 1162.8 349.62C1158.46 337.704 1156.28 324.671 1156.28 310.52V302.7C1156.28 286.315 1158.7 271.73 1163.54 258.945C1168.39 246.035 1174.96 235.112 1183.28 226.175C1191.6 217.238 1201.03 210.473 1211.58 205.88C1222.13 201.287 1233.06 198.991 1244.35 198.991C1258.75 198.991 1271.16 201.473 1281.59 206.438C1292.14 211.404 1300.77 218.355 1307.47 227.292C1314.17 236.105 1319.14 246.532 1322.37 258.572C1325.59 270.489 1327.21 283.522 1327.21 297.673V313.127H1176.76V285.012H1292.76V282.405C1292.27 273.468 1290.4 264.779 1287.18 256.338C1284.07 247.897 1279.11 240.946 1272.28 235.484C1265.45 230.023 1256.14 227.292 1244.35 227.292C1236.53 227.292 1229.33 228.968 1222.75 232.319C1216.17 235.547 1210.53 240.388 1205.81 246.842C1201.09 253.297 1197.43 261.179 1194.82 270.489C1192.22 279.798 1190.91 290.535 1190.91 302.7V310.52C1190.91 320.078 1192.22 329.077 1194.82 337.518C1197.56 345.834 1201.47 353.158 1206.55 359.489C1211.77 365.819 1218.04 370.784 1225.36 374.384C1232.81 377.984 1241.25 379.784 1250.68 379.784C1262.85 379.784 1273.15 377.301 1281.59 372.336C1290.03 367.371 1297.42 360.73 1303.75 352.413L1324.6 368.984C1320.26 375.563 1314.73 381.832 1308.03 387.79C1301.33 393.748 1293.07 398.589 1283.27 402.313C1273.58 406.037 1262.1 407.899 1248.82 407.899Z" fill="#363636"/>
<path d="M192.924 118.183H195.818C195.818 116.585 194.522 115.289 192.924 115.289V118.183ZM192.924 404.175V407.07C194.522 407.07 195.818 405.773 195.818 404.175H192.924ZM158.292 404.175H155.397C155.397 405.773 156.693 407.07 158.292 407.07V404.175ZM158.292 118.183V115.289C156.693 115.289 155.397 116.585 155.397 118.183H158.292ZM315.997 202.715L318.112 204.691C318.899 203.849 319.111 202.62 318.652 201.562C318.193 200.504 317.15 199.82 315.997 199.82V202.715ZM228.114 296.742L230.199 298.75C230.209 298.74 230.219 298.729 230.229 298.718L228.114 296.742ZM178.959 347.758L176.073 347.978C176.159 349.116 176.906 350.096 177.979 350.482C179.052 350.868 180.252 350.588 181.044 349.767L178.959 347.758ZM176.166 311.079L173.946 309.222C173.462 309.801 173.223 310.546 173.28 311.298L176.166 311.079ZM211.357 268.999L209.252 267.012C209.212 267.054 209.173 267.098 209.136 267.142L211.357 268.999ZM273.917 202.715V199.82C273.121 199.82 272.359 200.148 271.812 200.728L273.917 202.715ZM284.53 404.175L282.212 405.909C282.759 406.639 283.618 407.07 284.53 407.07V404.175ZM212.66 308.099L210.158 306.644C209.574 307.648 209.646 308.903 210.342 309.833L212.66 308.099ZM230.535 277.378L232.855 275.647C232.274 274.868 231.34 274.432 230.37 274.488C229.399 274.543 228.521 275.082 228.033 275.922L230.535 277.378ZM325.12 404.175V407.07C326.215 407.07 327.217 406.452 327.708 405.473C328.199 404.494 328.095 403.322 327.441 402.444L325.12 404.175ZM190.029 118.183V404.175H195.818V118.183H190.029ZM192.924 401.28H158.292V407.07H192.924V401.28ZM161.187 404.175V118.183H155.397V404.175H161.187ZM158.292 121.078H192.924V115.289H158.292V121.078ZM313.882 200.738L225.999 294.765L230.229 298.718L318.112 204.691L313.882 200.738ZM226.029 294.733L176.875 345.75L181.044 349.767L230.199 298.75L226.029 294.733ZM181.846 347.539L179.053 310.859L173.28 311.298L176.073 347.978L181.846 347.539ZM178.387 312.936L213.577 270.856L209.136 267.142L173.946 309.222L178.387 312.936ZM213.462 270.986L276.023 204.702L271.812 200.728L209.252 267.012L213.462 270.986ZM273.917 205.609H315.997V199.82H273.917V205.609ZM286.848 402.441L214.978 306.366L210.342 309.833L282.212 405.909L286.848 402.441ZM215.162 309.555L233.037 278.834L228.033 275.922L210.158 306.644L215.162 309.555ZM228.214 279.109L322.8 405.906L327.441 402.444L232.855 275.647L228.214 279.109ZM325.12 401.28H284.53V407.07H325.12V401.28ZM388.984 202.715H391.879C391.879 201.116 390.583 199.82 388.984 199.82V202.715ZM388.984 404.175V407.07C390.583 407.07 391.879 405.773 391.879 404.175H388.984ZM354.352 404.175H351.458C351.458 405.773 352.754 407.07 354.352 407.07V404.175ZM354.352 202.715V199.82C352.754 199.82 351.458 201.116 351.458 202.715H354.352ZM356.773 135.127L354.625 133.186C354.613 133.199 354.602 133.212 354.59 133.226L356.773 135.127ZM387.122 135.127L384.974 137.067C384.985 137.08 384.997 137.092 385.008 137.104L387.122 135.127ZM387.122 163.056L385.008 161.078L385.006 161.081L387.122 163.056ZM356.773 163.056L354.59 164.957C354.612 164.982 354.634 165.007 354.657 165.031L356.773 163.056ZM386.09 202.715V404.175H391.879V202.715H386.09ZM388.984 401.28H354.352V407.07H388.984V401.28ZM357.247 404.175V202.715H351.458V404.175H357.247ZM354.352 205.609H388.984V199.82H354.352V205.609ZM354.641 149.277C354.641 144.319 356.108 140.298 358.956 137.028L354.59 133.226C350.735 137.652 348.851 143.064 348.851 149.277H354.641ZM358.921 137.067C361.698 133.993 365.902 132.25 372.041 132.25V126.46C364.773 126.46 358.799 128.565 354.625 133.186L358.921 137.067ZM372.041 132.25C378.036 132.25 382.187 133.982 384.974 137.067L389.271 133.186C385.106 128.576 379.203 126.46 372.041 126.46V132.25ZM385.008 137.104C388.074 140.382 389.627 144.378 389.627 149.277H395.417C395.417 143.006 393.37 137.568 389.236 133.149L385.008 137.104ZM389.627 149.277C389.627 153.891 388.099 157.774 385.008 161.078L389.236 165.033C393.345 160.641 395.417 155.339 395.417 149.277H389.627ZM385.006 161.081C382.226 164.059 378.064 165.747 372.041 165.747V171.536C379.175 171.536 385.067 169.5 389.239 165.031L385.006 161.081ZM372.041 165.747C365.874 165.747 361.659 164.048 358.889 161.081L354.657 165.031C358.838 169.511 364.801 171.536 372.041 171.536V165.747ZM358.956 161.154C356.086 157.859 354.641 153.951 354.641 149.277H348.851C348.851 155.279 350.757 160.556 354.59 164.957L358.956 161.154ZM481.708 118.183H484.603C484.603 116.585 483.307 115.289 481.708 115.289V118.183ZM481.708 404.175V407.07C483.307 407.07 484.603 405.773 484.603 404.175H481.708ZM447.076 404.175H444.182C444.182 405.773 445.478 407.07 447.076 407.07V404.175ZM447.076 118.183V115.289C445.478 115.289 444.182 116.585 444.182 118.183H447.076ZM478.813 118.183V404.175H484.603V118.183H478.813ZM481.708 401.28H447.076V407.07H481.708V401.28ZM449.971 404.175V118.183H444.182V404.175H449.971ZM447.076 121.078H481.708V115.289H447.076V121.078ZM534.214 260.993L536.955 261.925L536.958 261.916L534.214 260.993ZM552.461 228.409L554.651 230.303C554.655 230.298 554.659 230.293 554.663 230.288L552.461 228.409ZM581.321 206.811L582.51 209.45C582.518 209.446 582.526 209.443 582.534 209.439L581.321 206.811ZM657.474 206.811L656.261 209.439C656.272 209.444 656.284 209.45 656.295 209.455L657.474 206.811ZM686.52 228.409L684.318 230.288C684.327 230.299 684.336 230.309 684.345 230.32L686.52 228.409ZM704.953 260.993L702.209 261.916L702.212 261.925L704.953 260.993ZM704.953 346.083L702.212 345.151L704.953 346.083ZM686.52 378.666L684.332 376.771L684.33 376.773L686.52 378.666ZM657.66 400.265L658.86 402.899C658.864 402.897 658.869 402.895 658.873 402.893L657.66 400.265ZM581.507 400.265L580.294 402.893C580.302 402.897 580.31 402.9 580.318 402.904L581.507 400.265ZM552.461 378.666L550.259 380.545C550.268 380.556 550.277 380.566 550.286 380.577L552.461 378.666ZM565.867 334.166L563.068 334.905L563.071 334.915L565.867 334.166ZM576.48 357.627L574.098 359.272C574.105 359.282 574.112 359.291 574.119 359.301L576.48 357.627ZM594.541 373.825L593.142 376.36C593.154 376.366 593.165 376.372 593.176 376.378L594.541 373.825ZM644.44 373.825L645.823 376.368C645.828 376.366 645.833 376.363 645.839 376.36L644.44 373.825ZM672.928 334.166L670.138 333.392C670.136 333.4 670.134 333.409 670.131 333.418L672.928 334.166ZM672.928 273.282L670.129 274.02C670.133 274.036 670.137 274.051 670.141 274.066L672.928 273.282ZM662.128 249.635L659.733 251.261C659.744 251.277 659.756 251.293 659.767 251.31L662.128 249.635ZM644.254 233.25L642.837 235.774C642.843 235.778 642.849 235.781 642.856 235.785L644.254 233.25ZM594.354 233.25L592.956 230.716C592.95 230.719 592.944 230.723 592.937 230.726L594.354 233.25ZM576.48 249.635L574.105 247.981L574.098 247.99L576.48 249.635ZM565.867 273.282L568.663 274.03L568.666 274.02L565.867 273.282ZM530.779 305.679V301.397H524.989V305.679H530.779ZM530.779 301.397C530.779 287.157 532.847 274.007 536.955 261.925L531.474 260.061C527.141 272.804 524.989 286.591 524.989 301.397H530.779ZM536.958 261.916C541.069 249.704 546.974 239.179 554.651 230.303L550.272 226.516C542.06 236.01 535.8 247.208 531.471 260.069L536.958 261.916ZM554.663 230.288C562.326 221.308 571.599 214.366 582.51 209.45L580.132 204.172C568.452 209.434 558.484 216.891 550.259 226.53L554.663 230.288ZM582.534 209.439C593.404 204.422 605.643 201.886 619.304 201.886V196.096C604.912 196.096 591.83 198.772 580.108 204.183L582.534 209.439ZM619.304 201.886C633.094 201.886 645.394 204.424 656.261 209.439L658.687 204.183C646.962 198.771 633.816 196.096 619.304 196.096V201.886ZM656.295 209.455C667.33 214.373 676.66 221.314 684.318 230.288L688.722 226.53C680.491 216.885 670.457 209.428 658.652 204.167L656.295 209.455ZM684.345 230.32C692.14 239.194 698.101 249.713 702.209 261.916L707.696 260.069C703.364 247.199 697.036 235.995 688.695 226.499L684.345 230.32ZM702.212 261.925C706.32 274.007 708.389 287.157 708.389 301.397H714.178C714.178 286.591 712.026 272.804 707.693 260.061L702.212 261.925ZM708.389 301.397V305.679H714.178V301.397H708.389ZM708.389 305.679C708.389 319.919 706.32 333.069 702.212 345.151L707.693 347.015C712.026 334.271 714.178 320.485 714.178 305.679H708.389ZM702.212 345.151C698.104 357.233 692.14 367.761 684.332 376.771L688.707 380.562C697.036 370.952 703.36 359.758 707.693 347.015L702.212 345.151ZM684.33 376.773C676.662 385.639 667.378 392.591 656.447 397.636L658.873 402.893C670.533 397.511 680.489 390.065 688.709 380.56L684.33 376.773ZM656.46 397.63C645.718 402.524 633.476 405.004 619.677 405.004V410.793C634.178 410.793 647.258 408.184 658.86 402.899L656.46 397.63ZM619.677 405.004C605.878 405.004 593.569 402.524 582.696 397.625L580.318 402.904C592.037 408.184 605.174 410.793 619.677 410.793V405.004ZM582.72 397.636C571.785 392.589 562.433 385.632 554.636 376.756L550.286 380.577C558.626 390.072 568.638 397.513 580.294 402.893L582.72 397.636ZM554.663 376.787C546.973 367.776 541.066 357.242 536.955 345.151L531.474 347.015C535.804 359.749 542.061 370.938 550.259 380.545L554.663 376.787ZM536.955 345.151C532.847 333.069 530.779 319.919 530.779 305.679H524.989C524.989 320.485 527.141 334.271 531.474 347.015L536.955 345.151ZM559.435 301.397V305.679H565.224V301.397H559.435ZM559.435 305.679C559.435 315.961 560.641 325.707 563.068 334.905L568.666 333.428C566.376 324.752 565.224 315.506 565.224 305.679H559.435ZM563.071 334.915C565.506 344.017 569.175 352.146 574.098 359.272L578.862 355.981C574.351 349.453 570.945 341.942 568.663 333.418L563.071 334.915ZM574.119 359.301C579.207 366.477 585.554 372.173 593.142 376.36L595.939 371.291C589.128 367.533 583.435 362.43 578.841 355.952L574.119 359.301ZM593.176 376.378C600.862 380.486 609.724 382.492 619.677 382.492V376.703C610.513 376.703 602.618 374.861 595.905 371.272L593.176 376.378ZM619.677 382.492C629.51 382.492 638.256 380.484 645.823 376.368L643.057 371.282C636.474 374.863 628.71 376.703 619.677 376.703V382.492ZM645.839 376.36C653.434 372.169 659.727 366.464 664.696 359.272L659.933 355.981C655.468 362.443 649.845 367.537 643.042 371.291L645.839 376.36ZM664.696 359.272C669.62 352.146 673.288 344.017 675.724 334.915L670.131 333.418C667.85 341.942 664.443 349.453 659.933 355.981L664.696 359.272ZM675.717 334.941C678.275 325.731 679.546 315.973 679.546 305.679H673.757C673.757 315.493 672.545 324.727 670.138 333.392L675.717 334.941ZM679.546 305.679V301.397H673.757V305.679H679.546ZM679.546 301.397C679.546 291.223 678.274 281.586 675.714 272.497L670.141 274.066C672.546 282.604 673.757 291.709 673.757 301.397H679.546ZM675.727 272.543C673.289 263.305 669.552 255.099 664.49 247.961L659.767 251.31C664.387 257.825 667.85 265.384 670.129 274.02L675.727 272.543ZM664.524 248.01C659.557 240.69 653.26 234.913 645.652 230.716L642.856 235.785C649.647 239.532 655.267 244.678 659.733 251.261L664.524 248.01ZM645.671 230.726C638.092 226.471 629.27 224.397 619.304 224.397V230.187C628.454 230.187 636.266 232.085 642.837 235.774L645.671 230.726ZM619.304 224.397C609.454 224.397 600.643 226.474 592.956 230.716L595.753 235.785C602.465 232.082 610.287 230.187 619.304 230.187V224.397ZM592.937 230.726C585.464 234.921 579.184 240.687 574.105 247.981L578.855 251.289C583.458 244.681 589.094 239.523 595.772 235.774L592.937 230.726ZM574.098 247.99C569.171 255.122 565.502 263.318 563.068 272.543L568.666 274.02C570.949 265.37 574.356 257.802 578.862 251.281L574.098 247.99ZM563.071 272.533C560.641 281.611 559.435 291.236 559.435 301.397H565.224C565.224 291.697 566.376 282.578 568.663 274.03L563.071 272.533ZM789.112 118.183H792.006C792.006 116.585 790.71 115.289 789.112 115.289V118.183ZM789.112 404.175V407.07C790.71 407.07 792.006 405.773 792.006 404.175H789.112ZM754.48 404.175H751.585C751.585 405.773 752.881 407.07 754.48 407.07V404.175ZM754.48 118.183V115.289C752.881 115.289 751.585 116.585 751.585 118.183H754.48ZM912.185 202.715L914.3 204.691C915.087 203.849 915.299 202.62 914.84 201.562C914.381 200.504 913.338 199.82 912.185 199.82V202.715ZM824.302 296.742L826.387 298.75C826.397 298.74 826.407 298.729 826.417 298.718L824.302 296.742ZM775.147 347.758L772.261 347.978C772.347 349.116 773.094 350.096 774.167 350.482C775.24 350.868 776.44 350.588 777.232 349.767L775.147 347.758ZM772.354 311.079L770.134 309.222C769.65 309.801 769.411 310.546 769.468 311.298L772.354 311.079ZM807.545 268.999L805.44 267.012C805.4 267.054 805.361 267.098 805.324 267.142L807.545 268.999ZM870.105 202.715V199.82C869.309 199.82 868.547 200.148 868 200.728L870.105 202.715ZM880.718 404.175L878.4 405.909C878.947 406.639 879.806 407.07 880.718 407.07V404.175ZM808.848 308.099L806.346 306.644C805.762 307.648 805.834 308.903 806.53 309.833L808.848 308.099ZM826.723 277.378L829.043 275.647C828.462 274.868 827.528 274.432 826.558 274.488C825.587 274.543 824.709 275.082 824.22 275.922L826.723 277.378ZM921.308 404.175V407.07C922.403 407.07 923.405 406.452 923.896 405.473C924.387 404.494 924.283 403.322 923.629 402.444L921.308 404.175ZM786.217 118.183V404.175H792.006V118.183H786.217ZM789.112 401.28H754.48V407.07H789.112V401.28ZM757.375 404.175V118.183H751.585V404.175H757.375ZM754.48 121.078H789.112V115.289H754.48V121.078ZM910.07 200.738L822.187 294.765L826.417 298.718L914.3 204.691L910.07 200.738ZM822.217 294.733L773.063 345.75L777.232 349.767L826.387 298.75L822.217 294.733ZM778.034 347.539L775.241 310.859L769.468 311.298L772.261 347.978L778.034 347.539ZM774.575 312.936L809.765 270.856L805.324 267.142L770.134 309.222L774.575 312.936ZM809.65 270.986L872.211 204.702L868 200.728L805.44 267.012L809.65 270.986ZM870.105 205.609H912.185V199.82H870.105V205.609ZM883.036 402.441L811.166 306.366L806.53 309.833L878.4 405.909L883.036 402.441ZM811.35 309.555L829.225 278.834L824.22 275.922L806.346 306.644L811.35 309.555ZM824.402 279.109L918.988 405.906L923.629 402.444L829.043 275.647L824.402 279.109ZM921.308 401.28H880.718V407.07H921.308V401.28ZM985.172 202.715H988.067C988.067 201.116 986.771 199.82 985.172 199.82V202.715ZM985.172 404.175V407.07C986.771 407.07 988.067 405.773 988.067 404.175H985.172ZM950.54 404.175H947.646C947.646 405.773 948.942 407.07 950.54 407.07V404.175ZM950.54 202.715V199.82C948.942 199.82 947.646 201.116 947.646 202.715H950.54ZM952.961 135.127L950.813 133.186C950.801 133.199 950.79 133.212 950.778 133.226L952.961 135.127ZM983.31 135.127L981.162 137.067C981.173 137.08 981.185 137.092 981.196 137.104L983.31 135.127ZM983.31 163.056L981.196 161.078L981.194 161.081L983.31 163.056ZM952.961 163.056L950.778 164.957C950.8 164.982 950.822 165.007 950.845 165.031L952.961 163.056ZM982.277 202.715V404.175H988.067V202.715H982.277ZM985.172 401.28H950.54V407.07H985.172V401.28ZM953.435 404.175V202.715H947.646V404.175H953.435ZM950.54 205.609H985.172V199.82H950.54V205.609ZM950.829 149.277C950.829 144.319 952.296 140.298 955.144 137.028L950.778 133.226C946.923 137.652 945.039 143.064 945.039 149.277H950.829ZM955.109 137.067C957.886 133.993 962.09 132.25 968.229 132.25V126.46C960.961 126.46 954.987 128.565 950.813 133.186L955.109 137.067ZM968.229 132.25C974.224 132.25 978.375 133.982 981.162 137.067L985.459 133.186C981.294 128.576 975.391 126.46 968.229 126.46V132.25ZM981.196 137.104C984.262 140.382 985.815 144.378 985.815 149.277H991.605C991.605 143.006 989.558 137.568 985.424 133.149L981.196 137.104ZM985.815 149.277C985.815 153.891 984.287 157.774 981.196 161.078L985.424 165.033C989.533 160.641 991.605 155.339 991.605 149.277H985.815ZM981.194 161.081C978.414 164.059 974.252 165.747 968.229 165.747V171.536C975.363 171.536 981.255 169.5 985.427 165.031L981.194 161.081ZM968.229 165.747C962.062 165.747 957.847 164.048 955.077 161.081L950.845 165.031C955.026 169.511 960.989 171.536 968.229 171.536V165.747ZM955.144 161.154C952.274 157.859 950.829 153.951 950.829 149.277H945.039C945.039 155.279 946.945 160.556 950.778 164.957L955.144 161.154ZM1124.82 202.715H1127.71C1127.71 201.116 1126.42 199.82 1124.82 199.82V202.715ZM1124.82 229.154V232.049C1126.42 232.049 1127.71 230.753 1127.71 229.154H1124.82ZM1015.89 229.154H1013C1013 230.753 1014.3 232.049 1015.89 232.049V229.154ZM1015.89 202.715V199.82C1014.3 199.82 1013 201.116 1013 202.715H1015.89ZM1052.76 153.746V150.851C1051.16 150.851 1049.87 152.147 1049.87 153.746H1052.76ZM1087.21 153.746H1090.1C1090.1 152.147 1088.8 150.851 1087.21 150.851V153.746ZM1118.3 377.549L1118.76 380.408C1118.79 380.403 1118.82 380.398 1118.85 380.392L1118.3 377.549ZM1125.56 376.06L1128.46 376.041C1128.45 375.162 1128.05 374.333 1127.36 373.788C1126.67 373.244 1125.77 373.041 1124.91 373.239L1125.56 376.06ZM1125.75 404.175L1126.63 406.933C1127.83 406.549 1128.65 405.423 1128.64 404.156L1125.75 404.175ZM1114.95 406.595L1114.47 403.74C1114.44 403.745 1114.41 403.751 1114.38 403.757L1114.95 406.595ZM1058.9 386.114L1056.33 387.441C1056.34 387.457 1056.35 387.473 1056.36 387.489L1058.9 386.114ZM1121.92 202.715V229.154H1127.71V202.715H1121.92ZM1124.82 226.259H1015.89V232.049H1124.82V226.259ZM1018.79 229.154V202.715H1013V229.154H1018.79ZM1015.89 205.609H1124.82V199.82H1015.89V205.609ZM1052.76 156.641H1087.21V150.851H1052.76V156.641ZM1084.31 153.746V354.275H1090.1V153.746H1084.31ZM1084.31 354.275C1084.31 361.313 1085.38 367.091 1087.9 371.231L1092.85 368.227C1091.14 365.416 1090.1 360.892 1090.1 354.275H1084.31ZM1087.9 371.231C1090.31 375.2 1093.55 377.998 1097.65 379.364L1099.48 373.872C1096.87 373.004 1094.66 371.21 1092.85 368.227L1087.9 371.231ZM1097.65 379.364C1101.32 380.588 1105.23 381.189 1109.36 381.189V375.399C1105.8 375.399 1102.51 374.882 1099.48 373.872L1097.65 379.364ZM1109.36 381.189C1112.39 381.189 1115.52 380.926 1118.76 380.408L1117.84 374.691C1114.88 375.166 1112.05 375.399 1109.36 375.399V381.189ZM1118.85 380.392C1122.08 379.77 1124.54 379.265 1126.21 378.88L1124.91 373.239C1123.35 373.599 1120.97 374.087 1117.75 374.707L1118.85 380.392ZM1122.67 376.079L1122.85 404.194L1128.64 404.156L1128.46 376.041L1122.67 376.079ZM1124.87 401.416C1122.32 402.227 1118.87 403.006 1114.47 403.74L1115.42 409.451C1119.96 408.695 1123.71 407.861 1126.63 406.933L1124.87 401.416ZM1114.38 403.757C1110.28 404.577 1105.21 405.004 1099.12 405.004V410.793C1105.45 410.793 1110.93 410.352 1115.52 409.434L1114.38 403.757ZM1099.12 405.004C1091.08 405.004 1083.75 403.409 1077.09 400.255L1074.61 405.488C1082.1 409.036 1090.29 410.793 1099.12 410.793V405.004ZM1077.09 400.255C1070.64 397.203 1065.42 392.093 1061.45 384.739L1056.36 387.489C1060.83 395.775 1066.9 401.837 1074.61 405.488L1077.09 400.255ZM1061.48 384.787C1057.67 377.407 1055.65 367.245 1055.65 354.089H1049.87C1049.87 367.745 1051.94 378.932 1056.33 387.441L1061.48 384.787ZM1055.65 354.089V153.746H1049.87V354.089H1055.65ZM1210.65 400.823L1209.51 403.484C1209.52 403.489 1209.53 403.494 1209.55 403.499L1210.65 400.823ZM1181.42 380.528L1179.3 382.498C1179.3 382.503 1179.31 382.509 1179.31 382.514L1181.42 380.528ZM1162.8 349.62L1160.08 350.612L1162.8 349.62ZM1163.54 258.945L1166.25 259.97L1166.25 259.961L1163.54 258.945ZM1183.28 226.175L1181.16 224.203L1183.28 226.175ZM1211.58 205.88L1210.43 203.226L1211.58 205.88ZM1281.59 206.438L1280.35 209.052L1280.36 209.058L1281.59 206.438ZM1307.47 227.292L1305.16 229.029C1305.16 229.034 1305.16 229.039 1305.17 229.044L1307.47 227.292ZM1322.37 258.572L1319.57 259.322L1319.57 259.329L1322.37 258.572ZM1327.21 313.127V316.021C1328.81 316.021 1330.1 314.725 1330.1 313.127H1327.21ZM1176.76 313.127H1173.87C1173.87 314.725 1175.17 316.021 1176.76 316.021V313.127ZM1176.76 285.012V282.117C1175.17 282.117 1173.87 283.413 1173.87 285.012H1176.76ZM1292.76 285.012V287.906C1294.36 287.906 1295.66 286.61 1295.66 285.012H1292.76ZM1292.76 282.405H1295.66C1295.66 282.351 1295.66 282.298 1295.65 282.244L1292.76 282.405ZM1287.18 256.338L1284.46 257.337C1284.46 257.349 1284.47 257.36 1284.47 257.372L1287.18 256.338ZM1272.28 235.484L1274.09 233.224L1272.28 235.484ZM1222.75 232.319L1224.03 234.918C1224.04 234.912 1224.05 234.905 1224.07 234.899L1222.75 232.319ZM1194.82 337.518L1192.06 338.372C1192.06 338.388 1192.07 338.405 1192.07 338.421L1194.82 337.518ZM1206.55 359.489L1204.3 361.302C1204.31 361.311 1204.31 361.32 1204.32 361.329L1206.55 359.489ZM1225.36 374.384L1224.08 376.982C1224.09 376.985 1224.09 376.987 1224.1 376.99L1225.36 374.384ZM1281.59 372.336L1280.12 369.841L1281.59 372.336ZM1303.75 352.413L1305.55 350.147C1304.94 349.663 1304.16 349.444 1303.39 349.541C1302.62 349.637 1301.92 350.041 1301.44 350.66L1303.75 352.413ZM1324.6 368.984L1327.02 370.58C1327.84 369.328 1327.58 367.651 1326.4 366.718L1324.6 368.984ZM1283.27 402.313L1282.24 399.607L1282.23 399.611L1283.27 402.313ZM1248.82 405.004C1235.12 405.004 1222.78 402.702 1211.76 398.148L1209.55 403.499C1221.36 408.379 1234.47 410.793 1248.82 410.793V405.004ZM1211.79 398.163C1200.85 393.473 1191.44 386.934 1183.53 378.542L1179.31 382.514C1187.79 391.5 1197.86 398.491 1209.51 403.484L1211.79 398.163ZM1183.54 378.559C1175.75 370.172 1169.74 360.208 1165.52 348.629L1160.08 350.612C1164.55 362.865 1170.95 373.507 1179.3 382.498L1183.54 378.559ZM1165.52 348.629C1161.3 337.065 1159.18 324.371 1159.18 310.52H1153.39C1153.39 324.97 1155.61 338.343 1160.08 350.612L1165.52 348.629ZM1159.18 310.52V302.7H1153.39V310.52H1159.18ZM1159.18 302.7C1159.18 286.597 1161.56 272.37 1166.25 259.97L1160.84 257.92C1155.85 271.09 1153.39 286.033 1153.39 302.7H1159.18ZM1166.25 259.961C1170.98 247.36 1177.37 236.774 1185.4 228.147L1181.16 224.203C1172.56 233.451 1165.79 244.71 1160.83 257.928L1166.25 259.961ZM1185.4 228.147C1193.46 219.483 1202.57 212.959 1212.74 208.534L1210.43 203.226C1199.49 207.987 1189.73 214.992 1181.16 224.203L1185.4 228.147ZM1212.74 208.534C1222.93 204.097 1233.46 201.886 1244.35 201.886V196.096C1232.65 196.096 1221.34 198.477 1210.43 203.226L1212.74 208.534ZM1244.35 201.886C1258.42 201.886 1270.39 204.312 1280.35 209.052L1282.84 203.825C1271.94 198.635 1259.08 196.096 1244.35 196.096V201.886ZM1280.36 209.058C1290.5 213.831 1298.75 220.487 1305.16 229.029L1309.79 225.555C1302.79 216.223 1293.78 208.977 1282.82 203.819L1280.36 209.058ZM1305.17 229.044C1311.62 237.523 1316.43 247.599 1319.57 259.322L1325.16 257.823C1321.85 245.465 1316.73 234.687 1309.78 225.54L1305.17 229.044ZM1319.57 259.329C1322.72 270.966 1324.31 283.741 1324.31 297.673H1330.1C1330.1 283.303 1328.46 270.011 1325.16 257.816L1319.57 259.329ZM1324.31 297.673V313.127H1330.1V297.673H1324.31ZM1327.21 310.232H1176.76V316.021H1327.21V310.232ZM1179.66 313.127V285.012H1173.87V313.127H1179.66ZM1176.76 287.906H1292.76V282.117H1176.76V287.906ZM1295.66 285.012V282.405H1289.87V285.012H1295.66ZM1295.65 282.244C1295.14 273.005 1293.21 264.022 1289.88 255.304L1284.47 257.372C1287.59 265.536 1289.39 273.93 1289.87 282.566L1295.65 282.244ZM1289.89 255.339C1286.61 246.418 1281.34 239.025 1274.09 233.224L1270.47 237.745C1276.88 242.867 1281.53 249.377 1284.46 257.337L1289.89 255.339ZM1274.09 233.224C1266.6 227.229 1256.57 224.397 1244.35 224.397V230.187C1255.72 230.187 1264.31 232.817 1270.47 237.745L1274.09 233.224ZM1244.35 224.397C1236.1 224.397 1228.45 226.169 1221.44 229.74L1224.07 234.899C1230.22 231.767 1236.96 230.187 1244.35 230.187V224.397ZM1221.48 229.72C1214.44 233.173 1208.44 238.336 1203.47 245.134L1208.15 248.55C1212.61 242.439 1217.91 237.92 1224.03 234.918L1221.48 229.72ZM1203.47 245.134C1198.51 251.92 1194.72 260.133 1192.04 269.708L1197.61 271.269C1200.14 262.225 1203.67 254.673 1208.15 248.55L1203.47 245.134ZM1192.04 269.708C1189.34 279.327 1188.02 290.336 1188.02 302.7H1193.81C1193.81 290.734 1195.09 280.269 1197.61 271.269L1192.04 269.708ZM1188.02 302.7V310.52H1193.81V302.7H1188.02ZM1188.02 310.52C1188.02 320.344 1189.36 329.633 1192.06 338.372L1197.59 336.664C1195.08 328.521 1193.81 319.812 1193.81 310.52H1188.02ZM1192.07 338.421C1194.91 347.043 1198.98 354.68 1204.3 361.302L1208.81 357.675C1203.96 351.636 1200.21 344.626 1197.58 336.615L1192.07 338.421ZM1204.32 361.329C1209.79 367.975 1216.39 373.2 1224.08 376.982L1226.64 371.786C1219.69 368.369 1213.74 363.663 1208.79 357.648L1204.32 361.329ZM1224.1 376.99C1231.99 380.805 1240.87 382.678 1250.68 382.678V376.889C1241.62 376.889 1233.62 375.163 1226.62 371.778L1224.1 376.99ZM1250.68 382.678C1263.24 382.678 1274.08 380.114 1283.06 374.831L1280.12 369.841C1272.22 374.488 1262.45 376.889 1250.68 376.889V382.678ZM1283.06 374.831C1291.84 369.663 1299.51 362.762 1306.05 354.167L1301.44 350.66C1295.33 358.698 1288.22 365.079 1280.12 369.841L1283.06 374.831ZM1301.95 354.68L1322.8 371.251L1326.4 366.718L1305.55 350.147L1301.95 354.68ZM1322.19 367.389C1318 373.731 1312.65 379.813 1306.11 385.626L1309.95 389.953C1316.82 383.85 1322.52 377.395 1327.02 370.58L1322.19 367.389ZM1306.11 385.626C1299.71 391.315 1291.77 395.987 1282.24 399.607L1284.29 405.019C1294.37 401.191 1302.95 396.181 1309.95 389.953L1306.11 385.626ZM1282.23 399.611C1272.96 403.177 1261.84 405.004 1248.82 405.004V410.793C1262.36 410.793 1274.21 408.896 1284.31 405.015L1282.23 399.611Z" fill="#363636"/>
</g>
<path d="M0 431.392C512.052 344.988 1518.15 224.024 1446.12 431.392" stroke="#2F66F1" stroke-width="32.7422" stroke-linecap="round"/>
<g filter="url(#filter1_b_8_39)">
<path d="M0 431.392C512.052 344.988 1518.15 224.024 1446.12 431.392" stroke="#FFD900" stroke-width="32.7422" stroke-linecap="round"/>
</g>
<mask id="mask0_8_39" style="mask-type:alpha" maskUnits="userSpaceOnUse" x="633" y="173" width="869" height="330">
<rect x="633" y="173" width="869" height="330" fill="#D9D9D9"/>
</mask>
<g mask="url(#mask0_8_39)">
<g filter="url(#filter2_b_8_39)">
<path d="M528.13 305.503V301.22C528.13 286.697 530.24 273.229 534.461 260.816C538.681 248.279 544.763 237.417 552.708 228.232C560.652 218.922 570.272 211.722 581.568 206.633C592.864 201.419 605.525 198.813 619.552 198.813C633.703 198.813 646.426 201.419 657.722 206.633C669.142 211.722 678.824 218.922 686.768 228.232C694.837 237.417 700.981 248.279 705.202 260.816C709.422 273.229 711.532 286.697 711.532 301.22V305.503C711.532 320.026 709.422 333.494 705.202 345.907C700.981 358.32 694.837 369.181 686.768 378.491C678.824 387.677 669.204 394.876 657.908 400.09C646.736 405.179 634.075 407.724 619.924 407.724C605.773 407.724 593.05 405.179 581.754 400.09C570.458 394.876 560.776 387.677 552.708 378.491C544.763 369.181 538.681 358.32 534.461 345.907C530.24 333.494 528.13 320.026 528.13 305.503ZM562.576 301.22V305.503C562.576 315.557 563.755 325.053 566.114 333.991C568.472 342.804 572.01 350.624 576.727 357.451C581.568 364.278 587.588 369.678 594.788 373.65C601.987 377.498 610.366 379.422 619.924 379.422C629.358 379.422 637.613 377.498 644.688 373.65C651.888 369.678 657.846 364.278 662.563 357.451C667.28 350.624 670.818 342.804 673.176 333.991C675.659 325.053 676.9 315.557 676.9 305.503V301.22C676.9 291.29 675.659 281.918 673.176 273.105C670.818 264.167 667.218 256.285 662.377 249.458C657.66 242.507 651.702 237.045 644.502 233.073C637.427 229.1 629.11 227.114 619.552 227.114C610.118 227.114 601.801 229.1 594.602 233.073C587.526 237.045 581.568 242.507 576.727 249.458C572.01 256.285 568.472 264.167 566.114 273.105C563.755 281.918 562.576 291.29 562.576 301.22ZM789.362 118.004V404H754.73V118.004H789.362ZM912.437 202.537L824.553 296.565L775.397 347.583L772.604 310.902L807.795 268.822L870.357 202.537H912.437ZM880.97 404L809.099 307.923L826.974 277.201L921.561 404H880.97ZM985.426 202.537V404H950.793V202.537H985.426ZM948.187 149.099C948.187 143.513 949.863 138.796 953.214 134.948C956.69 131.1 961.779 129.176 968.482 129.176C975.061 129.176 980.088 131.1 983.564 134.948C987.164 138.796 988.964 143.513 988.964 149.099C988.964 154.436 987.164 159.029 983.564 162.877C980.088 166.601 975.061 168.463 968.482 168.463C961.779 168.463 956.69 166.601 953.214 162.877C949.863 159.029 948.187 154.436 948.187 149.099ZM1125.07 202.537V228.976H1016.15V202.537H1125.07ZM1053.01 153.567H1087.46V354.1C1087.46 360.927 1088.52 366.078 1090.63 369.554C1092.74 373.03 1095.47 375.326 1098.82 376.443C1102.17 377.56 1105.77 378.119 1109.62 378.119C1112.47 378.119 1115.45 377.871 1118.56 377.374C1121.78 376.753 1124.2 376.257 1125.82 375.884L1126 404C1123.27 404.869 1119.67 405.676 1115.2 406.421C1110.86 407.289 1105.58 407.724 1099.38 407.724C1090.94 407.724 1083.18 406.048 1076.1 402.697C1069.03 399.345 1063.38 393.759 1059.16 385.939C1055.06 377.995 1053.01 367.32 1053.01 353.913V153.567ZM1249.08 407.724C1235.05 407.724 1222.33 405.365 1210.91 400.648C1199.61 395.807 1189.87 389.042 1181.68 380.353C1173.61 371.664 1167.4 361.361 1163.06 349.445C1158.71 337.528 1156.54 324.495 1156.54 310.344V302.524C1156.54 286.138 1158.96 271.553 1163.8 258.768C1168.64 245.858 1175.22 234.935 1183.54 225.997C1191.85 217.06 1201.29 210.295 1211.84 205.702C1222.39 201.109 1233.31 198.813 1244.61 198.813C1259.01 198.813 1271.42 201.295 1281.85 206.261C1292.4 211.226 1301.03 218.177 1307.73 227.114C1314.43 235.928 1319.4 246.355 1322.63 258.395C1325.85 270.312 1327.47 283.345 1327.47 297.496V312.95H1177.02V284.835H1293.02V282.228C1292.52 273.291 1290.66 264.602 1287.43 256.161C1284.33 247.72 1279.37 240.769 1272.54 235.307C1265.71 229.845 1256.4 227.114 1244.61 227.114C1236.79 227.114 1229.59 228.79 1223.01 232.142C1216.43 235.369 1210.78 240.21 1206.07 246.665C1201.35 253.12 1197.69 261.002 1195.08 270.312C1192.48 279.621 1191.17 290.359 1191.17 302.524V310.344C1191.17 319.902 1192.48 328.901 1195.08 337.342C1197.81 345.659 1201.72 352.982 1206.81 359.313C1212.03 365.644 1218.29 370.609 1225.62 374.209C1233.07 377.809 1241.51 379.608 1250.94 379.608C1263.11 379.608 1273.41 377.126 1281.85 372.161C1290.29 367.195 1297.68 360.554 1304.01 352.238L1324.86 368.809C1320.52 375.388 1314.99 381.657 1308.29 387.615C1301.59 393.573 1293.33 398.414 1283.52 402.138C1273.84 405.862 1262.36 407.724 1249.08 407.724Z" fill="#363636"/>
<path d="M534.461 260.816L537.325 261.79L537.328 261.781L534.461 260.816ZM552.708 228.232L554.996 230.21C555 230.205 555.005 230.2 555.009 230.195L552.708 228.232ZM581.568 206.633L582.811 209.391C582.819 209.387 582.827 209.383 582.836 209.379L581.568 206.633ZM657.722 206.633L656.454 209.379C656.466 209.385 656.478 209.391 656.491 209.396L657.722 206.633ZM686.768 228.232L684.467 230.195C684.477 230.206 684.486 230.217 684.496 230.228L686.768 228.232ZM705.202 260.816L702.335 261.781L702.338 261.79L705.202 260.816ZM686.768 378.491L684.482 376.51L684.48 376.512L686.768 378.491ZM657.908 400.09L659.162 402.843C659.167 402.841 659.171 402.839 659.176 402.836L657.908 400.09ZM581.754 400.09L580.487 402.836C580.495 402.84 580.503 402.844 580.512 402.848L581.754 400.09ZM552.708 378.491L550.407 380.455C550.416 380.466 550.425 380.477 550.435 380.488L552.708 378.491ZM566.114 333.991L563.189 334.762L563.192 334.773L566.114 333.991ZM576.727 357.451L574.238 359.171C574.245 359.181 574.252 359.191 574.259 359.201L576.727 357.451ZM594.788 373.65L593.327 376.299C593.338 376.305 593.35 376.312 593.362 376.318L594.788 373.65ZM644.688 373.65L646.134 376.308C646.139 376.305 646.144 376.302 646.15 376.299L644.688 373.65ZM673.176 333.991L670.262 333.181C670.259 333.19 670.256 333.199 670.254 333.209L673.176 333.991ZM673.176 273.105L670.251 273.876C670.256 273.893 670.26 273.909 670.264 273.925L673.176 273.105ZM662.377 249.458L659.874 251.156C659.885 251.174 659.897 251.191 659.909 251.208L662.377 249.458ZM644.502 233.073L643.021 235.71C643.028 235.714 643.034 235.718 643.041 235.721L644.502 233.073ZM594.602 233.073L593.14 230.424C593.134 230.428 593.127 230.431 593.121 230.435L594.602 233.073ZM576.727 249.458L574.245 247.729L574.238 247.738L576.727 249.458ZM566.114 273.105L569.036 273.887L569.039 273.876L566.114 273.105ZM531.155 305.503V301.22H525.105V305.503H531.155ZM531.155 301.22C531.155 286.993 533.222 273.857 537.325 261.79L531.597 259.842C527.259 272.6 525.105 286.401 525.105 301.22H531.155ZM537.328 261.781C541.434 249.583 547.331 239.073 554.996 230.21L550.42 226.253C542.196 235.761 535.928 246.975 531.594 259.851L537.328 261.781ZM555.009 230.195C562.66 221.229 571.917 214.299 582.811 209.391L580.325 203.875C568.628 209.145 558.645 216.614 550.407 226.268L555.009 230.195ZM582.836 209.379C593.686 204.372 605.907 201.838 619.552 201.838V195.788C605.143 195.788 592.042 198.467 580.3 203.886L582.836 209.379ZM619.552 201.838C633.325 201.838 645.607 204.373 656.454 209.379L658.99 203.886C647.245 198.466 634.08 195.788 619.552 195.788V201.838ZM656.491 209.396C667.508 214.306 676.822 221.236 684.467 230.195L689.07 226.268C680.826 216.608 670.776 209.139 658.953 203.87L656.491 209.396ZM684.496 230.228C692.279 239.089 698.232 249.592 702.335 261.781L708.069 259.851C703.731 246.965 697.395 235.746 689.041 226.235L684.496 230.228ZM702.338 261.79C706.441 273.857 708.507 286.993 708.507 301.22H714.557C714.557 286.401 712.404 272.6 708.066 259.842L702.338 261.79ZM708.507 301.22V305.503H714.557V301.22H708.507ZM708.507 305.503C708.507 319.73 706.441 332.866 702.338 344.933L708.066 346.881C712.404 334.122 714.557 320.322 714.557 305.503H708.507ZM702.338 344.933C698.235 357 692.279 367.514 684.482 376.51L689.054 380.472C697.395 370.849 703.728 359.64 708.066 346.881L702.338 344.933ZM684.48 376.512C676.825 385.364 667.555 392.306 656.64 397.343L659.176 402.836C670.853 397.447 680.824 389.989 689.056 380.47L684.48 376.512ZM656.654 397.337C645.932 402.222 633.708 404.699 619.924 404.699V410.749C634.442 410.749 647.541 408.137 659.162 402.843L656.654 397.337ZM619.924 404.699C606.141 404.699 593.85 402.222 582.997 397.332L580.512 402.848C592.25 408.137 605.406 410.749 619.924 410.749V404.699ZM583.022 397.343C572.103 392.304 562.765 385.357 554.981 376.495L550.435 380.488C558.787 389.996 568.814 397.449 580.487 402.836L583.022 397.343ZM555.009 376.528C547.33 367.529 541.431 357.01 537.325 344.933L531.597 346.881C535.931 359.63 542.196 370.833 550.407 380.455L555.009 376.528ZM537.325 344.933C533.222 332.866 531.155 319.73 531.155 305.503H525.105C525.105 320.322 527.259 334.122 531.597 346.881L537.325 344.933ZM559.551 301.22V305.503H565.601V301.22H559.551ZM559.551 305.503C559.551 315.795 560.758 325.552 563.189 334.762L569.039 333.219C566.752 324.554 565.601 315.319 565.601 305.503H559.551ZM563.192 334.773C565.631 343.888 569.305 352.031 574.238 359.171L579.216 355.732C574.715 349.217 571.314 341.72 569.036 333.209L563.192 334.773ZM574.259 359.201C579.359 366.393 585.721 372.103 593.327 376.299L596.249 371.002C589.456 367.253 583.777 362.164 579.195 355.701L574.259 359.201ZM593.362 376.318C601.07 380.438 609.954 382.447 619.924 382.447V376.397C610.779 376.397 602.905 374.559 596.214 370.982L593.362 376.318ZM619.924 382.447C629.776 382.447 638.544 380.435 646.134 376.308L643.243 370.993C636.682 374.561 628.94 376.397 619.924 376.397V382.447ZM646.15 376.299C653.763 372.098 660.071 366.379 665.052 359.171L660.074 355.732C655.621 362.177 650.013 367.258 643.227 371.002L646.15 376.299ZM665.052 359.171C669.985 352.031 673.659 343.888 676.098 334.773L670.254 333.209C667.976 341.72 664.575 349.217 660.074 355.732L665.052 359.171ZM676.091 334.8C678.653 325.578 679.925 315.808 679.925 305.503H673.875C673.875 315.306 672.665 324.528 670.262 333.181L676.091 334.8ZM679.925 305.503V301.22H673.875V305.503H679.925ZM679.925 301.22C679.925 291.036 678.652 281.386 676.088 272.284L670.264 273.925C672.666 282.45 673.875 291.544 673.875 301.22H679.925ZM676.101 272.333C673.66 263.081 669.916 254.861 664.844 247.708L659.909 251.208C664.52 257.71 667.976 265.253 670.251 273.876L676.101 272.333ZM664.88 247.759C659.901 240.423 653.589 234.632 645.963 230.424L643.041 235.721C649.814 239.458 655.418 244.591 659.874 251.156L664.88 247.759ZM645.983 230.435C638.381 226.167 629.536 224.089 619.552 224.089V230.139C628.684 230.139 636.473 232.034 643.021 235.71L645.983 230.435ZM619.552 224.089C609.683 224.089 600.85 226.171 593.14 230.424L596.063 235.721C602.753 232.03 610.553 230.139 619.552 230.139V224.089ZM593.121 230.435C585.63 234.64 579.335 240.42 574.245 247.729L579.209 251.187C583.801 244.593 589.423 239.449 596.083 235.71L593.121 230.435ZM574.238 247.738C569.301 254.885 565.627 263.095 563.189 272.333L569.039 273.876C571.318 265.24 574.719 257.685 579.216 251.177L574.238 247.738ZM563.192 272.323C560.759 281.412 559.551 291.049 559.551 301.22H565.601C565.601 291.531 566.752 282.423 569.036 273.887L563.192 272.323ZM789.362 118.004H792.387C792.387 116.333 791.033 114.979 789.362 114.979V118.004ZM789.362 404V407.025C791.033 407.025 792.387 405.671 792.387 404H789.362ZM754.73 404H751.705C751.705 405.671 753.059 407.025 754.73 407.025V404ZM754.73 118.004V114.979C753.059 114.979 751.705 116.333 751.705 118.004H754.73ZM912.437 202.537L914.647 204.602C915.47 203.722 915.692 202.437 915.212 201.332C914.732 200.227 913.642 199.512 912.437 199.512V202.537ZM824.553 296.565L826.731 298.664C826.742 298.653 826.753 298.642 826.763 298.631L824.553 296.565ZM775.397 347.583L772.381 347.812C772.472 349.001 773.252 350.026 774.373 350.429C775.495 350.833 776.749 350.54 777.576 349.682L775.397 347.583ZM772.604 310.902L770.284 308.962C769.778 309.567 769.528 310.346 769.588 311.132L772.604 310.902ZM807.795 268.822L805.596 266.746C805.554 266.79 805.514 266.835 805.475 266.882L807.795 268.822ZM870.357 202.537V199.512C869.524 199.512 868.729 199.855 868.157 200.46L870.357 202.537ZM880.97 404L878.548 405.812C879.119 406.575 880.017 407.025 880.97 407.025V404ZM809.099 307.923L806.484 306.402C805.874 307.451 805.95 308.763 806.677 309.735L809.099 307.923ZM826.974 277.201L829.398 275.392C828.791 274.578 827.815 274.123 826.801 274.181C825.787 274.239 824.87 274.802 824.359 275.68L826.974 277.201ZM921.561 404V407.025C922.705 407.025 923.752 406.379 924.265 405.356C924.778 404.333 924.67 403.109 923.986 402.191L921.561 404ZM786.337 118.004V404H792.387V118.004H786.337ZM789.362 400.975H754.73V407.025H789.362V400.975ZM757.755 404V118.004H751.705V404H757.755ZM754.73 121.029H789.362V114.979H754.73V121.029ZM910.227 200.471L822.343 294.5L826.763 298.631L914.647 204.602L910.227 200.471ZM822.375 294.466L773.219 345.484L777.576 349.682L826.731 298.664L822.375 294.466ZM778.414 347.353L775.621 310.673L769.588 311.132L772.381 347.812L778.414 347.353ZM774.925 312.843L810.116 270.763L805.475 266.882L770.284 308.962L774.925 312.843ZM809.995 270.898L872.557 204.613L868.157 200.46L805.596 266.746L809.995 270.898ZM870.357 205.562H912.437V199.512H870.357V205.562ZM883.392 402.188L811.521 306.111L806.677 309.735L878.548 405.812L883.392 402.188ZM811.713 309.444L829.588 278.722L824.359 275.68L806.484 306.402L811.713 309.444ZM824.549 279.01L919.136 405.809L923.986 402.191L829.398 275.392L824.549 279.01ZM921.561 400.975H880.97V407.025H921.561V400.975ZM985.426 202.537H988.451C988.451 200.866 987.096 199.512 985.426 199.512V202.537ZM985.426 404V407.025C987.096 407.025 988.451 405.671 988.451 404H985.426ZM950.793 404H947.768C947.768 405.671 949.123 407.025 950.793 407.025V404ZM950.793 202.537V199.512C949.123 199.512 947.768 200.866 947.768 202.537H950.793ZM953.214 134.948L950.969 132.92C950.957 132.934 950.945 132.947 950.933 132.961L953.214 134.948ZM983.564 134.948L981.319 136.975C981.331 136.988 981.343 137.001 981.355 137.014L983.564 134.948ZM983.564 162.877L981.355 160.81L981.352 160.813L983.564 162.877ZM953.214 162.877L950.933 164.864C950.956 164.89 950.979 164.916 951.003 164.941L953.214 162.877ZM982.401 202.537V404H988.451V202.537H982.401ZM985.426 400.975H950.793V407.025H985.426V400.975ZM953.819 404V202.537H947.768V404H953.819ZM950.793 205.562H985.426V199.512H950.793V205.562ZM951.212 149.099C951.212 144.169 952.67 140.178 955.495 136.934L950.933 132.961C947.055 137.413 945.162 142.857 945.162 149.099H951.212ZM955.459 136.975C958.204 133.936 962.369 132.201 968.482 132.201V126.151C961.189 126.151 955.175 128.263 950.969 132.92L955.459 136.975ZM968.482 132.201C974.451 132.201 978.563 133.924 981.319 136.975L985.809 132.92C981.613 128.275 975.671 126.151 968.482 126.151V132.201ZM981.355 137.014C984.397 140.266 985.939 144.229 985.939 149.099H991.989C991.989 142.796 989.931 137.326 985.773 132.881L981.355 137.014ZM985.939 149.099C985.939 153.68 984.423 157.531 981.355 160.81L985.773 164.944C989.905 160.527 991.989 155.192 991.989 149.099H985.939ZM981.352 160.813C978.604 163.758 974.481 165.438 968.482 165.438V171.488C975.641 171.488 981.572 169.444 985.775 164.941L981.352 160.813ZM968.482 165.438C962.34 165.438 958.164 163.747 955.425 160.813L951.003 164.941C955.216 169.455 961.218 171.488 968.482 171.488V165.438ZM955.495 160.89C952.647 157.62 951.212 153.742 951.212 149.099H945.162C945.162 155.13 947.078 160.438 950.933 164.864L955.495 160.89ZM1125.07 202.537H1128.1C1128.1 200.866 1126.74 199.512 1125.07 199.512V202.537ZM1125.07 228.976V232.001C1126.74 232.001 1128.1 230.647 1128.1 228.976H1125.07ZM1016.15 228.976H1013.12C1013.12 230.647 1014.48 232.001 1016.15 232.001V228.976ZM1016.15 202.537V199.512C1014.48 199.512 1013.12 200.866 1013.12 202.537H1016.15ZM1053.01 153.567V150.542C1051.34 150.542 1049.99 151.897 1049.99 153.567H1053.01ZM1087.46 153.567H1090.49C1090.49 151.897 1089.13 150.542 1087.46 150.542V153.567ZM1118.56 377.374L1119.03 380.361C1119.06 380.356 1119.1 380.351 1119.13 380.345L1118.56 377.374ZM1125.82 375.884L1128.84 375.864C1128.84 374.946 1128.41 374.08 1127.69 373.511C1126.97 372.942 1126.03 372.73 1125.14 372.937L1125.82 375.884ZM1126 404L1126.92 406.883C1128.18 406.481 1129.04 405.305 1129.03 403.98L1126 404ZM1115.2 406.421L1114.71 403.437C1114.67 403.442 1114.64 403.448 1114.61 403.454L1115.2 406.421ZM1059.16 385.939L1056.47 387.325C1056.48 387.342 1056.49 387.359 1056.5 387.376L1059.16 385.939ZM1122.05 202.537V228.976H1128.1V202.537H1122.05ZM1125.07 225.951H1016.15V232.001H1125.07V225.951ZM1019.17 228.976V202.537H1013.12V228.976H1019.17ZM1016.15 205.562H1125.07V199.512H1016.15V205.562ZM1053.01 156.592H1087.46V150.542H1053.01V156.592ZM1084.44 153.567V354.1H1090.49V153.567H1084.44ZM1084.44 354.1C1084.44 361.147 1085.51 366.954 1088.04 371.124L1093.21 367.984C1091.52 365.203 1090.49 360.707 1090.49 354.1H1084.44ZM1088.04 371.124C1090.46 375.114 1093.73 377.935 1097.86 379.313L1099.78 373.573C1097.2 372.717 1095.01 370.945 1093.21 367.984L1088.04 371.124ZM1097.86 379.313C1101.55 380.542 1105.47 381.144 1109.62 381.144V375.094C1106.07 375.094 1102.79 374.579 1099.78 373.573L1097.86 379.313ZM1109.62 381.144C1112.65 381.144 1115.79 380.88 1119.03 380.361L1118.08 374.387C1115.12 374.861 1112.3 375.094 1109.62 375.094V381.144ZM1119.13 380.345C1122.36 379.722 1124.83 379.217 1126.5 378.832L1125.14 372.937C1123.58 373.296 1121.2 373.784 1117.98 374.403L1119.13 380.345ZM1122.79 375.905L1122.98 404.02L1129.03 403.98L1128.84 375.864L1122.79 375.905ZM1125.09 401.117C1122.55 401.925 1119.1 402.704 1114.71 403.437L1115.7 409.404C1120.24 408.648 1124 407.813 1126.92 406.883L1125.09 401.117ZM1114.61 403.454C1110.52 404.272 1105.46 404.699 1099.38 404.699V410.749C1105.71 410.749 1111.2 410.307 1115.8 409.387L1114.61 403.454ZM1099.38 404.699C1091.35 404.699 1084.04 403.108 1077.4 399.963L1074.81 405.43C1082.32 408.988 1090.52 410.749 1099.38 410.749V404.699ZM1077.4 399.963C1070.98 396.924 1065.78 391.836 1061.82 384.502L1056.5 387.376C1060.98 395.683 1067.07 401.767 1074.81 405.43L1077.4 399.963ZM1061.85 384.553C1058.06 377.198 1056.04 367.058 1056.04 353.913H1049.99C1049.99 367.581 1052.07 378.791 1056.47 387.325L1061.85 384.553ZM1056.04 353.913V153.567H1049.99V353.913H1056.04ZM1210.91 400.648L1209.72 403.429C1209.73 403.434 1209.74 403.439 1209.75 403.444L1210.91 400.648ZM1181.68 380.353L1179.46 382.412C1179.46 382.417 1179.47 382.423 1179.47 382.428L1181.68 380.353ZM1163.8 258.768L1166.63 259.839L1166.63 259.83L1163.8 258.768ZM1281.85 206.261L1280.55 208.992L1280.56 208.998L1281.85 206.261ZM1307.73 227.114L1305.31 228.929C1305.31 228.935 1305.32 228.94 1305.32 228.946L1307.73 227.114ZM1322.63 258.395L1319.7 259.178L1319.71 259.186L1322.63 258.395ZM1327.47 312.95V315.975C1329.14 315.975 1330.49 314.621 1330.49 312.95H1327.47ZM1177.02 312.95H1174C1174 314.621 1175.35 315.975 1177.02 315.975V312.95ZM1177.02 284.835V281.81C1175.35 281.81 1174 283.164 1174 284.835H1177.02ZM1293.02 284.835V287.86C1294.69 287.86 1296.05 286.506 1296.05 284.835H1293.02ZM1293.02 282.228H1296.05C1296.05 282.172 1296.04 282.116 1296.04 282.06L1293.02 282.228ZM1287.43 256.161L1284.6 257.205C1284.6 257.217 1284.6 257.229 1284.61 257.241L1287.43 256.161ZM1223.01 232.142L1224.34 234.857C1224.36 234.851 1224.37 234.844 1224.38 234.837L1223.01 232.142ZM1195.08 337.342L1192.19 338.235C1192.2 338.252 1192.2 338.269 1192.21 338.286L1195.08 337.342ZM1206.81 359.313L1204.45 361.208C1204.46 361.218 1204.47 361.227 1204.48 361.236L1206.81 359.313ZM1225.62 374.209L1224.28 376.924C1224.29 376.926 1224.3 376.929 1224.3 376.932L1225.62 374.209ZM1304.01 352.238L1305.89 349.869C1305.25 349.363 1304.44 349.135 1303.63 349.236C1302.82 349.337 1302.09 349.758 1301.6 350.405L1304.01 352.238ZM1324.86 368.809L1327.38 370.476C1328.25 369.168 1327.97 367.416 1326.74 366.441L1324.86 368.809ZM1283.52 402.138L1282.45 399.31L1282.44 399.315L1283.52 402.138ZM1249.08 404.699C1235.39 404.699 1223.07 402.399 1212.06 397.853L1209.75 403.444C1221.59 408.332 1234.71 410.749 1249.08 410.749V404.699ZM1212.1 397.868C1201.17 393.185 1191.78 386.656 1183.88 378.278L1179.47 382.428C1187.96 391.428 1198.05 398.429 1209.72 403.429L1212.1 397.868ZM1183.89 378.295C1176.12 369.921 1170.11 359.973 1165.9 348.409L1160.21 350.481C1164.69 362.75 1171.1 373.407 1179.46 382.412L1183.89 378.295ZM1165.9 348.409C1161.69 336.86 1159.56 324.182 1159.56 310.344H1153.51C1153.51 324.807 1155.74 338.196 1160.21 350.481L1165.9 348.409ZM1159.56 310.344V302.524H1153.51V310.344H1159.56ZM1159.56 302.524C1159.56 286.434 1161.94 272.221 1166.63 259.839L1160.97 257.696C1155.98 270.885 1153.51 285.843 1153.51 302.524H1159.56ZM1166.63 259.83C1171.35 247.243 1177.74 236.671 1185.75 228.058L1181.32 223.936C1172.7 233.198 1165.93 244.474 1160.97 257.705L1166.63 259.83ZM1185.75 228.058C1193.8 219.406 1202.9 212.892 1213.05 208.476L1210.63 202.928C1199.68 207.697 1189.91 214.714 1181.32 223.936L1185.75 228.058ZM1213.05 208.476C1223.22 204.045 1233.74 201.838 1244.61 201.838V195.788C1232.89 195.788 1221.56 198.173 1210.63 202.928L1213.05 208.476ZM1244.61 201.838C1258.67 201.838 1270.62 204.262 1280.55 208.992L1283.15 203.529C1272.23 198.329 1259.35 195.788 1244.61 195.788V201.838ZM1280.56 208.998C1290.69 213.762 1298.92 220.405 1305.31 228.929L1310.15 225.299C1303.14 215.949 1294.11 208.689 1283.14 203.523L1280.56 208.998ZM1305.32 228.946C1311.76 237.409 1316.57 247.47 1319.7 259.178L1325.55 257.612C1322.23 245.24 1317.11 234.446 1310.14 225.283L1305.32 228.946ZM1319.71 259.186C1322.85 270.81 1324.44 283.574 1324.44 297.496H1330.49C1330.49 283.116 1328.85 269.813 1325.55 257.604L1319.71 259.186ZM1324.44 297.496V312.95H1330.49V297.496H1324.44ZM1327.47 309.925H1177.02V315.975H1327.47V309.925ZM1180.05 312.95V284.835H1174V312.95H1180.05ZM1177.02 287.86H1293.02V281.81H1177.02V287.86ZM1296.05 284.835V282.228H1290V284.835H1296.05ZM1296.04 282.06C1295.53 272.808 1293.6 263.811 1290.26 255.081L1284.61 257.241C1287.73 265.393 1289.52 273.774 1290 282.396L1296.04 282.06ZM1290.27 255.117C1286.99 246.174 1281.7 238.761 1274.43 232.945L1270.65 237.669C1277.03 242.776 1281.68 249.266 1284.6 257.205L1290.27 255.117ZM1274.43 232.945C1266.9 226.925 1256.85 224.089 1244.61 224.089V230.139C1255.95 230.139 1264.52 232.765 1270.65 237.669L1274.43 232.945ZM1244.61 224.089C1236.34 224.089 1228.67 225.865 1221.64 229.446L1224.38 234.837C1230.51 231.715 1237.24 230.139 1244.61 230.139V224.089ZM1221.68 229.426C1214.62 232.888 1208.6 238.066 1203.62 244.88L1208.51 248.45C1212.96 242.354 1218.24 237.85 1224.34 234.857L1221.68 229.426ZM1203.62 244.88C1198.65 251.681 1194.85 259.909 1192.17 269.496L1197.99 271.127C1200.52 262.095 1204.05 254.558 1208.51 248.45L1203.62 244.88ZM1192.17 269.496C1189.47 279.129 1188.15 290.151 1188.15 302.524H1194.2C1194.2 290.567 1195.48 280.114 1197.99 271.127L1192.17 269.496ZM1188.15 302.524V310.344H1194.2V302.524H1188.15ZM1188.15 310.344C1188.15 320.18 1189.49 329.482 1192.19 338.235L1197.97 336.449C1195.46 328.32 1194.2 319.624 1194.2 310.344H1188.15ZM1192.21 338.286C1195.04 346.921 1199.12 354.573 1204.45 361.208L1209.17 357.418C1204.33 351.392 1200.58 344.396 1197.96 336.398L1192.21 338.286ZM1204.48 361.236C1209.96 367.897 1216.57 373.133 1224.28 376.924L1226.95 371.494C1220.02 368.085 1214.09 363.39 1209.15 357.39L1204.48 361.236ZM1224.3 376.932C1232.21 380.757 1241.11 382.633 1250.94 382.633V376.583C1241.9 376.583 1233.92 374.86 1226.93 371.485L1224.3 376.932ZM1250.94 382.633C1263.51 382.633 1274.38 380.066 1283.38 374.768L1280.32 369.553C1272.44 374.186 1262.7 376.583 1250.94 376.583V382.633ZM1283.38 374.768C1292.18 369.59 1299.86 362.678 1306.41 354.07L1301.6 350.405C1295.49 358.431 1288.39 364.8 1280.32 369.553L1283.38 374.768ZM1302.12 354.606L1322.98 371.177L1326.74 366.441L1305.89 349.869L1302.12 354.606ZM1322.34 367.142C1318.15 373.474 1312.81 379.547 1306.28 385.354L1310.3 389.876C1317.17 383.766 1322.88 377.302 1327.38 370.476L1322.34 367.142ZM1306.28 385.354C1299.89 391.03 1291.97 395.695 1282.45 399.31L1284.6 404.966C1294.69 401.133 1303.28 396.116 1310.3 389.876L1306.28 385.354ZM1282.44 399.315C1273.19 402.874 1262.09 404.699 1249.08 404.699V410.749C1262.63 410.749 1274.5 408.85 1284.61 404.961L1282.44 399.315Z" fill="#363636"/>
</g>
</g>
<path d="M1625.4 191.456L1613.75 216.874L1588.43 228.427L1613.75 240.073L1625.4 265.398L1636.95 240.073L1662.37 228.427L1636.95 216.874M1532.97 219.184L1509.86 270.019L1459.03 293.126L1509.86 316.233L1532.97 367.068L1556.08 316.233L1606.91 293.126L1556.08 270.019M1625.4 320.854L1613.75 346.179L1588.43 357.825L1613.75 369.379L1625.4 394.796L1636.95 369.379L1662.37 357.825L1636.95 346.179" fill="#FFD900"/>
<path d="M1410.43 470.964L1426.64 444.894L1406.85 421.423L1436.65 428.782L1452.86 402.712L1455.07 433.331L1484.88 440.69L1456.44 452.254L1458.65 482.872L1438.86 459.401L1410.43 470.964Z" fill="#FFD900"/>
</g>
<defs>
<filter id="filter0_b_8_39" x="130.116" y="90.0077" width="1225.27" height="346.066" filterUnits="userSpaceOnUse" color-interpolation-filters="sRGB">
<feFlood flood-opacity="0" result="BackgroundImageFix"/>
<feGaussianBlur in="BackgroundImageFix" stdDeviation="14.0878"/>
<feComposite in2="SourceAlpha" operator="in" result="effect1_backgroundBlur_8_39"/>
<feBlend mode="normal" in="SourceGraphic" in2="effect1_backgroundBlur_8_39" result="shape"/>
</filter>
<filter id="filter1_b_8_39" x="-26.9368" y="289.958" width="1503.66" height="168.372" filterUnits="userSpaceOnUse" color-interpolation-filters="sRGB">
<feFlood flood-opacity="0" result="BackgroundImageFix"/>
<feGaussianBlur in="BackgroundImageFix" stdDeviation="5.28155"/>
<feComposite in2="SourceAlpha" operator="in" result="effect1_backgroundBlur_8_39"/>
<feBlend mode="normal" in="SourceGraphic" in2="effect1_backgroundBlur_8_39" result="shape"/>
</filter>
<filter id="filter2_b_8_39" x="498.686" y="88.5604" width="858.224" height="348.607" filterUnits="userSpaceOnUse" color-interpolation-filters="sRGB">
<feFlood flood-opacity="0" result="BackgroundImageFix"/>
<feGaussianBlur in="BackgroundImageFix" stdDeviation="14.7217"/>
<feComposite in2="SourceAlpha" operator="in" result="effect1_backgroundBlur_8_39"/>
<feBlend mode="normal" in="SourceGraphic" in2="effect1_backgroundBlur_8_39" result="shape"/>
</filter>
<clipPath id="clip0_8_39">
<rect width="1745.55" height="544" fill="white"/>
</clipPath>
</defs>
</svg>
