<svg width="688" height="108" viewBox="0 0 688 108" fill="none" xmlns="http://www.w3.org/2000/svg">
<rect width="688" height="108" fill="white"/>
<path d="M101.833 22.5833L97.6667 30.9167H103.917V43.4167H91.4167V30.9167L95.5833 22.5833H101.833ZM118.5 22.5833L114.333 30.9167H120.583V43.4167H108.083V30.9167L112.25 22.5833H118.5Z" fill="#6D6D6D"/>
<path d="M161.834 35.7169C162.004 37.25 162.089 38.4851 162.089 39.4646C162.089 48.5784 161.535 54.5407 160.513 57.4366C159.406 60.801 157.745 63.5693 155.531 65.7838C152.805 68.5946 149.398 71.1073 145.309 73.3218L145.735 73.7903C150.079 71.7461 153.273 69.9574 155.403 68.3817C157.532 66.8485 159.321 65.0172 160.726 62.9304C161.195 62.3342 161.663 61.6102 162.089 60.7585C164.729 63.7396 166.774 67.3596 168.179 71.5332C168.477 72.5979 168.988 73.1515 169.755 73.1515C170.096 73.1515 170.394 72.9386 170.692 72.5127C170.947 72.0442 171.075 71.6183 171.075 71.1925C171.075 69.3186 170.308 67.4447 168.775 65.4857C167.498 63.697 165.411 61.8232 162.515 59.8641C163.069 58.6291 163.537 57.1811 163.92 55.4776C164.474 53.0075 164.772 47.2156 164.772 38.187C164.772 37.9314 165.028 37.7611 165.539 37.5907C166.05 37.4204 166.348 37.2074 166.348 36.8667C166.348 36.6112 165.752 36.3983 164.559 36.1427C163.665 36.015 162.77 35.8872 161.834 35.7169ZM137.26 37.2074C137.388 38.1444 137.473 39.1239 137.559 40.2312V67.4873C137.516 68.0836 137.303 68.5946 136.962 69.0205C136.622 69.3612 136.494 69.6167 136.494 69.7445C136.494 70.0852 137.005 70.6814 138.112 71.5332C138.495 71.7887 138.794 71.959 139.049 71.959C139.518 71.8739 139.901 71.448 140.156 70.6814C141.562 68.2965 145.48 64.5914 151.953 59.6086L151.485 59.0124L140.071 67.0189V39.6775C140.071 39.3794 140.199 39.1239 140.454 38.9535C141.008 38.698 141.306 38.4425 141.306 38.187C141.306 37.9314 140.966 37.7611 140.327 37.6759L137.26 37.2074ZM146.374 37.5481L145.991 37.9314C148.12 40.657 149.696 44.0641 150.718 48.1099C151.016 49.1746 151.527 49.6856 152.294 49.6856C152.635 49.6856 152.933 49.4727 153.188 49.0468C153.444 48.621 153.614 48.1951 153.614 47.7266C153.614 46.1509 153.018 44.5325 151.868 42.9142C150.761 41.1681 148.929 39.3794 146.374 37.5481ZM176.569 40.2312L177.378 42.0624C178.23 41.8921 179.72 41.7643 181.807 41.7643H193.732V47.4285H184.49C182.19 47.4285 180.444 47.3007 179.252 47.0452L180.018 48.8765C180.913 48.7061 182.403 48.5784 184.49 48.5784H210.511C210.852 48.5784 211.022 48.408 211.022 48.0247C211.022 47.8544 210.639 47.4285 209.958 46.6619C209.234 45.8953 208.723 45.512 208.382 45.512C208.254 45.512 207.956 45.8102 207.488 46.3638L206.423 47.4285H196.372V41.7643H213.109C213.45 41.7643 213.663 41.594 213.663 41.2107C213.663 41.0403 213.28 40.5293 212.513 39.6349C211.746 38.8258 211.15 38.3999 210.767 38.3999C210.596 38.3999 210.298 38.7406 209.787 39.3794C209.191 40.0182 208.765 40.4441 208.595 40.6145H196.372V37.8463C196.372 37.5056 196.628 37.25 197.139 37.0797C197.82 36.8242 198.161 36.526 198.161 36.1427C198.161 35.9724 197.692 35.802 196.841 35.6317C195.478 35.4613 194.371 35.291 193.519 35.2058C193.647 35.9724 193.732 36.6964 193.732 37.463V40.6145H181.807C179.507 40.6145 177.761 40.4867 176.569 40.2312ZM207.615 50.6652C207.402 50.6652 207.147 50.8355 206.849 51.1762C206.551 51.5595 206.21 51.9002 205.869 52.2409H183.127C182.446 51.8576 181.594 51.4317 180.53 51.0059C180.7 52.2409 180.828 54.2425 180.828 57.0107C180.828 61.738 180.317 65.2728 179.337 67.6151C178.528 69.5315 176.995 71.5332 174.738 73.7477L175.249 74.131C177.208 72.7682 178.741 71.4054 179.933 70.1278C181.211 68.4668 182.148 66.6356 182.702 64.5914C182.872 63.7822 183 62.8878 183.085 61.9083H206.593V63.9525C206.593 64.421 206.806 64.6339 207.232 64.6339C207.658 64.6339 208.169 64.5914 208.765 64.421C209.106 64.3358 209.319 64.1229 209.319 63.8674C209.149 62.6749 209.106 61.738 209.106 60.9714V54.4129C209.106 54.1148 209.276 53.8592 209.617 53.6463C209.958 53.3908 210.171 53.0927 210.171 52.8371C210.171 52.5816 209.787 52.1983 209.106 51.6021C208.339 51.0059 207.871 50.6652 207.615 50.6652ZM183.34 53.4334H193.476V60.7585H183.213C183.298 59.6512 183.34 58.3735 183.34 57.0107V53.4334ZM195.946 60.7585V53.4334H206.593V60.7585H195.946ZM232.87 35.8872L232.487 36.3557C233.935 37.9314 234.914 39.5498 235.468 41.1681C235.936 42.318 236.447 42.8716 237.043 42.8716C237.427 42.8716 237.725 42.7438 237.98 42.4883C238.279 42.1476 238.449 41.8069 238.449 41.381C238.449 40.2312 238.108 39.2942 237.469 38.5277C236.618 37.5056 235.084 36.6538 232.87 35.8872ZM221.797 43.6382L222.564 45.4695C223.586 45.2991 225.076 45.1713 227.035 45.1713H246.242C243.9 49.1746 241.004 52.9649 237.555 56.4571C233.509 60.2474 229.676 63.1434 226.013 65.145C225.843 65.0598 225.715 65.0172 225.63 65.0172C225.289 65.0172 223.075 66.4652 219.071 69.3612C220.434 70.9795 221.286 71.7887 221.584 71.8739C222.01 71.8739 222.223 71.2776 222.308 70.1704L225.63 66.4652C228.143 69.0205 230.528 70.5111 232.827 70.9795C234.19 71.448 241.26 71.7035 254.036 71.7035C254.462 71.7035 254.717 71.5332 254.845 71.235C254.93 70.3407 255.527 69.7871 256.634 69.4889V68.8927C254.334 69.1482 252.205 69.2334 250.246 69.2334C239.514 69.2334 233.551 69.0631 232.359 68.6372C230.655 68.2539 228.824 67.2744 226.865 65.7412C229.08 64.8895 231.507 63.6544 234.19 62.0361C236.66 60.5029 239.045 58.6291 241.345 56.3719C244.07 53.7741 246.626 50.58 249.053 46.7897C249.138 46.7045 249.564 46.5767 250.331 46.4064C251.012 46.236 251.396 45.9805 251.396 45.5972C251.396 45.3843 250.884 44.8306 249.948 43.8937C249.011 42.9994 248.329 42.5309 247.903 42.5309C247.733 42.5309 247.435 42.7013 247.052 42.9568L245.518 44.0215H227.035C225.502 44.0215 223.756 43.8937 221.797 43.6382ZM273.328 35.0355C271.71 38.9961 269.921 42.2754 267.92 44.8732C265.407 48.1099 263.065 50.58 260.935 52.3687L261.404 53.0075C263.278 51.7724 265.024 50.4522 266.599 49.0894V69.1482C266.599 70.2129 266.855 70.9795 267.451 71.4906C267.962 72.0016 268.814 72.2997 270.049 72.4701H279.546C287.553 72.4701 292.45 72.3423 294.281 72.1294C296.155 71.959 297.433 71.7461 298.157 71.4906C298.838 71.1499 299.179 70.7666 299.179 70.2555C299.179 69.8296 298.753 69.3612 297.944 68.8927C297.603 68.4668 297.39 67.828 297.348 66.9337C297.263 66.0819 297.22 64.5488 297.177 62.2916L296.581 62.1639L295.559 67.828C295.474 68.552 294.963 69.0631 294.068 69.4038C293.302 69.6593 291.854 69.7871 289.767 69.7871C286.105 69.9148 282.698 69.9574 279.546 69.9574C276.011 69.9574 273.371 69.9574 271.667 69.9148C270.517 69.8296 269.793 69.7019 269.453 69.5315C269.069 69.2334 268.899 68.8501 268.899 68.3817V58.7568H291.471V60.801C291.471 61.2695 291.641 61.4825 292.067 61.4825C292.493 61.4825 293.004 61.4399 293.6 61.2695C293.941 61.1418 294.154 60.9714 294.154 60.7159C293.983 59.5234 293.941 58.5865 293.941 57.8199V49.7708C293.941 49.4727 294.154 49.2172 294.622 48.9617C295.091 48.7061 295.346 48.4506 295.346 48.1951C295.346 47.9396 294.963 47.5137 294.281 46.9174C293.515 46.3212 293.046 46.0231 292.791 46.0231C292.578 46.0231 292.322 46.1935 292.024 46.4916L291.045 47.4285H282.314C284.231 45.8953 286.105 44.277 287.978 42.5735C288.319 42.2328 288.788 42.0199 289.384 41.9347C289.895 41.8921 290.193 41.6792 290.193 41.3385C290.193 40.9126 289.725 40.2312 288.873 39.3794C287.978 38.4851 287.382 38.0166 287.041 38.0166C286.829 38.0166 286.573 38.2295 286.232 38.6554L285.04 39.9331H274.35C274.819 39.1665 275.287 38.3147 275.756 37.4204C275.841 37.2926 276.096 37.1649 276.565 37.0797C277.119 36.9945 277.417 36.8242 277.417 36.5686C277.417 36.3131 276.906 36.1002 275.926 35.8446L273.328 35.0355ZM268.558 47.3007L270.219 45.512C271.369 44.3196 272.476 42.829 273.584 41.1255H285.466C284.188 43.5104 282.74 45.5972 281.207 47.4285H268.771L268.558 47.3007ZM268.899 48.5784H278.907V57.5644H268.899V48.5784ZM281.548 57.5644V48.5784H291.471V57.5644H281.548ZM312.253 67.6577C312.253 66.8911 311.998 66.2949 311.529 65.8264C311.061 65.3579 310.465 65.1024 309.698 65.1024C309.059 65.1024 308.506 65.3579 308.08 65.7838C307.611 66.2523 307.398 66.8059 307.398 67.4021C307.398 68.7224 308.037 69.5315 309.357 69.8296C309.911 70 310.209 70.1704 310.209 70.5111C310.209 71.9164 309.4 73.3644 307.782 74.8124L308.25 75.3661C310.891 73.4922 312.253 70.8943 312.253 67.6577ZM348.623 45.512C348.794 46.5342 348.921 47.3433 348.921 47.9396V52.4964C348.879 52.9649 348.751 53.3908 348.496 53.7315C348.24 54.0722 348.112 54.2851 348.112 54.4129C348.112 54.5832 348.538 54.8814 349.39 55.3072C349.731 55.4776 350.071 55.5202 350.327 55.5202C350.668 55.5202 351.136 54.9665 351.732 53.7741H354.969C354.799 54.4129 354.628 55.0091 354.458 55.5202C353.947 56.8404 353.095 58.118 351.817 59.3531C350.625 60.6307 349.305 61.6102 347.772 62.3342L348.07 62.8027C350.114 62.0787 351.903 61.0566 353.478 59.6938C355.012 58.4587 356.161 57.0959 356.843 55.5628C357.013 55.0517 357.183 54.4555 357.354 53.7741H361.996V54.5407C361.996 54.8814 361.911 55.3072 361.826 55.8609C361.868 56.2016 362.124 56.3293 362.55 56.3293C362.89 56.3293 363.316 56.2867 363.827 56.1164C364.125 56.0312 364.296 55.9035 364.296 55.6905C364.21 54.8814 364.168 54.3277 364.168 54.0722V47.5137C364.168 47.173 364.338 46.96 364.679 46.8323C365.19 46.7045 365.488 46.449 365.488 46.1083C365.488 45.9379 365.062 45.7676 364.21 45.6824L361.826 45.3417C361.911 45.7676 361.996 46.2786 361.996 46.8323V52.5816H357.609C357.78 51.3466 357.907 49.9412 357.907 48.3654V42.9568H366.893C367.234 42.9568 367.405 42.7864 367.405 42.3606C367.405 42.2328 367.064 41.8069 366.382 41.0829C365.744 40.3589 365.275 39.9756 364.934 39.9756C364.807 39.9756 364.509 40.2312 364.083 40.7422L363.061 41.7643H359.27C360.633 40.5719 361.826 39.2517 362.848 37.8037L363.486 37.6759C363.87 37.6333 364.083 37.5056 364.083 37.3352C364.083 36.9945 363.699 36.6964 362.975 36.3983C362.209 36.1427 361.4 35.8446 360.59 35.5465C359.994 37.7611 359.185 39.8053 358.078 41.7643H351.179C348.879 41.7643 347.133 41.6366 345.94 41.381L346.707 43.2123C347.601 43.042 349.092 42.9568 351.179 42.9568H355.565V48.3654C355.565 49.8986 355.437 51.304 355.224 52.5816H351.264V48.1099C351.264 47.6414 351.349 47.3433 351.604 47.2156C352.116 46.96 352.414 46.7045 352.414 46.449C352.414 46.1935 352.158 45.9805 351.69 45.8528L348.623 45.512ZM350.966 35.8872L350.582 36.2279C351.519 37.3352 352.243 38.6554 352.712 40.2738C352.925 41.1255 353.308 41.5088 353.904 41.5088C354.202 41.5088 354.5 41.381 354.799 41.0403C355.012 40.6996 355.139 40.3589 355.139 39.9756C355.139 39.3794 354.799 38.698 354.117 38.0166C353.478 37.3352 352.414 36.6538 350.966 35.8872ZM368.299 37.3778C368.469 38.911 368.554 41.381 368.554 44.8732C368.554 49.3875 368.214 52.7946 367.575 55.0517C367.192 56.4145 366.51 57.8625 365.573 59.3957C364.764 59.3105 364.083 59.2253 363.486 59.1401C363.572 60.2474 363.657 61.4399 363.657 62.7175V63.7396H355.991C353.691 63.7396 351.945 63.6118 350.753 63.3563L351.562 65.1876C352.414 65.0172 353.904 64.8895 355.991 64.8895H363.657V71.0647H351.86C349.56 71.0647 347.772 70.9369 346.579 70.6814L347.388 72.5127C348.24 72.2997 349.731 72.2146 351.86 72.2146H383.119C383.503 72.2146 383.716 72.0016 383.716 71.6183C383.716 71.448 383.29 70.9369 382.523 70.0852C381.757 69.276 381.16 68.8501 380.777 68.8501C380.607 68.8501 380.309 69.1908 379.798 69.7871C379.201 70.4259 378.775 70.8518 378.605 71.0647H366.127V64.8895H379.201C379.542 64.8895 379.712 64.7191 379.712 64.3358C379.712 64.1655 379.329 63.697 378.648 62.9304C377.924 62.2064 377.413 61.8232 377.072 61.8232C376.944 61.8232 376.646 62.1213 376.178 62.6749L375.113 63.7396H366.127V61.6528C366.127 61.3121 366.382 61.0566 366.893 60.8862C367.575 60.7159 367.958 60.4178 367.958 60.0345C367.958 59.8641 367.532 59.6938 366.766 59.566C367.362 58.8846 367.916 58.1606 368.427 57.4366C369.364 55.9035 370.002 54.1574 370.428 52.2409H379.201V57.6496C379.201 58.2458 378.946 58.5013 378.52 58.5013C377.455 58.5013 376.092 58.4161 374.389 58.1606L374.176 58.7994C376.476 59.3957 377.668 59.9919 377.753 60.6733C377.753 61.3547 378.009 61.6528 378.52 61.6528C378.988 61.6528 379.585 61.4825 380.266 61.0992C381.118 60.6733 381.544 59.9919 381.544 59.0975V40.5293C381.544 40.2738 381.714 40.0608 382.14 39.8479C382.481 39.6775 382.694 39.4646 382.694 39.1239C382.694 38.911 382.31 38.4851 381.629 37.8037C380.905 37.2926 380.479 37.0371 380.309 37.0371C380.096 37.0371 379.798 37.25 379.372 37.6333L378.563 38.4425H370.599C370.002 38.1018 369.236 37.7185 368.299 37.3778ZM370.897 44.9158V39.5924H379.201V44.9158H370.897ZM370.556 51.091C370.726 49.6431 370.812 47.9821 370.897 46.1083H379.201V51.091H370.556ZM417.36 35.7169C417.53 37.25 417.615 38.4851 417.615 39.4646C417.615 48.5784 417.062 54.5407 416.04 57.4366C414.932 60.801 413.272 63.5693 411.057 65.7838C408.331 68.5946 404.924 71.1073 400.836 73.3218L401.262 73.7903C405.606 71.7461 408.8 69.9574 410.929 68.3817C413.059 66.8485 414.847 65.0172 416.253 62.9304C416.721 62.3342 417.19 61.6102 417.615 60.7585C420.256 63.7396 422.3 67.3596 423.706 71.5332C424.004 72.5979 424.515 73.1515 425.281 73.1515C425.622 73.1515 425.92 72.9386 426.218 72.5127C426.474 72.0442 426.601 71.6183 426.601 71.1925C426.601 69.3186 425.835 67.4447 424.302 65.4857C423.024 63.697 420.937 61.8232 418.041 59.8641C418.595 58.6291 419.063 57.1811 419.447 55.4776C420 53.0075 420.299 47.2156 420.299 38.187C420.299 37.9314 420.554 37.7611 421.065 37.5907C421.576 37.4204 421.874 37.2074 421.874 36.8667C421.874 36.6112 421.278 36.3983 420.086 36.1427C419.191 36.015 418.297 35.8872 417.36 35.7169ZM392.787 37.2074C392.915 38.1444 393 39.1239 393.085 40.2312V67.4873C393.042 68.0836 392.829 68.5946 392.489 69.0205C392.148 69.3612 392.02 69.6167 392.02 69.7445C392.02 70.0852 392.531 70.6814 393.639 71.5332C394.022 71.7887 394.32 71.959 394.576 71.959C395.044 71.8739 395.427 71.448 395.683 70.6814C397.088 68.2965 401.006 64.5914 407.48 59.6086L407.011 59.0124L395.598 67.0189V39.6775C395.598 39.3794 395.725 39.1239 395.981 38.9535C396.535 38.698 396.833 38.4425 396.833 38.187C396.833 37.9314 396.492 37.7611 395.853 37.6759L392.787 37.2074ZM401.901 37.5481L401.517 37.9314C403.647 40.657 405.222 44.0641 406.245 48.1099C406.543 49.1746 407.054 49.6856 407.82 49.6856C408.161 49.6856 408.459 49.4727 408.715 49.0468C408.97 48.621 409.141 48.1951 409.141 47.7266C409.141 46.1509 408.544 44.5325 407.394 42.9142C406.287 41.1681 404.456 39.3794 401.901 37.5481ZM430.945 40.5719L431.755 42.4031C432.606 42.2328 434.097 42.105 436.184 42.105H442.487V44.4899C442.487 44.8306 442.444 45.3417 442.359 46.0231C442.359 46.3638 442.614 46.5342 443.126 46.5342C443.551 46.5342 444.062 46.4916 444.659 46.3212C444.999 46.1935 445.17 46.0231 445.17 45.7676C445.042 44.8732 444.999 44.277 444.999 43.9363V42.105H454.837V44.9584C454.837 45.2991 454.752 45.8528 454.667 46.5342C454.709 46.8749 454.965 47.0026 455.433 47.0026C455.859 47.0026 456.37 46.96 456.967 46.7897C457.307 46.7045 457.478 46.5342 457.478 46.2786C457.35 45.3843 457.307 44.7881 457.307 44.4474V42.105H469.061C469.487 42.105 469.7 41.9347 469.7 41.5088C469.7 41.3385 469.274 40.7848 468.423 39.8053C467.571 38.911 466.932 38.4425 466.506 38.4425C466.336 38.4425 465.995 38.8258 465.399 39.5498L464.079 40.9552H457.307V37.7185C457.307 37.3778 457.52 37.0797 457.946 36.9093C458.542 36.739 458.84 36.4834 458.84 36.0576C458.84 35.8872 458.329 35.7169 457.392 35.6317L454.667 35.2058C454.752 35.7169 454.837 36.2705 454.837 36.9093V40.9552H444.999V37.7185C444.999 37.3778 445.212 37.0797 445.638 36.9093C446.234 36.739 446.533 36.4834 446.533 36.0576C446.533 35.8872 446.021 35.7169 445.085 35.6317L442.359 35.2058C442.444 35.7169 442.487 36.2705 442.487 36.9093V40.9552H436.184C433.884 40.9552 432.138 40.8274 430.945 40.5719ZM442.018 47.173C440.57 50.58 438.952 53.4334 437.163 55.6479C434.949 58.4587 432.862 60.6733 430.945 62.2064L431.414 62.8027C434.523 60.8862 437.035 58.8846 438.995 56.8404V67.9132C438.995 69.6167 438.909 71.3202 438.824 73.0663C438.824 73.5348 439.08 73.7903 439.633 73.7903C440.017 73.7903 440.485 73.7051 440.996 73.5774C441.337 73.407 441.507 73.1941 441.507 72.9386V55.9886C441.507 55.6479 441.678 55.3924 442.018 55.2221C442.487 54.9665 442.742 54.6684 442.742 54.2851C442.742 54.1574 442.487 54.0296 442.018 53.8592C441.933 53.8592 441.805 53.8592 441.72 53.8167C442.657 52.5816 443.594 51.1762 444.446 49.5579C444.531 49.4301 444.786 49.3024 445.255 49.2172C445.766 49.132 446.064 48.9617 446.064 48.7061C446.064 48.4932 445.553 48.2377 444.616 47.9821L442.018 47.173ZM463.057 50.6652C461.694 53.3056 459.309 56.0312 455.902 58.9272C455.774 59.0124 455.646 59.1401 455.476 59.2679V50.0264C455.476 49.6856 455.732 49.3875 456.243 49.2172C456.839 49.0042 457.179 48.7061 457.179 48.3654C457.179 48.1951 456.754 48.0247 455.902 47.897C454.667 47.7266 453.645 47.5988 452.836 47.5137C452.921 48.3654 453.006 49.2598 453.006 50.1967V61.1418C450.749 62.7601 448.279 64.2932 445.596 65.7412L446.064 66.4652C448.619 65.4431 450.962 64.3358 453.006 63.2285V69.6167C453.006 70.5111 453.091 71.1499 453.347 71.5332C453.687 72.0016 454.198 72.3423 454.922 72.5127C455.987 72.683 458.372 72.8108 462.034 72.8108C464.164 72.8108 465.91 72.7256 467.273 72.5553C468.039 72.4275 468.593 72.2997 468.976 72.1294C469.445 71.7887 469.7 71.3628 469.7 70.8518C469.7 70.2981 469.274 69.9148 468.508 69.5741C468.082 69.276 467.826 68.8075 467.741 68.1687C467.656 67.5299 467.613 65.8264 467.528 63.1008L466.975 62.973C466.549 66.0819 466.251 67.9132 466.08 68.4668C465.953 69.3186 465.612 69.9148 465.101 70.2129C464.292 70.4685 463.27 70.6388 462.034 70.6388C459.522 70.6388 457.648 70.5536 456.413 70.3833C455.774 70.2129 455.476 69.7871 455.476 68.9353V61.8232C456.583 61.1843 457.605 60.5029 458.585 59.7364C460.885 58.0754 463.099 56.0738 465.186 53.7741C465.271 53.6463 465.654 53.5611 466.336 53.5611C466.932 53.5185 467.23 53.3482 467.23 53.0927C467.23 52.8371 466.677 52.4964 465.654 51.9854C464.93 51.6447 464.079 51.1762 463.057 50.6652ZM488.396 35.8872L488.013 36.3557C489.461 37.9314 490.441 39.5498 490.994 41.1681C491.463 42.318 491.974 42.8716 492.57 42.8716C492.953 42.8716 493.251 42.7438 493.507 42.4883C493.805 42.1476 493.975 41.8069 493.975 41.381C493.975 40.2312 493.635 39.2942 492.996 38.5277C492.144 37.5056 490.611 36.6538 488.396 35.8872ZM477.323 43.6382L478.09 45.4695C479.112 45.2991 480.603 45.1713 482.562 45.1713H501.769C499.427 49.1746 496.531 52.9649 493.081 56.4571C489.035 60.2474 485.202 63.1434 481.54 65.145C481.369 65.0598 481.242 65.0172 481.156 65.0172C480.816 65.0172 478.601 66.4652 474.598 69.3612C475.961 70.9795 476.812 71.7887 477.111 71.8739C477.536 71.8739 477.749 71.2776 477.835 70.1704L481.156 66.4652C483.669 69.0205 486.054 70.5111 488.354 70.9795C489.717 71.448 496.786 71.7035 509.562 71.7035C509.988 71.7035 510.244 71.5332 510.372 71.235C510.457 70.3407 511.053 69.7871 512.16 69.4889V68.8927C509.861 69.1482 507.731 69.2334 505.772 69.2334C495.04 69.2334 489.078 69.0631 487.885 68.6372C486.182 68.2539 484.35 67.2744 482.391 65.7412C484.606 64.8895 487.033 63.6544 489.717 62.0361C492.187 60.5029 494.572 58.6291 496.871 56.3719C499.597 53.7741 502.152 50.58 504.58 46.7897C504.665 46.7045 505.091 46.5767 505.857 46.4064C506.539 46.236 506.922 45.9805 506.922 45.5972C506.922 45.3843 506.411 44.8306 505.474 43.8937C504.537 42.9994 503.856 42.5309 503.43 42.5309C503.259 42.5309 502.961 42.7013 502.578 42.9568L501.045 44.0215H482.562C481.029 44.0215 479.283 43.8937 477.323 43.6382ZM549.041 35.5465C546.699 39.8053 542.951 43.6382 537.755 47.1304L538.181 47.684C541.248 46.236 543.718 44.7881 545.549 43.3401C547.678 41.7643 549.595 39.9756 551.384 38.0166C551.469 37.8888 551.767 37.8037 552.278 37.8037C552.661 37.8037 552.874 37.6759 552.874 37.4204C552.874 37.25 552.406 36.9519 551.511 36.526L549.041 35.5465ZM516.802 38.2295L517.569 40.0608C518.421 39.8905 519.911 39.7627 522.041 39.7627H522.211V52.5816H521.019C518.719 52.5816 516.973 52.4539 515.78 52.1983L516.589 54.0296C517.441 53.8592 518.932 53.7741 521.019 53.7741H522.211C522.126 57.394 521.87 60.4603 521.359 63.0156C520.976 65.0598 520.295 67.0189 519.315 68.8075C518.463 70.6814 517.441 72.172 516.291 73.2793L516.632 73.7903C518.293 72.6404 519.783 71.1073 521.061 69.1908C522.339 67.317 523.233 65.2728 523.787 62.973C524.298 60.5029 524.596 57.4366 524.681 53.7741H530.856V69.3186C530.856 70.9369 530.771 72.172 530.686 73.0663C530.686 73.5348 530.941 73.7903 531.453 73.7903C531.878 73.7903 532.347 73.7051 532.943 73.5348C533.284 73.3644 533.454 73.1941 533.454 72.9386C533.369 71.5332 533.326 70.3407 533.326 69.3186V53.7741H540.14C540.524 53.7741 540.737 53.6037 540.737 53.1778C540.737 53.0075 540.353 52.4964 539.587 51.6447C538.778 50.7929 538.181 50.3671 537.841 50.3671C537.67 50.3671 537.33 50.7078 536.819 51.3466L535.669 52.5816H533.326V39.7627H539.203C539.544 39.7627 539.757 39.5924 539.757 39.2091C539.757 39.0387 539.374 38.5702 538.607 37.7611C537.883 36.9519 537.33 36.526 536.989 36.526C536.819 36.526 536.52 36.8242 536.052 37.4204C535.456 38.0592 535.072 38.4425 534.902 38.6128H522.041C519.741 38.6128 517.995 38.4851 516.802 38.2295ZM530.856 52.5816H524.681V39.7627H530.856V52.5816ZM550.234 47.173C547.593 51.6021 543.292 55.6053 537.415 59.2679L537.841 59.8215C541.248 58.2884 544.016 56.7978 546.06 55.2646C548.402 53.5611 550.574 51.7299 552.533 49.6856C552.619 49.5579 552.917 49.4727 553.428 49.4727C553.854 49.4301 554.067 49.3024 554.067 49.0468C554.067 48.8765 553.598 48.5784 552.661 48.1951L550.234 47.173ZM551.213 59.6512C547.977 64.6765 542.781 69.276 535.584 73.3644L536.009 73.9607C540.098 72.172 543.377 70.4259 545.847 68.7224C548.658 66.8059 551.256 64.6765 553.641 62.2916C553.726 62.1639 554.024 62.0787 554.535 62.0787C554.961 62.0361 555.216 61.8657 555.216 61.6102C555.216 61.4399 554.748 61.1418 553.811 60.7159C553.002 60.4603 552.15 60.0771 551.213 59.6512Z" fill="black"/>
<path d="M557.601 84.4619H566.535C566.637 84.4619 566.688 84.516 566.688 84.6242V85.7123C566.688 85.8204 566.637 85.8745 566.535 85.8745H557.601C557.5 85.8745 557.449 85.8204 557.449 85.7123V84.6242C557.449 84.516 557.5 84.4619 557.601 84.4619ZM567.719 84.4619H576.652C576.754 84.4619 576.805 84.516 576.805 84.6242V85.7123C576.805 85.8204 576.754 85.8745 576.652 85.8745H567.719C567.617 85.8745 567.566 85.8204 567.566 85.7123V84.6242C567.566 84.516 567.617 84.4619 567.719 84.4619ZM578.603 76.2221V77.4927H595.394V76.2221H578.603ZM579.776 79.4279V80.6985H594.534V79.4279H579.776ZM581.066 86.465V87.7551H593.224V86.465H581.066ZM581.086 82.2232V83.4742H592.697V88.7325H594.163V82.2232H581.086ZM580.206 82.2232V84.8035C580.206 86.8559 579.913 89.6317 577.782 91.6646C578.114 91.8601 578.701 92.3683 578.916 92.6615C581.203 90.4722 581.652 87.1882 581.652 84.823V82.2232H580.206ZM586.207 74.541V80.1316H587.693V74.541H586.207ZM586.246 82.6532V87.2469H587.673V82.6532H586.246ZM598.678 78.4701V79.897H613.202V78.4701H598.678ZM605.754 74.6192V79.0761H607.26V74.6192H605.754ZM612.733 78.4701V78.8219C610.739 82.1841 606.263 86.7973 602.334 89.1234C602.685 89.3776 603.155 89.8272 603.389 90.1399C607.435 87.6378 612.029 83.0442 614.453 79.0761L613.358 78.3723L613.065 78.4701H612.733ZM601.747 86.7582L600.496 87.286C602.334 91.3909 605.618 92.2315 610.465 92.2315H615.039C615.118 91.821 615.372 91.1368 615.587 90.785C614.688 90.8045 611.208 90.8045 610.544 90.8045C606.399 90.8045 603.194 90.1595 601.747 86.7582ZM598.796 92.5442C600.301 90.3158 601.708 87.4424 602.451 85.6244L601.024 85.0771C600.262 87.1687 598.776 89.964 597.388 91.7037L598.796 92.5442ZM617.444 75.7921V77.1799H627.511V75.7921H617.444ZM617.131 82.2427V83.6111H627.784V82.2427H617.131ZM624.227 76.1635V92.5638H625.673V76.1635H624.227ZM619.692 76.1439V82.4382C619.692 85.7222 619.418 89.0843 617.033 91.7037C617.385 91.9187 617.913 92.3879 618.147 92.6811C620.767 89.8076 621.08 86.1131 621.08 82.4382V76.1439H619.692ZM632.847 74.9124C631.655 76.4958 629.407 78.1378 627.53 79.0761C627.921 79.3497 628.351 79.7993 628.605 80.1121C630.58 79.0174 632.789 77.2777 634.235 75.4793L632.847 74.9124ZM633.434 80.288C632.124 81.9886 629.739 83.7674 627.745 84.7839C628.117 85.0576 628.547 85.5072 628.781 85.8199C630.873 84.6471 633.258 82.7705 634.763 80.8549L633.434 80.288ZM633.864 85.5854C632.398 88.0288 629.622 90.179 626.729 91.3909C627.1 91.6842 627.53 92.2119 627.765 92.5638C630.795 91.1564 633.59 88.8302 635.252 86.1327L633.864 85.5854Z" fill="#6D6D6D"/>
</svg>
