<svg width="399" height="66" viewBox="0 0 399 66" fill="none" xmlns="http://www.w3.org/2000/svg">
<rect width="399" height="66" fill="white"/>
<path d="M88.54 21.12C87.58 22.1067 86.44 23.08 85.12 24.04L84.88 23.76C86.1333 22.6667 87.3533 21.3533 88.54 19.82C88.54 18.5933 88.5133 17.5733 88.46 16.76L89.86 17.94C90.5133 16.9267 91.08 15.94 91.56 14.98H87.08C86.5333 14.98 86.08 15.0467 85.72 15.18L84.96 14.32C85.4667 14.4 86.02 14.44 86.62 14.44H91.82C92.4867 13 92.98 11.66 93.3 10.42L95.06 11.26C95.26 11.34 95.36 11.42 95.36 11.5C95.36 11.5667 95.24 11.62 95 11.66C94.88 11.7133 94.7333 11.9067 94.56 12.24L93.4 14.44H100.48L101.66 13L103.02 14.64C103.127 14.76 103.18 14.8467 103.18 14.9C103.18 14.9533 103.073 14.98 102.86 14.98H93.1C92.1 16.7533 91.0733 18.26 90.02 19.5V24.28C90.02 25.5333 90.04 26.4267 90.08 26.96L90.22 28.3C90.22 28.54 89.9867 28.8 89.52 29.08C89.0533 29.3733 88.74 29.52 88.58 29.52C88.42 29.52 88.36 29.2533 88.4 28.72C88.4933 27.7333 88.54 26.3333 88.54 24.52V21.12ZM97.06 26.98H100.52L101.78 25.44L103.26 27.2C103.34 27.3067 103.38 27.3867 103.38 27.44C103.38 27.5067 103.287 27.54 103.1 27.54H92.32C91.76 27.54 91.3067 27.6067 90.96 27.74L90.24 26.88C90.7333 26.9467 91.2867 26.98 91.9 26.98H95.54V21.28H93.22C92.6733 21.28 92.22 21.3533 91.86 21.5L91.12 20.64C91.6267 20.7067 92.18 20.74 92.78 20.74H95.54V18.92C95.54 17.8 95.5133 16.7 95.46 15.62L97.62 16.58C97.78 16.6333 97.86 16.7 97.86 16.78C97.86 16.8467 97.78 16.92 97.62 17L97.06 17.3V20.74H99.58L100.68 19.42L101.96 20.96C102.053 21.0533 102.1 21.1333 102.1 21.2C102.1 21.2533 102.007 21.28 101.82 21.28H97.06V26.98ZM108.78 15.22H107.46C106.887 15.22 106.427 15.2867 106.08 15.42L105.34 14.54C105.833 14.6067 106.387 14.64 107 14.64H109C109 12.88 108.973 11.5267 108.92 10.58L110.84 11.48C111 11.5467 111.08 11.6133 111.08 11.68C111.08 11.7467 110.987 11.8467 110.8 11.98L110.28 12.36V14.64H111.34L112.32 13.48L113.34 14.74C113.46 14.8733 113.52 14.9867 113.52 15.08C113.52 15.1733 113.407 15.22 113.18 15.22H110.28V16.98C111.027 17.1533 111.613 17.3333 112.04 17.52C112.48 17.7067 112.767 17.8867 112.9 18.06C113.033 18.22 113.1 18.44 113.1 18.72C113.1 19 113.047 19.24 112.94 19.44C112.833 19.64 112.707 19.74 112.56 19.74C112.427 19.74 112.327 19.72 112.26 19.68C112.193 19.6267 112.107 19.5 112 19.3C111.613 18.4733 111.04 17.8067 110.28 17.3C110.28 19.66 110.287 21.02 110.3 21.38C110.327 21.7267 110.34 21.94 110.34 22.02C110.34 22.26 110.147 22.4867 109.76 22.7C109.373 22.9 109.133 23 109.04 23C108.907 23 108.84 22.8467 108.84 22.54L108.94 20.5C108.98 19.6067 109 18.5267 109 17.26C108.093 19.0467 106.847 20.5667 105.26 21.82L105 21.58C106.667 19.7133 107.927 17.5933 108.78 15.22ZM120.04 21.2H115.5C115.487 21.56 115.447 21.8067 115.38 21.94C115.327 22.0733 115.147 22.2067 114.84 22.34C114.547 22.4733 114.347 22.54 114.24 22.54C114.133 22.54 114.06 22.4933 114.02 22.4C113.993 22.3067 113.993 22.12 114.02 21.84C114.127 20.7467 114.18 19.7067 114.18 18.72V14.08C114.18 13.2133 114.16 12.4 114.12 11.64L115.56 12.52H119.88L120.6 11.58L121.9 12.62C121.993 12.6733 122.04 12.7467 122.04 12.84C122.04 12.92 121.987 13 121.88 13.08L121.42 13.42V19.32C121.42 19.8 121.433 20.24 121.46 20.64L121.54 21.56C121.54 21.84 121.36 22.0533 121 22.2C120.653 22.3333 120.407 22.4 120.26 22.4C120.113 22.4 120.04 22.2333 120.04 21.9V21.2ZM115.5 15.22H120.04V13.12H115.5V15.22ZM115.5 17.84H120.04V15.78H115.5V17.84ZM115.5 20.64H120.04V18.4H115.5V20.64ZM118.56 23.98C118.547 25.0333 118.593 25.7667 118.7 26.18C118.82 26.6067 118.98 26.8733 119.18 26.98C119.393 27.0867 119.5 27.1867 119.5 27.28C119.5 27.3733 119.44 27.5 119.32 27.66C119.2 27.8333 119.013 27.9933 118.76 28.14C118.507 28.3 118.22 28.4067 117.9 28.46C117.58 28.5267 116.98 28.5733 116.1 28.6C115.233 28.64 114.3 28.66 113.3 28.66C112.313 28.66 111.633 28.6267 111.26 28.56C110.887 28.4933 110.6 28.34 110.4 28.1C110.213 27.86 110.12 27.54 110.12 27.14V24.66C110.12 23.8867 110.093 23.2267 110.04 22.68L111.86 23.58C112.02 23.6467 112.1 23.72 112.1 23.8C112.1 23.88 112.02 23.9733 111.86 24.08L111.52 24.34V26.86C111.52 27.0867 111.567 27.2333 111.66 27.3C111.753 27.3667 112.087 27.4067 112.66 27.42C113.247 27.4467 113.827 27.46 114.4 27.46C116.12 27.46 117.12 27.3533 117.4 27.14C117.693 26.9267 117.953 25.8733 118.18 23.98H118.56ZM113.06 22.8C113.873 22.9867 114.5 23.16 114.94 23.32C115.38 23.4667 115.673 23.6267 115.82 23.8C115.98 23.96 116.06 24.1933 116.06 24.5C116.06 24.7933 115.993 25.0467 115.86 25.26C115.727 25.46 115.54 25.56 115.3 25.56C115.06 25.56 114.853 25.36 114.68 24.96C114.347 24.2267 113.78 23.5933 112.98 23.06L113.06 22.8ZM119.38 23C120.5 23.6267 121.38 24.2133 122.02 24.76C122.673 25.3067 123 25.8467 123 26.38C123 26.7 122.9 27.0133 122.7 27.32C122.5 27.6267 122.307 27.78 122.12 27.78C121.933 27.78 121.807 27.7333 121.74 27.64C121.687 27.56 121.633 27.4133 121.58 27.2C121.367 26.3467 121.053 25.6267 120.64 25.04C120.24 24.44 119.733 23.8467 119.12 23.26L119.38 23ZM108.02 23.48C108.087 24.12 108.12 24.76 108.12 25.4C108.12 26.04 107.98 26.6733 107.7 27.3C107.433 27.9267 107.047 28.24 106.54 28.24C106.3 28.24 106.087 28.1667 105.9 28.02C105.713 27.8867 105.62 27.7133 105.62 27.5C105.62 27.2867 105.72 27.08 105.92 26.88C106.547 26.2267 106.967 25.7067 107.18 25.32C107.393 24.92 107.567 24.3067 107.7 23.48H108.02ZM139.9 27.18H128.16V28.14C128.16 28.3533 128.093 28.5067 127.96 28.6C127.84 28.7067 127.647 28.8133 127.38 28.92C127.127 29.04 126.94 29.1 126.82 29.1C126.58 29.1 126.493 28.88 126.56 28.44C126.693 27.1733 126.76 25.7267 126.76 24.1V13.94C126.76 12.7533 126.733 11.8467 126.68 11.22L128.1 12.1H139.66L140.34 11.26L141.86 12.3C141.967 12.3533 142.02 12.42 142.02 12.5C142.02 12.5667 141.96 12.64 141.84 12.72L141.3 13.1V23.78C141.3 24.6867 141.327 25.5133 141.38 26.26L141.5 27.96C141.5 28.12 141.3 28.32 140.9 28.56C140.5 28.8 140.233 28.92 140.1 28.92C139.967 28.92 139.9 28.8267 139.9 28.64V27.18ZM128.16 26.62H139.9V12.64H128.16V26.62ZM133.1 23.76V19.32H131.22C130.647 19.32 130.207 19.3867 129.9 19.52L129.2 18.68C129.693 18.7467 130.233 18.78 130.82 18.78H133.1V15.48H130.5C130.02 15.48 129.58 15.5467 129.18 15.68L128.5 14.86C129.02 14.9133 129.56 14.94 130.12 14.94H136.96L138 13.68L139.18 15.06C139.287 15.1933 139.34 15.3 139.34 15.38C139.34 15.4467 139.247 15.48 139.06 15.48H134.38V18.78H136.12L137.14 17.6L138.24 18.92C138.36 19.0533 138.42 19.1533 138.42 19.22C138.42 19.2867 138.313 19.32 138.1 19.32H134.38V23.76H137.24L138.34 22.46L139.54 23.88C139.633 24.0133 139.68 24.12 139.68 24.2C139.68 24.2667 139.587 24.3 139.4 24.3H130.34C129.807 24.3 129.367 24.36 129.02 24.48L128.32 23.66C128.84 23.7267 129.373 23.76 129.92 23.76H133.1ZM135.04 19.92C135.587 20.0667 136.08 20.2533 136.52 20.48C136.96 20.7067 137.253 20.9133 137.4 21.1C137.56 21.2733 137.64 21.4933 137.64 21.76C137.64 22.0133 137.56 22.2667 137.4 22.52C137.24 22.76 137.06 22.88 136.86 22.88C136.7 22.88 136.547 22.6733 136.4 22.26C136.147 21.5533 135.653 20.8467 134.92 20.14L135.04 19.92ZM154.26 12.12C153.007 14.2667 151.627 16.0667 150.12 17.52C148.613 18.96 146.8 20.22 144.68 21.3L144.46 21.02C146.433 19.7667 148.18 18.2267 149.7 16.4C151.233 14.5733 152.407 12.5933 153.22 10.46L154.76 11.3C154.947 11.4067 155.04 11.4867 155.04 11.54C155.04 11.5933 154.967 11.6533 154.82 11.72C154.673 11.7733 154.587 11.8067 154.56 11.82C156.427 15.4067 159.287 17.6067 163.14 18.42L163.12 18.68C162.4 18.8 161.913 19.18 161.66 19.82C161.62 19.94 161.553 20 161.46 20C161.273 20 160.6 19.6133 159.44 18.84C158.28 18.0667 157.273 17.1533 156.42 16.1C155.567 15.0333 154.847 13.7067 154.26 12.12ZM149.36 27.42V22.88C149.36 21.8133 149.327 20.7533 149.26 19.7L151.12 20.4C151.28 20.4533 151.36 20.5133 151.36 20.58C151.36 20.6467 151.313 20.7133 151.22 20.78L150.76 21.08V27.42H153.86V19.62C153.86 18.6733 153.833 17.5933 153.78 16.38L155.74 17.22C155.9 17.3 155.98 17.38 155.98 17.46C155.98 17.5267 155.92 17.6133 155.8 17.72L155.28 18.12V21.54H157.72L158.76 20.3L159.9 21.66C160.033 21.82 160.1 21.94 160.1 22.02C160.1 22.0867 159.98 22.12 159.74 22.12H155.28V27.42H159.76L161.02 25.94L162.42 27.68C162.527 27.7867 162.58 27.8733 162.58 27.94C162.58 28.02 162.473 28.06 162.26 28.06H147.04C146.507 28.06 146.06 28.1333 145.7 28.28L144.98 27.3C145.46 27.38 146 27.42 146.6 27.42H149.36ZM178.08 16.9C179.52 17.5267 180.66 18.1533 181.5 18.78C182.353 19.3933 182.78 20.1133 182.78 20.94C182.78 21.3667 182.707 21.7133 182.56 21.98C182.427 22.2333 182.24 22.36 182 22.36C181.76 22.36 181.54 22.08 181.34 21.52C181.153 20.9467 180.773 20.28 180.2 19.52C179.64 18.7467 178.933 18.0133 178.08 17.32V24.46C178.08 25.7533 178.087 26.68 178.1 27.24C178.127 27.8 178.14 28.1067 178.14 28.16C178.14 28.4267 177.92 28.66 177.48 28.86C177.04 29.0733 176.767 29.18 176.66 29.18C176.553 29.18 176.5 29.06 176.5 28.82L176.6 26.82C176.653 25.9667 176.68 25.0267 176.68 24V13.68C176.68 12.5067 176.647 11.4133 176.58 10.4L178.6 11.38C178.8 11.4867 178.9 11.5667 178.9 11.62C178.9 11.6733 178.88 11.7133 178.84 11.74C178.813 11.7667 178.753 11.8133 178.66 11.88L178.08 12.32V16.9ZM168.26 18.76C167.46 20.1333 166.567 21.3267 165.58 22.34L165.24 22.16C166.267 20.6667 167.207 18.86 168.06 16.74C168.913 14.62 169.527 12.56 169.9 10.56L171.78 11.56C171.9 11.6267 171.96 11.7133 171.96 11.82C171.96 11.9133 171.853 12.0067 171.64 12.1C171.44 12.18 171.273 12.3 171.14 12.46C171.02 12.62 170.86 12.96 170.66 13.48C170.473 14 170.24 14.5867 169.96 15.24H173.16L173.94 14.24L175.24 15.54C175.373 15.6733 175.44 15.8 175.44 15.92C175.44 16.0267 175.34 16.0933 175.14 16.12C174.7 16.1867 174.387 16.58 174.2 17.3C173.48 20.1667 172.387 22.4533 170.92 24.16C169.467 25.8533 167.533 27.2533 165.12 28.36L164.94 28.1C169.38 25.5267 172.113 21.4467 173.14 15.86H169.7C169.327 16.7133 168.913 17.5467 168.46 18.36C169.54 18.6667 170.26 18.9467 170.62 19.2C170.98 19.4533 171.16 19.7733 171.16 20.16C171.16 20.5467 171.1 20.86 170.98 21.1C170.873 21.34 170.74 21.46 170.58 21.46C170.433 21.46 170.293 21.3267 170.16 21.06C169.707 20.14 169.073 19.3733 168.26 18.76ZM194.26 12.12C193.007 14.2667 191.627 16.0667 190.12 17.52C188.613 18.96 186.8 20.22 184.68 21.3L184.46 21.02C186.433 19.7667 188.18 18.2267 189.7 16.4C191.233 14.5733 192.407 12.5933 193.22 10.46L194.76 11.3C194.947 11.4067 195.04 11.4867 195.04 11.54C195.04 11.5933 194.967 11.6533 194.82 11.72C194.673 11.7733 194.587 11.8067 194.56 11.82C196.427 15.4067 199.287 17.6067 203.14 18.42L203.12 18.68C202.4 18.8 201.913 19.18 201.66 19.82C201.62 19.94 201.553 20 201.46 20C201.273 20 200.6 19.6133 199.44 18.84C198.28 18.0667 197.273 17.1533 196.42 16.1C195.567 15.0333 194.847 13.7067 194.26 12.12ZM189.36 27.42V22.88C189.36 21.8133 189.327 20.7533 189.26 19.7L191.12 20.4C191.28 20.4533 191.36 20.5133 191.36 20.58C191.36 20.6467 191.313 20.7133 191.22 20.78L190.76 21.08V27.42H193.86V19.62C193.86 18.6733 193.833 17.5933 193.78 16.38L195.74 17.22C195.9 17.3 195.98 17.38 195.98 17.46C195.98 17.5267 195.92 17.6133 195.8 17.72L195.28 18.12V21.54H197.72L198.76 20.3L199.9 21.66C200.033 21.82 200.1 21.94 200.1 22.02C200.1 22.0867 199.98 22.12 199.74 22.12H195.28V27.42H199.76L201.02 25.94L202.42 27.68C202.527 27.7867 202.58 27.8733 202.58 27.94C202.58 28.02 202.473 28.06 202.26 28.06H187.04C186.507 28.06 186.06 28.1333 185.7 28.28L184.98 27.3C185.46 27.38 186 27.42 186.6 27.42H189.36ZM214.1 17.58C213.833 19.7 213.387 21.4533 212.76 22.84C212.147 24.2133 211.16 25.44 209.8 26.52C208.453 27.6133 206.9 28.4267 205.14 28.96L205.02 28.6C207.393 27.44 209.227 25.9267 210.52 24.06C211.813 22.18 212.54 20.02 212.7 17.58H207.54C206.98 17.58 206.527 17.6533 206.18 17.8L205.44 16.92C205.947 16.9867 206.507 17.02 207.12 17.02H212.74C212.82 15.8733 212.86 14.7333 212.86 13.6C212.86 12.4533 212.847 11.3733 212.82 10.36L214.98 11.26C215.207 11.3533 215.32 11.44 215.32 11.52C215.32 11.5867 215.227 11.6733 215.04 11.78C214.867 11.8733 214.747 12.0067 214.68 12.18C214.613 12.3533 214.54 12.9733 214.46 14.04C214.38 15.1067 214.287 16.1 214.18 17.02H219.88L221.2 15.42L222.72 17.24C222.813 17.3333 222.86 17.4133 222.86 17.48C222.86 17.5467 222.767 17.58 222.58 17.58H215.1C216.047 22.7133 218.673 25.7667 222.98 26.74L222.96 27.08C222.587 27.1067 222.227 27.2267 221.88 27.44C221.533 27.6533 221.293 27.8733 221.16 28.1C221.027 28.34 220.907 28.46 220.8 28.46C220.613 28.46 219.92 27.9533 218.72 26.94C217.52 25.94 216.6 24.7533 215.96 23.38C215.32 21.9933 214.88 20.06 214.64 17.58H214.1ZM229.1 13.08V17.78C229.1 20.8333 228.8 23.14 228.2 24.7C227.6 26.2467 226.553 27.6467 225.06 28.9L224.86 28.66C225.807 27.3667 226.493 26.02 226.92 24.62C227.347 23.2067 227.56 20.9133 227.56 17.74V13.66C227.56 12.9667 227.533 12.26 227.48 11.54L228.92 12.52H239.88L241.38 10.76L242.92 12.62C243.053 12.7533 243.12 12.8667 243.12 12.96C243.12 13.04 243.013 13.08 242.8 13.08H229.1ZM263.12 19.56C262.72 19.6 262.4 19.7067 262.16 19.88C261.933 20.04 261.72 20.3533 261.52 20.82C261.467 20.9133 261.4 20.96 261.32 20.96C261.133 20.96 260.513 20.56 259.46 19.76C258.42 18.96 257.56 17.9133 256.88 16.62C256.213 15.3133 255.713 13.4267 255.38 10.96L257.06 11.48C257.247 11.52 257.34 11.5867 257.34 11.68C257.34 11.76 257.287 11.84 257.18 11.92L256.58 12.34C256.7 14.0867 257.36 15.5933 258.56 16.86C259.773 18.1267 261.293 18.9333 263.12 19.28V19.56ZM250.68 11.86L252.5 12.9C252.673 12.9933 252.76 13.1 252.76 13.22C252.76 13.3267 252.687 13.38 252.54 13.38C252.087 13.38 251.747 13.6133 251.52 14.08C250.387 16.3333 249.393 17.9067 248.54 18.8C247.687 19.68 246.54 20.6267 245.1 21.64L244.86 21.36C246.407 19.9333 247.627 18.4867 248.52 17.02C249.427 15.54 250.147 13.82 250.68 11.86ZM258.08 26.76L251.44 27.48C249.4 27.72 248.18 27.9467 247.78 28.16C247.687 28.2133 247.6 28.24 247.52 28.24C247.44 28.24 247.367 28.1733 247.3 28.04L246.66 26.48C247.327 26.3733 247.807 26.2467 248.1 26.1C248.393 25.9667 248.733 25.66 249.12 25.18C249.507 24.7 250.04 23.8333 250.72 22.58C251.4 21.3133 252.033 19.96 252.62 18.52L254.12 19.58C254.307 19.7133 254.4 19.8067 254.4 19.86C254.4 19.9133 254.32 19.9667 254.16 20.02C254.013 20.06 253.84 20.18 253.64 20.38C253.44 20.5667 253.267 20.7733 253.12 21C252.613 21.7733 251.947 22.72 251.12 23.84C250.293 24.9467 249.613 25.8 249.08 26.4L257.9 26.26C257.54 25.34 256.653 23.94 255.24 22.06L255.4 21.78C256.84 22.94 257.987 23.96 258.84 24.84C259.693 25.7067 260.12 26.4667 260.12 27.12C260.12 27.44 260.027 27.8067 259.84 28.22C259.653 28.6333 259.387 28.84 259.04 28.84C258.707 28.84 258.487 28.56 258.38 28C258.273 27.44 258.173 27.0267 258.08 26.76ZM270.58 14.5C269.38 16.1667 267.813 17.64 265.88 18.92L265.66 18.72C268.047 16.4133 269.913 13.6267 271.26 10.36L272.9 11.1C273.087 11.18 273.18 11.26 273.18 11.34C273.18 11.42 273.087 11.4933 272.9 11.56C272.727 11.6267 272.573 11.7267 272.44 11.86C272.307 11.98 272.193 12.12 272.1 12.28C272.007 12.4267 271.86 12.6533 271.66 12.96H276.68L277.58 11.96L279.18 13.18C279.327 13.3 279.4 13.4133 279.4 13.52C279.4 13.6133 279.247 13.6933 278.94 13.76C278.647 13.8267 278.347 14.0133 278.04 14.32C276.773 15.5867 275.66 16.5867 274.7 17.32C276.5 18.3067 279.24 18.8267 282.92 18.88V19.18C282.253 19.4333 281.86 19.8333 281.74 20.38C281.7 20.5267 281.613 20.6 281.48 20.6C281.227 20.6 280.173 20.3667 278.32 19.9C276.467 19.4333 274.967 18.7933 273.82 17.98C271.06 20.02 267.993 21.2733 264.62 21.74L264.56 21.42C268.187 20.2867 270.967 18.9 272.9 17.26C272.207 16.62 271.433 15.7 270.58 14.5ZM271.32 13.48C271.2 13.64 271.08 13.8067 270.96 13.98C271.867 15.1267 272.753 16.0133 273.62 16.64C274.567 15.8267 275.607 14.7733 276.74 13.48H271.32ZM273.2 22H277.18L277.96 20.96L279.4 22.14C279.533 22.2333 279.6 22.32 279.6 22.4C279.6 22.44 279.527 22.5 279.38 22.58L278.84 22.9C278.493 24.8067 278.227 26.1 278.04 26.78C277.867 27.46 277.427 27.9667 276.72 28.3C276.013 28.6467 275.573 28.82 275.4 28.82C275.293 28.82 275.207 28.72 275.14 28.52C275.033 28.0533 274.867 27.7333 274.64 27.56C274.413 27.3867 273.893 27.2067 273.08 27.02L273.12 26.66C274.133 26.8067 274.86 26.88 275.3 26.88C275.753 26.88 276.067 26.7933 276.24 26.62C276.427 26.46 276.633 25.9333 276.86 25.04C277.087 24.1467 277.233 23.3067 277.3 22.52H273.04C272.507 24.3733 271.633 25.7867 270.42 26.76C269.207 27.7333 267.393 28.46 264.98 28.94L264.82 28.66C266.86 27.9533 268.387 27.1333 269.4 26.2C270.427 25.28 271.16 24.0533 271.6 22.52H268.18C267.62 22.52 267.167 22.5933 266.82 22.74L266.12 21.9C266.627 21.9667 267.18 22 267.78 22H271.76C271.96 21.24 272.133 20.32 272.28 19.24L273.92 19.88C274.08 19.96 274.16 20.0467 274.16 20.14C274.16 20.22 274.06 20.3 273.86 20.38C273.66 20.4733 273.52 20.7067 273.44 21.08C273.36 21.44 273.28 21.7467 273.2 22ZM297.74 16H290.82V16.48C290.82 16.7067 290.78 16.8733 290.7 16.98C290.633 17.0867 290.44 17.2133 290.12 17.36C289.813 17.4933 289.6 17.56 289.48 17.56C289.36 17.56 289.3 17.44 289.3 17.2L289.36 16.04C289.373 15.5867 289.38 15.0133 289.38 14.32V13C289.38 11.9867 289.373 11.3667 289.36 11.14L290.9 12.06H297.5L298.28 11.14L299.78 12.26C299.873 12.3533 299.92 12.4267 299.92 12.48C299.92 12.5333 299.873 12.5933 299.78 12.66L299.26 12.96V14.58L299.36 16.24C299.36 16.4667 299.147 16.6667 298.72 16.84C298.307 17.0133 298.04 17.1 297.92 17.1C297.8 17.1 297.74 17.0267 297.74 16.88V16ZM290.82 15.44H297.74V12.64H290.82V15.44ZM289.6 18.88V24.66C289.6 24.8333 289.54 24.96 289.42 25.04C289.313 25.12 289.107 25.2267 288.8 25.36C288.493 25.4933 288.287 25.56 288.18 25.56C288.087 25.56 288.04 25.4533 288.04 25.24L288.14 23.2V19.26C288.14 18.7267 288.113 18.1067 288.06 17.4L289.62 18.32H298.56L299.24 17.36L300.84 18.44C300.96 18.5467 301.02 18.6267 301.02 18.68C301.02 18.7333 300.96 18.8067 300.84 18.9L300.34 19.22V22.2C300.34 22.7067 300.353 23.12 300.38 23.44C300.42 23.7467 300.44 23.9267 300.44 23.98C300.44 24.1667 300.22 24.36 299.78 24.56C299.34 24.7467 299.067 24.84 298.96 24.84C298.867 24.84 298.82 24.7533 298.82 24.58V18.88H289.6ZM293.12 19.58L295.08 20.24C295.267 20.2933 295.36 20.3533 295.36 20.42C295.36 20.4867 295.287 20.5533 295.14 20.62C294.833 20.7667 294.667 21.04 294.64 21.44C294.573 22.7333 294.3 23.94 293.82 25.06C293.34 26.18 292.28 27.1067 290.64 27.84C289.013 28.5867 287.16 29 285.08 29.08L284.98 28.78C287.273 28.34 289.06 27.7333 290.34 26.96C291.62 26.1867 292.413 25.1467 292.72 23.84C293.027 22.52 293.16 21.1 293.12 19.58ZM294.66 24.64C299.167 25.5067 301.42 26.5133 301.42 27.66C301.42 28.0333 301.36 28.3267 301.24 28.54C301.133 28.7667 300.967 28.88 300.74 28.88C300.527 28.88 300.24 28.6733 299.88 28.26C299.24 27.5 298.487 26.88 297.62 26.4C296.767 25.92 295.727 25.4533 294.5 25L294.66 24.64Z" fill="#242424"/>
<path d="M118.78 38.5C118.78 38.72 118.58 39.02 118.22 39.42C118.08 39.56 117.86 39.9 117.56 40.42C115.52 44.04 114 47.58 113.02 51.02C112.9 51.46 112.84 51.7 112.84 51.76C112.84 52 112.88 52.22 112.98 52.46C112.96 52.94 112.72 53.18 112.28 53.18C111.8 53.18 111.58 52.84 111.58 52.18C111.58 51.2 112.06 49.52 113.02 47.16C112.64 46.44 112.28 45.68 111.92 44.84C111.4 43.64 111 42.76 110.7 42.16C110.18 41.12 109.64 40.24 109.08 39.54C108.76 39.16 108.6 38.86 108.6 38.62C108.6 38.46 108.66 38.32 108.8 38.2C108.92 38.08 109.04 38 109.2 38C109.44 38 109.76 38.26 110.12 38.76C111.32 40.48 112.5 42.78 113.64 45.7C114.82 42.9 115.86 40.78 116.74 39.32C117.34 38.36 117.8 37.86 118.16 37.86C118.56 37.86 118.78 38.08 118.78 38.5ZM126.486 47.58C126.486 48.36 126.386 49 126.186 49.5C126.126 49.66 126.046 49.9 125.926 50.22C125.726 50.76 125.366 51.24 124.806 51.68C124.246 52.12 123.726 52.36 123.206 52.36C122.366 52.36 121.686 52 121.166 51.24C120.666 50.58 120.426 49.8 120.426 48.9C120.426 48.08 120.626 47.26 121.026 46.46C121.446 45.6 121.986 45 122.666 44.64C123.026 44.46 123.286 44.28 123.446 44.08C123.526 44.06 123.626 44.04 123.726 44.04C123.766 44.04 123.926 44.08 124.166 44.16C124.846 44.42 125.406 44.86 125.846 45.5C126.266 46.14 126.486 46.84 126.486 47.58ZM125.326 47.88C125.326 46.94 125.046 46.3 124.526 45.94C124.206 45.94 123.926 45.86 123.726 45.74C123.026 45.78 122.486 46.14 122.086 46.82C121.746 47.42 121.586 48.12 121.586 48.9C121.586 49.52 121.726 50.02 122.026 50.42C122.326 50.86 122.706 51.06 123.186 51.06C123.706 51.06 124.186 50.68 124.666 49.92C125.106 49.22 125.326 48.54 125.326 47.88ZM136.552 45.1C136.552 45.32 136.492 45.54 136.412 45.76C136.192 46.38 135.952 47.7 135.692 49.7C135.632 50.14 135.612 50.44 135.612 50.6C135.612 50.72 135.632 50.92 135.672 51.2C135.712 51.52 135.752 51.7 135.752 51.74C135.752 52.26 135.492 52.54 135.012 52.54C134.852 52.54 134.692 52.48 134.552 52.38C134.392 52.26 134.312 52.14 134.312 51.98C134.312 51.84 134.352 51.7 134.452 51.56C134.492 50.42 134.612 49.34 134.812 48.32C132.612 50.92 131.012 52.22 130.012 52.22C129.572 52.22 129.212 52.1 128.952 51.86C128.672 51.62 128.532 51.3 128.532 50.9C128.532 50.52 128.652 49.68 128.932 48.4C129.192 47.04 129.332 46.08 129.332 45.52C129.332 45.48 129.332 45.42 129.332 45.3C129.312 45.22 129.312 45.14 129.312 45.1C129.312 44.94 129.372 44.8 129.492 44.64C129.612 44.5 129.752 44.42 129.912 44.42C130.232 44.42 130.412 44.78 130.412 45.5C130.412 45.94 130.212 47.24 129.832 49.4C129.732 49.96 129.692 50.3 129.692 50.42C129.692 50.7 129.792 50.84 129.992 50.84C130.772 50.84 131.772 50.14 132.972 48.7C133.852 47.66 134.712 46.4 135.592 44.9C135.732 44.66 135.872 44.54 136.032 44.54C136.372 44.54 136.552 44.74 136.552 45.1ZM145.22 44.94C145.22 45.16 145 45.36 144.58 45.54C144.22 45.7 143.96 45.78 143.76 45.78C143.72 45.78 143.6 45.74 143.36 45.66C141.64 46.46 140.6 48.12 140.28 50.68C140.1 52.02 139.88 52.7 139.62 52.7C139.4 52.7 139.22 52.56 139.06 52.32C138.9 52.08 138.82 51.86 138.82 51.58C138.86 51.38 138.94 51.04 139.04 50.54C139.14 49.94 139.2 49.38 139.2 48.86C139.2 48.28 139.12 47.7 139 47.12C138.76 46.88 138.64 46.6 138.6 46.32C138.5 45.78 138.46 45.34 138.46 45.02C138.46 44.9 138.5 44.76 138.6 44.6C138.68 44.44 138.76 44.36 138.86 44.36C139.3 44.36 139.6 44.74 139.76 45.46C139.92 46.22 140.04 46.78 140.12 47.18C140.6 46.28 141.22 45.52 142.02 44.9C142.78 44.3 143.56 44 144.36 44C144.56 44 144.76 44.1 144.96 44.3C145.12 44.5 145.2 44.72 145.22 44.94ZM160.308 50.28C160.308 50.62 160.188 50.9 159.968 51.12C159.208 51.92 158.008 52.32 156.328 52.32C154.008 52.32 152.848 50.88 152.848 48C152.848 46.8 153.048 45.18 153.488 43.1C153.888 41.18 154.348 39.56 154.828 38.24C155.088 37.52 155.388 37.14 155.728 37.14C156.108 37.14 156.308 37.34 156.308 37.72C156.308 37.84 156.168 38.32 155.908 39.16C154.708 43 154.108 45.94 154.108 47.94C154.108 49.06 154.268 49.84 154.608 50.3C154.928 50.74 155.508 50.96 156.368 50.96C157.228 50.96 158.128 50.72 159.088 50.2C159.168 49.88 159.388 49.7 159.708 49.7C160.108 49.7 160.308 49.9 160.308 50.28ZM165.63 37.88C165.63 38.64 165.41 39.04 164.97 39.08C164.19 38.94 163.81 38.52 163.81 37.82C163.81 37.7 163.79 37.58 163.79 37.44C163.83 37 164.11 36.7 164.63 36.52C165.29 36.6 165.63 37.04 165.63 37.88ZM164.55 45.42C164.45 45.82 164.33 46.26 164.19 46.78C163.73 48.66 163.51 50.12 163.51 51.16C163.77 51.44 163.91 51.76 163.91 52.08C163.91 52.36 163.77 52.5 163.53 52.5C163.21 52.5 162.93 52.24 162.67 51.74C162.47 51.34 162.37 50.84 162.37 50.2C162.37 49.68 162.63 48.06 163.19 45.3C163.15 45.06 163.13 44.9 163.13 44.84C163.13 44.66 163.23 44.5 163.43 44.38C164.17 44.42 164.55 44.78 164.55 45.42ZM175.962 37.56C175.962 37.92 175.822 38.18 175.542 38.34C174.142 38.48 173.062 39.14 172.342 40.3C171.342 41.9 170.702 44 170.402 46.62C171.142 46.46 172.302 46.18 173.882 45.8C174.282 45.72 174.682 45.66 175.082 45.66C175.502 45.66 175.722 45.88 175.722 46.3C175.722 46.56 175.602 46.76 175.382 46.88C175.142 47.04 174.922 47.12 174.682 47.12C174.562 47.12 174.462 47.1 174.342 47.06C173.542 47.2 172.162 47.5 170.242 47.94C169.802 51.82 169.242 54.46 168.522 55.86C168.242 56.34 168.002 56.6 167.802 56.6C167.602 56.6 167.422 56.5 167.282 56.32C167.122 56.12 167.062 55.94 167.062 55.74C167.062 55.54 167.102 55.4 167.182 55.32C167.262 55.22 167.362 55.12 167.482 55.02C168.062 54.46 168.582 52.2 169.062 48.22C168.322 48.4 167.842 48.48 167.642 48.48C167.482 48.48 167.342 48.42 167.222 48.3C167.102 48.18 167.062 48.02 167.062 47.86C167.062 47.42 167.242 47.18 167.642 47.18C167.822 47.18 168.122 47.14 168.522 47.06C168.622 47.04 168.862 46.98 169.222 46.88C169.702 42.72 170.842 39.84 172.622 38.28C172.882 38.04 173.302 37.8 173.902 37.52C174.462 37.24 174.882 37.1 175.202 37.1C175.702 37.1 175.962 37.26 175.962 37.56ZM184.08 51.82C184.08 52.34 183.46 52.62 182.26 52.62C180.7 52.62 179.58 51.88 178.9 50.4C178.74 50.44 178.54 50.46 178.34 50.46C177.64 50.46 177.08 50.34 176.68 50.08C176.18 49.8 175.94 49.5 175.94 49.18C175.94 48.74 176.14 48.52 176.54 48.52C176.6 48.52 176.8 48.64 177.14 48.88C177.48 49.1 177.82 49.2 178.16 49.2C178.28 49.2 178.42 49.2 178.54 49.18C178.48 48.86 178.46 48.56 178.46 48.26C178.46 47.3 178.7 46.36 179.18 45.46C179.72 44.44 180.4 43.92 181.22 43.92C181.72 43.92 182.22 44.2 182.74 44.72C183.1 45.12 183.3 45.58 183.3 46.1C183.3 46.9 182.96 47.66 182.3 48.42C181.7 49.12 180.96 49.66 180.08 50.04C180.48 50.88 181.1 51.3 181.98 51.3C182.16 51.3 182.44 51.28 182.82 51.2C183.18 51.16 183.4 51.14 183.5 51.14C183.66 51.14 183.78 51.22 183.9 51.36C184.02 51.52 184.08 51.66 184.08 51.82ZM182.12 46.2C182.12 45.96 182 45.74 181.8 45.54C181.58 45.36 181.36 45.26 181.14 45.26C180.74 45.26 180.4 45.58 180.12 46.18C179.84 46.78 179.7 47.42 179.7 48.06C179.7 48.3 179.72 48.58 179.76 48.86C180.4 48.58 180.96 48.2 181.42 47.7C181.88 47.24 182.12 46.74 182.12 46.2ZM188.123 51.28C188.123 51.68 187.843 52.36 187.283 53.36C186.523 54.76 185.843 55.76 185.283 56.4C185.123 56.52 184.983 56.6 184.823 56.6C184.482 56.6 184.302 56.4 184.302 56.04C184.302 55.84 184.382 55.64 184.522 55.48C185.143 54.76 185.763 53.8 186.363 52.64C186.463 51.28 186.843 50.58 187.523 50.58C187.923 50.58 188.123 50.82 188.123 51.28ZM205.555 53.7C205.475 54.16 205.255 54.4 204.895 54.4C204.655 54.4 204.435 54.28 204.255 54.08C203.095 52.62 202.295 49.84 201.875 45.72C201.755 44.66 201.575 43.06 201.335 40.94C200.895 41.92 200.295 43.66 199.515 46.14C199.315 46.76 199.155 47.28 199.055 47.68C198.995 47.94 198.935 48.18 198.895 48.42C198.775 48.66 198.595 48.78 198.355 48.78C197.675 48.78 196.715 47.54 195.515 45.02C194.875 43.74 194.295 42.08 193.815 40.04C193.275 41.56 192.915 43.04 192.735 44.52C192.535 45.88 192.455 47.64 192.455 49.8C192.455 50.64 192.215 51.04 191.775 51.04C191.195 51.04 190.915 50.04 190.915 48C190.915 47.42 190.975 46.42 191.135 45.02C191.255 43.88 191.335 42.94 191.335 42.18C191.335 42.04 191.315 41.84 191.315 41.56C191.295 41.28 191.295 41.08 191.295 40.92C191.295 40.52 191.455 40.32 191.815 40.32C192.015 40.32 192.215 40.42 192.375 40.62C192.795 39.32 193.155 38.48 193.475 38.08C193.595 37.9 193.795 37.8 194.035 37.8C194.335 37.8 194.575 38.18 194.775 38.94C195.655 42.7 196.735 45.38 198.015 46.98C198.775 44.38 199.615 42.06 200.535 40C200.855 39.3 201.155 38.94 201.435 38.94C201.915 38.94 202.255 39.58 202.435 40.86C202.555 41.78 202.735 43 202.955 44.56C203.195 46.74 203.355 48.04 203.435 48.46C203.695 50.02 204.075 51.24 204.575 52.14C204.855 52.22 205.075 52.46 205.215 52.84C205.215 52.88 205.295 53.02 205.415 53.28C205.495 53.48 205.555 53.62 205.555 53.7ZM213.439 48.68C213.439 51.64 212.719 53.74 211.279 55.02C210.079 56.06 208.519 56.6 206.619 56.6C205.519 56.6 204.959 56.3 204.959 55.7C204.959 55.32 205.159 55.12 205.519 55.1C206.039 55.16 206.399 55.2 206.599 55.2C209.759 55.2 211.599 53.74 212.099 50.84C212.219 50.12 212.279 49.16 212.279 47.94C211.919 48.7 211.479 49.36 210.939 49.92C210.279 50.62 209.639 50.96 208.999 50.96C208.439 50.96 207.999 50.78 207.699 50.38C207.359 50.02 207.199 49.52 207.199 48.9C207.199 48.46 207.239 47.8 207.359 46.88C207.439 45.96 207.499 45.3 207.499 44.86C207.499 44.7 207.459 44.5 207.399 44.26C207.319 44.02 207.299 43.86 207.299 43.8C207.299 43.46 207.499 43.28 207.939 43.28C208.199 43.28 208.399 43.46 208.539 43.82C208.659 44.18 208.739 44.56 208.739 45C208.739 45.44 208.679 46.14 208.559 47.06C208.439 48 208.379 48.66 208.379 49.04C208.379 49.2 208.439 49.36 208.579 49.48C208.699 49.6 208.859 49.66 209.019 49.66C209.499 49.66 210.019 49.34 210.579 48.66C211.119 48 211.599 47.14 212.019 46.08C212.219 45.54 212.459 45.26 212.779 45.26C213.219 45.26 213.439 45.84 213.439 47V48.68ZM231.561 42.5C231.561 44.28 230.941 46.06 229.721 47.84C228.521 49.52 227.121 50.74 225.521 51.5C224.721 51.9 224.241 52.08 224.081 52.08C224.001 52.08 223.901 52.06 223.741 52.04C223.581 52.04 223.501 52.04 223.461 52.04H222.581C222.121 52.04 221.901 51.84 221.901 51.4C221.901 51.24 221.961 51.08 222.081 50.94C222.181 50.82 222.301 50.74 222.461 50.74C222.841 50.74 223.121 50.76 223.281 50.8C223.281 50.72 223.261 50.32 223.261 49.56C223.221 48.76 223.221 48.2 223.221 47.88C223.201 47.16 223.181 45.66 223.141 43.36C223.101 41.36 223.081 40.28 223.081 40.12C222.641 39.94 222.441 39.7 222.441 39.42C222.441 38.98 222.801 38.56 223.541 38.14C224.461 37.62 225.461 37.34 226.541 37.34C227.941 37.34 229.121 37.84 230.101 38.8C231.061 39.8 231.561 41.04 231.561 42.5ZM230.401 42.52C230.401 41.32 230.021 40.38 229.281 39.7C228.561 39.02 227.621 38.68 226.481 38.68C225.721 38.68 224.941 38.88 224.181 39.26C224.261 40.82 224.321 42.04 224.321 42.96C224.321 44.88 224.361 47.44 224.461 50.6C226.101 49.84 227.481 48.76 228.581 47.34C229.781 45.8 230.401 44.2 230.401 42.52ZM240.649 44.94C240.649 45.16 240.429 45.36 240.009 45.54C239.649 45.7 239.389 45.78 239.189 45.78C239.149 45.78 239.029 45.74 238.789 45.66C237.069 46.46 236.029 48.12 235.709 50.68C235.529 52.02 235.309 52.7 235.049 52.7C234.829 52.7 234.649 52.56 234.489 52.32C234.329 52.08 234.249 51.86 234.249 51.58C234.289 51.38 234.369 51.04 234.469 50.54C234.569 49.94 234.629 49.38 234.629 48.86C234.629 48.28 234.549 47.7 234.429 47.12C234.189 46.88 234.069 46.6 234.029 46.32C233.929 45.78 233.889 45.34 233.889 45.02C233.889 44.9 233.929 44.76 234.029 44.6C234.109 44.44 234.189 44.36 234.289 44.36C234.729 44.36 235.029 44.74 235.189 45.46C235.349 46.22 235.469 46.78 235.549 47.18C236.029 46.28 236.649 45.52 237.449 44.9C238.209 44.3 238.989 44 239.789 44C239.989 44 240.189 44.1 240.389 44.3C240.549 44.5 240.629 44.72 240.649 44.94ZM249.002 51.82C249.002 52.34 248.382 52.62 247.182 52.62C245.622 52.62 244.502 51.88 243.822 50.4C243.662 50.44 243.462 50.46 243.262 50.46C242.562 50.46 242.002 50.34 241.602 50.08C241.102 49.8 240.862 49.5 240.862 49.18C240.862 48.74 241.062 48.52 241.462 48.52C241.522 48.52 241.722 48.64 242.062 48.88C242.402 49.1 242.742 49.2 243.082 49.2C243.202 49.2 243.342 49.2 243.462 49.18C243.402 48.86 243.382 48.56 243.382 48.26C243.382 47.3 243.622 46.36 244.102 45.46C244.642 44.44 245.322 43.92 246.142 43.92C246.642 43.92 247.142 44.2 247.662 44.72C248.022 45.12 248.222 45.58 248.222 46.1C248.222 46.9 247.882 47.66 247.222 48.42C246.622 49.12 245.882 49.66 245.002 50.04C245.402 50.88 246.022 51.3 246.902 51.3C247.082 51.3 247.362 51.28 247.742 51.2C248.102 51.16 248.322 51.14 248.422 51.14C248.582 51.14 248.702 51.22 248.822 51.36C248.942 51.52 249.002 51.66 249.002 51.82ZM247.042 46.2C247.042 45.96 246.922 45.74 246.722 45.54C246.502 45.36 246.282 45.26 246.062 45.26C245.662 45.26 245.322 45.58 245.042 46.18C244.762 46.78 244.622 47.42 244.622 48.06C244.622 48.3 244.642 48.58 244.682 48.86C245.322 48.58 245.882 48.2 246.342 47.7C246.802 47.24 247.042 46.74 247.042 46.2ZM257.344 47.3C257.344 47.38 257.304 47.5 257.264 47.66C256.964 48.5 256.824 49.4 256.824 50.32C256.824 50.66 256.844 51 256.924 51.32C257.044 51.92 257.124 52.22 257.124 52.26C257.124 52.64 256.904 52.84 256.484 52.84C256.084 52.84 255.864 52.5 255.804 51.86C255.764 51.52 255.704 50.98 255.624 50.24C254.524 51.56 253.464 52.22 252.444 52.22C251.904 52.22 251.444 51.98 251.064 51.46C250.684 51.02 250.504 50.5 250.504 49.92C250.504 49 250.904 48.04 251.744 47C251.904 46.8 252.204 46.48 252.624 46.08C253.944 44.88 255.044 44.28 255.964 44.28C256.164 44.28 256.384 44.38 256.604 44.54C256.804 44.72 256.924 44.92 256.924 45.14C256.924 45.18 256.904 45.28 256.864 45.42C257.024 45.82 257.104 46.28 257.104 46.78C257.264 46.98 257.344 47.16 257.344 47.3ZM255.944 46.74C255.944 46.04 255.764 45.68 255.444 45.68C255.184 45.68 254.764 45.9 254.204 46.32C253.684 46.7 253.264 47.08 252.944 47.46C252.104 48.4 251.704 49.2 251.704 49.86C251.704 50.56 251.964 50.9 252.524 50.9C253.284 50.9 254.024 50.44 254.784 49.48C255.544 48.52 255.944 47.62 255.944 46.74ZM272.731 51.32C272.731 51.84 272.431 52.08 271.871 52.08C271.171 52.08 270.651 50.52 270.331 47.38C269.291 48.44 268.331 49.64 267.491 51C267.131 51.58 266.791 51.86 266.491 51.86C266.171 51.86 265.891 51.56 265.631 50.94C265.191 49.96 264.971 48.58 264.951 46.8C264.171 47.32 263.411 48.02 262.691 48.86C261.771 49.9 261.231 50.82 261.031 51.66C260.871 52.36 260.631 52.72 260.351 52.72C259.831 52.72 259.591 52.24 259.591 51.32C259.591 50.68 259.731 49.68 260.011 48.34C260.331 46.74 260.511 45.66 260.511 45.14C260.511 44.78 260.391 44.36 260.171 43.84C260.211 43.6 260.351 43.4 260.591 43.22C260.771 43.08 260.951 43 261.151 43C261.611 43 261.851 43.58 261.851 44.74C261.851 45.26 261.751 45.96 261.571 46.8C261.411 47.5 261.271 48.18 261.131 48.86C263.651 46.22 265.191 44.88 265.791 44.88C266.091 44.88 266.251 45.34 266.251 46.22C266.251 47.98 266.411 49.26 266.731 50.06C268.791 47.18 270.251 45.72 271.111 45.72C271.451 45.72 271.631 46.2 271.631 47.12C271.631 47.72 271.691 48.36 271.831 49.06C271.991 49.92 272.191 50.52 272.471 50.86C272.631 51.1 272.731 51.24 272.731 51.32ZM277.172 51.5C277.172 51.58 277.072 51.92 276.912 52.52C276.772 52.96 276.512 53.18 276.112 53.18C275.832 53.18 275.592 53.02 275.372 52.7C275.112 52.32 274.992 52.04 274.992 51.84C274.992 51.52 275.132 51.18 275.412 50.86C275.672 50.54 275.952 50.36 276.272 50.36C276.872 50.36 277.172 50.74 277.172 51.5Z" fill="#3077FF"/>
</svg>
